%
M48
M72
T01C0.02000
T02C0.02362
T03C0.02756
T04C0.03600
T05C0.03937
T06C0.04000
T07C0.15748
%
T01
X31800Y206800
X66800Y206800
X111800Y166800
X116800Y199300
X190300Y168300
T02
X31800Y76800
X66800Y61800
X81800Y91800
X131800Y146800
X146800Y111800
X156800Y146800
X166800Y201800
X161800Y226800
X131800Y201800
X121800Y226800
X86800Y226800
X31800Y286800
X31800Y426800
X201800Y226800
X271800Y291800
X271800Y426800
X221800Y86800
X165973Y24320
X146800Y51800
X137627Y24320
T03
X138808Y35343
X144123Y31800
X159477Y31800
X164792Y35343
T04
X201800Y106800
X201800Y116800
X201800Y126800
X201800Y136800
X201800Y146800
X201800Y156800
X201800Y166800
X201800Y176800
X201800Y186800
X201800Y196800
X211800Y196800
X211800Y186800
X211800Y176800
X211800Y166800
X211800Y156800
X211800Y146800
X211800Y136800
X211800Y126800
X211800Y116800
X211800Y106800
X221800Y106800
X221800Y116800
X221800Y126800
X221800Y136800
X221800Y146800
X221800Y156800
X221800Y166800
X221800Y176800
X221800Y186800
X221800Y196800
X231800Y196800
X231800Y186800
X231800Y176800
X231800Y166800
X231800Y156800
X231800Y146800
X231800Y136800
X231800Y126800
X231800Y116800
X231800Y106800
X241800Y106800
X241800Y116800
X241800Y126800
X241800Y136800
X241800Y146800
X241800Y156800
X241800Y166800
X241800Y176800
X241800Y186800
X241800Y196800
X251800Y196800
X251800Y186800
X251800Y176800
X251800Y166800
X251800Y156800
X251800Y146800
X251800Y136800
X251800Y126800
X251800Y116800
X251800Y106800
X261800Y106800
X261800Y96800
X271800Y96800
X271800Y106800
X271800Y116800
X271800Y126800
X271800Y136800
X271800Y146800
X271800Y156800
X271800Y166800
X271800Y176800
X271800Y186800
X271800Y196800
X261800Y196800
X261800Y186800
X261800Y176800
X261800Y166800
X261800Y156800
X261800Y146800
X261800Y136800
X261800Y126800
X261800Y116800
X101800Y126800
X101800Y136800
X101800Y146800
X101800Y156800
X101800Y166800
X101800Y176800
X101800Y186800
X101800Y196800
X91800Y196800
X91800Y186800
X91800Y176800
X91800Y166800
X91800Y156800
X91800Y146800
X91800Y136800
X91800Y126800
X81800Y126800
X81800Y136800
X81800Y146800
X81800Y156800
X81800Y166800
X81800Y176800
X81800Y186800
X81800Y196800
X71800Y196800
X71800Y186800
X71800Y176800
X71800Y166800
X71800Y156800
X71800Y146800
X71800Y136800
X71800Y126800
X61800Y126800
X61800Y136800
X61800Y146800
X61800Y156800
X61800Y166800
X61800Y176800
X61800Y186800
X61800Y196800
X51800Y196800
X51800Y186800
X51800Y176800
X51800Y166800
X51800Y156800
X51800Y146800
X51800Y136800
X51800Y126800
X41800Y126800
X41800Y116800
X41800Y106800
X41800Y96800
X31800Y96800
X31800Y106800
X31800Y116800
X31800Y126800
X31800Y136800
X31800Y146800
X31800Y156800
X31800Y166800
X31800Y176800
X31800Y186800
X31800Y196800
X41800Y196800
X41800Y186800
X41800Y176800
X41800Y166800
X41800Y156800
X41800Y146800
X41800Y136800
X101800Y86800
T05
X98729Y64359
X98729Y40343
X117627Y52154
X193650Y51721
X193650Y41721
X193650Y31721
X249300Y301800
X249300Y311800
X249300Y321800
X249300Y331800
X249300Y341800
X249300Y351800
X249300Y361800
X249300Y371800
X249300Y381800
X249300Y391800
X249300Y401800
X249300Y411800
X259300Y411800
X259300Y401800
X259300Y391800
X259300Y381800
X259300Y371800
X259300Y361800
X259300Y351800
X259300Y341800
X259300Y331800
X259300Y321800
X259300Y311800
X259300Y301800
X54300Y301800
X54300Y311800
X54300Y321800
X54300Y331800
X54300Y341800
X54300Y351800
X54300Y361800
X54300Y371800
X54300Y381800
X54300Y391800
X54300Y401800
X54300Y411800
X44300Y411800
X44300Y401800
X44300Y391800
X44300Y381800
X44300Y371800
X44300Y361800
X44300Y351800
X44300Y341800
X44300Y331800
X44300Y321800
X44300Y311800
X44300Y301800
T06
X71800Y301800
X71800Y311800
X71800Y321800
X71800Y331800
X71800Y341800
X71800Y351800
X71800Y361800
X71800Y371800
X71800Y381800
X71800Y391800
X71800Y401800
X71800Y411800
X81800Y411800
X81800Y401800
X81800Y391800
X81800Y381800
X81800Y371800
X81800Y361800
X81800Y351800
X81800Y341800
X81800Y331800
X81800Y321800
X81800Y311800
X81800Y301800
X81800Y291800
X81800Y281800
X81800Y271800
X81800Y261800
X71800Y261800
X71800Y271800
X71800Y281800
X71800Y291800
X91800Y291800
X91800Y281800
X91800Y271800
X91800Y261800
X101800Y261800
X101800Y271800
X101800Y281800
X101800Y291800
X101800Y301800
X101800Y311800
X101800Y321800
X101800Y331800
X101800Y341800
X101800Y351800
X101800Y361800
X101800Y371800
X101800Y381800
X101800Y391800
X101800Y401800
X101800Y411800
X91800Y411800
X91800Y401800
X91800Y391800
X91800Y381800
X91800Y371800
X91800Y361800
X91800Y351800
X91800Y341800
X91800Y331800
X91800Y321800
X91800Y311800
X91800Y301800
X111800Y301800
X111800Y311800
X111800Y321800
X111800Y331800
X111800Y341800
X111800Y351800
X111800Y361800
X111800Y371800
X111800Y381800
X111800Y391800
X111800Y401800
X111800Y411800
X121800Y411800
X121800Y401800
X121800Y391800
X121800Y381800
X121800Y371800
X121800Y361800
X121800Y351800
X121800Y341800
X121800Y331800
X121800Y321800
X121800Y311800
X121800Y301800
X121800Y291800
X121800Y281800
X121800Y271800
X121800Y261800
X111800Y261800
X111800Y271800
X111800Y281800
X111800Y291800
X131800Y291800
X131800Y281800
X131800Y271800
X131800Y261800
X141800Y261800
X141800Y271800
X141800Y281800
X141800Y291800
X141800Y301800
X141800Y311800
X141800Y321800
X141800Y331800
X141800Y341800
X141800Y351800
X141800Y361800
X141800Y371800
X141800Y381800
X141800Y391800
X141800Y401800
X141800Y411800
X131800Y411800
X131800Y401800
X131800Y391800
X131800Y381800
X131800Y371800
X131800Y361800
X131800Y351800
X131800Y341800
X131800Y331800
X131800Y321800
X131800Y311800
X131800Y301800
X161800Y301800
X161800Y311800
X161800Y321800
X161800Y331800
X161800Y341800
X161800Y351800
X161800Y361800
X161800Y371800
X161800Y381800
X161800Y391800
X161800Y401800
X161800Y411800
X171800Y411800
X171800Y401800
X171800Y391800
X171800Y381800
X171800Y371800
X171800Y361800
X171800Y351800
X171800Y341800
X171800Y331800
X171800Y321800
X171800Y311800
X171800Y301800
X171800Y291800
X171800Y281800
X171800Y271800
X171800Y261800
X161800Y261800
X161800Y271800
X161800Y281800
X161800Y291800
X181800Y291800
X181800Y281800
X181800Y271800
X181800Y261800
X191800Y261800
X191800Y271800
X191800Y281800
X191800Y291800
X191800Y301800
X191800Y311800
X191800Y321800
X191800Y331800
X191800Y341800
X191800Y351800
X191800Y361800
X191800Y371800
X191800Y381800
X191800Y391800
X191800Y401800
X191800Y411800
X201800Y411800
X201800Y401800
X201800Y391800
X201800Y381800
X201800Y371800
X201800Y361800
X201800Y351800
X201800Y341800
X201800Y331800
X201800Y321800
X201800Y311800
X201800Y301800
X201800Y291800
X201800Y281800
X201800Y271800
X201800Y261800
X211800Y261800
X211800Y271800
X211800Y281800
X211800Y291800
X211800Y301800
X211800Y311800
X211800Y321800
X211800Y331800
X211800Y341800
X211800Y351800
X211800Y361800
X211800Y371800
X211800Y381800
X211800Y391800
X211800Y401800
X211800Y411800
X221800Y411800
X221800Y401800
X221800Y391800
X221800Y381800
X221800Y371800
X221800Y361800
X221800Y351800
X221800Y341800
X221800Y331800
X221800Y321800
X221800Y311800
X221800Y301800
X221800Y291800
X221800Y281800
X221800Y271800
X221800Y261800
X231800Y261800
X231800Y271800
X231800Y281800
X231800Y291800
X231800Y301800
X231800Y311800
X231800Y321800
X231800Y331800
X231800Y341800
X231800Y351800
X231800Y361800
X231800Y371800
X231800Y381800
X231800Y391800
X231800Y401800
X231800Y411800
X181800Y411800
X181800Y401800
X181800Y391800
X181800Y381800
X181800Y371800
X181800Y361800
X181800Y351800
X181800Y341800
X181800Y331800
X181800Y321800
X181800Y311800
X181800Y301800
X96800Y111800
X86800Y111800
X76800Y111800
X66800Y111800
X56800Y111800
T07
X43375Y78414
X43375Y275186
X43375Y452391
X259871Y452430
X259871Y275225
X259831Y78414
M30
