G75*
%MOIN*%
%OFA0B0*%
%FSLAX25Y25*%
%IPPOS*%
%LPD*%
%AMOC8*
5,1,8,0,0,1.08239X$1,22.5*
%
%ADD10C,0.16548*%
%ADD11C,0.07400*%
%ADD12C,0.08674*%
%ADD13OC8,0.07100*%
%ADD14C,0.05556*%
%ADD15R,0.10643X0.10643*%
%ADD16C,0.03556*%
%ADD17OC8,0.07800*%
%ADD18C,0.06800*%
%ADD19R,0.04400X0.04400*%
%ADD20C,0.04400*%
%ADD21C,0.04762*%
D10*
X0043375Y0078414D03*
X0043375Y0275186D03*
X0043375Y0452391D03*
X0259871Y0452430D03*
X0259871Y0275225D03*
X0259831Y0078414D03*
D11*
X0193650Y0051721D03*
X0193650Y0041721D03*
X0193650Y0031721D03*
X0249300Y0301800D03*
X0249300Y0311800D03*
X0249300Y0321800D03*
X0249300Y0331800D03*
X0249300Y0341800D03*
X0249300Y0351800D03*
X0249300Y0361800D03*
X0249300Y0371800D03*
X0249300Y0381800D03*
X0249300Y0391800D03*
X0249300Y0401800D03*
X0249300Y0411800D03*
X0259300Y0411800D03*
X0259300Y0401800D03*
X0259300Y0391800D03*
X0259300Y0381800D03*
X0259300Y0371800D03*
X0259300Y0361800D03*
X0259300Y0351800D03*
X0259300Y0341800D03*
X0259300Y0331800D03*
X0259300Y0321800D03*
X0259300Y0311800D03*
X0259300Y0301800D03*
X0054300Y0301800D03*
X0054300Y0311800D03*
X0054300Y0321800D03*
X0054300Y0331800D03*
X0054300Y0341800D03*
X0054300Y0351800D03*
X0054300Y0361800D03*
X0054300Y0371800D03*
X0054300Y0381800D03*
X0054300Y0391800D03*
X0054300Y0401800D03*
X0054300Y0411800D03*
X0044300Y0411800D03*
X0044300Y0401800D03*
X0044300Y0391800D03*
X0044300Y0381800D03*
X0044300Y0371800D03*
X0044300Y0361800D03*
X0044300Y0351800D03*
X0044300Y0341800D03*
X0044300Y0331800D03*
X0044300Y0321800D03*
X0044300Y0311800D03*
X0044300Y0301800D03*
D12*
X0094792Y0064359D02*
X0102666Y0064359D01*
X0102666Y0040343D02*
X0094792Y0040343D01*
X0117627Y0048217D02*
X0117627Y0056091D01*
D13*
X0101800Y0086800D03*
X0101800Y0126800D03*
X0101800Y0136800D03*
X0101800Y0146800D03*
X0101800Y0156800D03*
X0101800Y0166800D03*
X0101800Y0176800D03*
X0101800Y0186800D03*
X0101800Y0196800D03*
X0091800Y0196800D03*
X0091800Y0186800D03*
X0091800Y0176800D03*
X0091800Y0166800D03*
X0091800Y0156800D03*
X0091800Y0146800D03*
X0091800Y0136800D03*
X0091800Y0126800D03*
X0081800Y0126800D03*
X0081800Y0136800D03*
X0081800Y0146800D03*
X0081800Y0156800D03*
X0081800Y0166800D03*
X0081800Y0176800D03*
X0081800Y0186800D03*
X0081800Y0196800D03*
X0071800Y0196800D03*
X0071800Y0186800D03*
X0071800Y0176800D03*
X0071800Y0166800D03*
X0071800Y0156800D03*
X0071800Y0146800D03*
X0071800Y0136800D03*
X0071800Y0126800D03*
X0061800Y0126800D03*
X0061800Y0136800D03*
X0061800Y0146800D03*
X0061800Y0156800D03*
X0061800Y0166800D03*
X0061800Y0176800D03*
X0061800Y0186800D03*
X0061800Y0196800D03*
X0051800Y0196800D03*
X0051800Y0186800D03*
X0051800Y0176800D03*
X0051800Y0166800D03*
X0051800Y0156800D03*
X0051800Y0146800D03*
X0051800Y0136800D03*
X0051800Y0126800D03*
X0041800Y0126800D03*
X0041800Y0116800D03*
X0041800Y0106800D03*
X0041800Y0096800D03*
X0031800Y0096800D03*
X0031800Y0106800D03*
X0031800Y0116800D03*
X0031800Y0126800D03*
X0031800Y0136800D03*
X0031800Y0146800D03*
X0031800Y0156800D03*
X0031800Y0166800D03*
X0031800Y0176800D03*
X0031800Y0186800D03*
X0031800Y0196800D03*
X0041800Y0196800D03*
X0041800Y0186800D03*
X0041800Y0176800D03*
X0041800Y0166800D03*
X0041800Y0156800D03*
X0041800Y0146800D03*
X0041800Y0136800D03*
X0201800Y0136800D03*
X0201800Y0126800D03*
X0201800Y0116800D03*
X0201800Y0106800D03*
X0211800Y0106800D03*
X0211800Y0116800D03*
X0211800Y0126800D03*
X0211800Y0136800D03*
X0211800Y0146800D03*
X0211800Y0156800D03*
X0211800Y0166800D03*
X0211800Y0176800D03*
X0211800Y0186800D03*
X0211800Y0196800D03*
X0221800Y0196800D03*
X0221800Y0186800D03*
X0221800Y0176800D03*
X0221800Y0166800D03*
X0221800Y0156800D03*
X0221800Y0146800D03*
X0221800Y0136800D03*
X0221800Y0126800D03*
X0221800Y0116800D03*
X0221800Y0106800D03*
X0231800Y0106800D03*
X0231800Y0116800D03*
X0231800Y0126800D03*
X0231800Y0136800D03*
X0231800Y0146800D03*
X0231800Y0156800D03*
X0231800Y0166800D03*
X0231800Y0176800D03*
X0231800Y0186800D03*
X0231800Y0196800D03*
X0241800Y0196800D03*
X0241800Y0186800D03*
X0241800Y0176800D03*
X0241800Y0166800D03*
X0241800Y0156800D03*
X0241800Y0146800D03*
X0241800Y0136800D03*
X0241800Y0126800D03*
X0241800Y0116800D03*
X0241800Y0106800D03*
X0251800Y0106800D03*
X0251800Y0116800D03*
X0251800Y0126800D03*
X0251800Y0136800D03*
X0251800Y0146800D03*
X0251800Y0156800D03*
X0251800Y0166800D03*
X0251800Y0176800D03*
X0251800Y0186800D03*
X0251800Y0196800D03*
X0261800Y0196800D03*
X0261800Y0186800D03*
X0261800Y0176800D03*
X0261800Y0166800D03*
X0261800Y0156800D03*
X0261800Y0146800D03*
X0261800Y0136800D03*
X0261800Y0126800D03*
X0261800Y0116800D03*
X0261800Y0106800D03*
X0261800Y0096800D03*
X0271800Y0096800D03*
X0271800Y0106800D03*
X0271800Y0116800D03*
X0271800Y0126800D03*
X0271800Y0136800D03*
X0271800Y0146800D03*
X0271800Y0156800D03*
X0271800Y0166800D03*
X0271800Y0176800D03*
X0271800Y0186800D03*
X0271800Y0196800D03*
X0201800Y0196800D03*
X0201800Y0186800D03*
X0201800Y0176800D03*
X0201800Y0166800D03*
X0201800Y0156800D03*
X0201800Y0146800D03*
D14*
X0169548Y0035343D02*
X0164792Y0035343D01*
X0138808Y0035343D02*
X0134052Y0035343D01*
D15*
X0137627Y0024320D03*
X0165973Y0024320D03*
D16*
X0159477Y0031800D03*
X0144123Y0031800D03*
D17*
X0141800Y0261800D03*
X0141800Y0271800D03*
X0141800Y0281800D03*
X0141800Y0291800D03*
X0141800Y0301800D03*
X0141800Y0311800D03*
X0141800Y0321800D03*
X0141800Y0331800D03*
X0141800Y0341800D03*
X0141800Y0351800D03*
X0141800Y0361800D03*
X0141800Y0371800D03*
X0141800Y0381800D03*
X0141800Y0391800D03*
X0141800Y0401800D03*
X0141800Y0411800D03*
X0131800Y0411800D03*
X0131800Y0401800D03*
X0131800Y0391800D03*
X0131800Y0381800D03*
X0131800Y0371800D03*
X0131800Y0361800D03*
X0131800Y0351800D03*
X0131800Y0341800D03*
X0131800Y0331800D03*
X0131800Y0321800D03*
X0131800Y0311800D03*
X0131800Y0301800D03*
X0131800Y0291800D03*
X0131800Y0281800D03*
X0131800Y0271800D03*
X0131800Y0261800D03*
X0121800Y0261800D03*
X0121800Y0271800D03*
X0121800Y0281800D03*
X0121800Y0291800D03*
X0121800Y0301800D03*
X0121800Y0311800D03*
X0121800Y0321800D03*
X0121800Y0331800D03*
X0121800Y0341800D03*
X0121800Y0351800D03*
X0121800Y0361800D03*
X0121800Y0371800D03*
X0121800Y0381800D03*
X0121800Y0391800D03*
X0121800Y0401800D03*
X0121800Y0411800D03*
X0111800Y0411800D03*
X0111800Y0401800D03*
X0111800Y0391800D03*
X0111800Y0381800D03*
X0111800Y0371800D03*
X0111800Y0361800D03*
X0111800Y0351800D03*
X0111800Y0341800D03*
X0111800Y0331800D03*
X0111800Y0321800D03*
X0111800Y0311800D03*
X0111800Y0301800D03*
X0111800Y0291800D03*
X0111800Y0281800D03*
X0111800Y0271800D03*
X0111800Y0261800D03*
X0101800Y0261800D03*
X0101800Y0271800D03*
X0101800Y0281800D03*
X0101800Y0291800D03*
X0101800Y0301800D03*
X0101800Y0311800D03*
X0101800Y0321800D03*
X0101800Y0331800D03*
X0101800Y0341800D03*
X0101800Y0351800D03*
X0101800Y0361800D03*
X0101800Y0371800D03*
X0101800Y0381800D03*
X0101800Y0391800D03*
X0101800Y0401800D03*
X0101800Y0411800D03*
X0091800Y0411800D03*
X0091800Y0401800D03*
X0091800Y0391800D03*
X0091800Y0381800D03*
X0091800Y0371800D03*
X0091800Y0361800D03*
X0091800Y0351800D03*
X0091800Y0341800D03*
X0091800Y0331800D03*
X0091800Y0321800D03*
X0091800Y0311800D03*
X0091800Y0301800D03*
X0091800Y0291800D03*
X0091800Y0281800D03*
X0091800Y0271800D03*
X0091800Y0261800D03*
X0081800Y0261800D03*
X0081800Y0271800D03*
X0081800Y0281800D03*
X0081800Y0291800D03*
X0081800Y0301800D03*
X0081800Y0311800D03*
X0081800Y0321800D03*
X0081800Y0331800D03*
X0081800Y0341800D03*
X0081800Y0351800D03*
X0081800Y0361800D03*
X0081800Y0371800D03*
X0081800Y0381800D03*
X0081800Y0391800D03*
X0081800Y0401800D03*
X0081800Y0411800D03*
X0071800Y0411800D03*
X0071800Y0401800D03*
X0071800Y0391800D03*
X0071800Y0381800D03*
X0071800Y0371800D03*
X0071800Y0361800D03*
X0071800Y0351800D03*
X0071800Y0341800D03*
X0071800Y0331800D03*
X0071800Y0321800D03*
X0071800Y0311800D03*
X0071800Y0301800D03*
X0071800Y0291800D03*
X0071800Y0281800D03*
X0071800Y0271800D03*
X0071800Y0261800D03*
X0161800Y0261800D03*
X0161800Y0271800D03*
X0161800Y0281800D03*
X0161800Y0291800D03*
X0161800Y0301800D03*
X0161800Y0311800D03*
X0161800Y0321800D03*
X0161800Y0331800D03*
X0161800Y0341800D03*
X0161800Y0351800D03*
X0161800Y0361800D03*
X0161800Y0371800D03*
X0161800Y0381800D03*
X0161800Y0391800D03*
X0161800Y0401800D03*
X0161800Y0411800D03*
X0171800Y0411800D03*
X0171800Y0401800D03*
X0171800Y0391800D03*
X0171800Y0381800D03*
X0171800Y0371800D03*
X0171800Y0361800D03*
X0171800Y0351800D03*
X0171800Y0341800D03*
X0171800Y0331800D03*
X0171800Y0321800D03*
X0171800Y0311800D03*
X0171800Y0301800D03*
X0171800Y0291800D03*
X0171800Y0281800D03*
X0171800Y0271800D03*
X0171800Y0261800D03*
X0181800Y0261800D03*
X0181800Y0271800D03*
X0181800Y0281800D03*
X0181800Y0291800D03*
X0181800Y0301800D03*
X0181800Y0311800D03*
X0181800Y0321800D03*
X0181800Y0331800D03*
X0181800Y0341800D03*
X0181800Y0351800D03*
X0181800Y0361800D03*
X0181800Y0371800D03*
X0181800Y0381800D03*
X0181800Y0391800D03*
X0181800Y0401800D03*
X0181800Y0411800D03*
X0191800Y0411800D03*
X0191800Y0401800D03*
X0191800Y0391800D03*
X0191800Y0381800D03*
X0191800Y0371800D03*
X0191800Y0361800D03*
X0191800Y0351800D03*
X0191800Y0341800D03*
X0191800Y0331800D03*
X0191800Y0321800D03*
X0191800Y0311800D03*
X0191800Y0301800D03*
X0191800Y0291800D03*
X0191800Y0281800D03*
X0191800Y0271800D03*
X0191800Y0261800D03*
X0201800Y0261800D03*
X0201800Y0271800D03*
X0201800Y0281800D03*
X0201800Y0291800D03*
X0201800Y0301800D03*
X0201800Y0311800D03*
X0201800Y0321800D03*
X0201800Y0331800D03*
X0201800Y0341800D03*
X0201800Y0351800D03*
X0201800Y0361800D03*
X0201800Y0371800D03*
X0201800Y0381800D03*
X0201800Y0391800D03*
X0201800Y0401800D03*
X0201800Y0411800D03*
X0211800Y0411800D03*
X0211800Y0401800D03*
X0211800Y0391800D03*
X0211800Y0381800D03*
X0211800Y0371800D03*
X0211800Y0361800D03*
X0211800Y0351800D03*
X0211800Y0341800D03*
X0211800Y0331800D03*
X0211800Y0321800D03*
X0211800Y0311800D03*
X0211800Y0301800D03*
X0211800Y0291800D03*
X0211800Y0281800D03*
X0211800Y0271800D03*
X0211800Y0261800D03*
X0221800Y0261800D03*
X0221800Y0271800D03*
X0221800Y0281800D03*
X0221800Y0291800D03*
X0221800Y0301800D03*
X0221800Y0311800D03*
X0221800Y0321800D03*
X0221800Y0331800D03*
X0221800Y0341800D03*
X0221800Y0351800D03*
X0221800Y0361800D03*
X0221800Y0371800D03*
X0221800Y0381800D03*
X0221800Y0391800D03*
X0221800Y0401800D03*
X0221800Y0411800D03*
X0231800Y0411800D03*
X0231800Y0401800D03*
X0231800Y0391800D03*
X0231800Y0381800D03*
X0231800Y0371800D03*
X0231800Y0361800D03*
X0231800Y0351800D03*
X0231800Y0341800D03*
X0231800Y0331800D03*
X0231800Y0321800D03*
X0231800Y0311800D03*
X0231800Y0301800D03*
X0231800Y0291800D03*
X0231800Y0281800D03*
X0231800Y0271800D03*
X0231800Y0261800D03*
D18*
X0096800Y0114800D02*
X0096800Y0108800D01*
X0086800Y0108800D02*
X0086800Y0114800D01*
X0076800Y0114800D02*
X0076800Y0108800D01*
X0066800Y0108800D02*
X0066800Y0114800D01*
X0056800Y0114800D02*
X0056800Y0108800D01*
D19*
X0066800Y0206800D03*
X0031800Y0206800D03*
X0111800Y0166800D03*
X0116800Y0199300D03*
D20*
X0190300Y0168300D03*
D21*
X0031800Y0076800D03*
X0066800Y0061800D03*
X0081800Y0091800D03*
X0131800Y0146800D03*
X0146800Y0111800D03*
X0156800Y0146800D03*
X0166800Y0201800D03*
X0161800Y0226800D03*
X0131800Y0201800D03*
X0121800Y0226800D03*
X0086800Y0226800D03*
X0031800Y0286800D03*
X0031800Y0426800D03*
X0201800Y0226800D03*
X0271800Y0291800D03*
X0271800Y0426800D03*
X0221800Y0086800D03*
X0146800Y0051800D03*
M02*
