G75*
%MOIN*%
%OFA0B0*%
%FSLAX25Y25*%
%IPPOS*%
%LPD*%
%AMOC8*
5,1,8,0,0,1.08239X$1,22.5*
%
%ADD10C,0.06600*%
%ADD11C,0.07874*%
%ADD12OC8,0.06300*%
%ADD13C,0.04756*%
%ADD14R,0.09843X0.09843*%
%ADD15OC8,0.07000*%
%ADD16C,0.06000*%
%ADD17C,0.01600*%
%ADD18C,0.02000*%
%ADD19R,0.03600X0.03600*%
%ADD20C,0.03600*%
%ADD21C,0.03962*%
D10*
X0044300Y0301800D03*
X0044300Y0311800D03*
X0044300Y0321800D03*
X0044300Y0331800D03*
X0044300Y0341800D03*
X0044300Y0351800D03*
X0044300Y0361800D03*
X0044300Y0371800D03*
X0044300Y0381800D03*
X0044300Y0391800D03*
X0044300Y0401800D03*
X0044300Y0411800D03*
X0054300Y0411800D03*
X0054300Y0401800D03*
X0054300Y0391800D03*
X0054300Y0381800D03*
X0054300Y0371800D03*
X0054300Y0361800D03*
X0054300Y0351800D03*
X0054300Y0341800D03*
X0054300Y0331800D03*
X0054300Y0321800D03*
X0054300Y0311800D03*
X0054300Y0301800D03*
X0193650Y0051721D03*
X0193650Y0041721D03*
X0193650Y0031721D03*
X0249300Y0301800D03*
X0249300Y0311800D03*
X0249300Y0321800D03*
X0249300Y0331800D03*
X0249300Y0341800D03*
X0249300Y0351800D03*
X0249300Y0361800D03*
X0249300Y0371800D03*
X0249300Y0381800D03*
X0249300Y0391800D03*
X0249300Y0401800D03*
X0249300Y0411800D03*
X0259300Y0411800D03*
X0259300Y0401800D03*
X0259300Y0391800D03*
X0259300Y0381800D03*
X0259300Y0371800D03*
X0259300Y0361800D03*
X0259300Y0351800D03*
X0259300Y0341800D03*
X0259300Y0331800D03*
X0259300Y0321800D03*
X0259300Y0311800D03*
X0259300Y0301800D03*
D11*
X0117627Y0056091D02*
X0117627Y0048217D01*
X0102666Y0040343D02*
X0094792Y0040343D01*
X0094792Y0064359D02*
X0102666Y0064359D01*
D12*
X0101800Y0086800D03*
X0101800Y0126800D03*
X0101800Y0136800D03*
X0101800Y0146800D03*
X0101800Y0156800D03*
X0101800Y0166800D03*
X0101800Y0176800D03*
X0101800Y0186800D03*
X0101800Y0196800D03*
X0091800Y0196800D03*
X0091800Y0186800D03*
X0091800Y0176800D03*
X0091800Y0166800D03*
X0091800Y0156800D03*
X0091800Y0146800D03*
X0091800Y0136800D03*
X0091800Y0126800D03*
X0081800Y0126800D03*
X0081800Y0136800D03*
X0081800Y0146800D03*
X0081800Y0156800D03*
X0081800Y0166800D03*
X0081800Y0176800D03*
X0081800Y0186800D03*
X0081800Y0196800D03*
X0071800Y0196800D03*
X0071800Y0186800D03*
X0071800Y0176800D03*
X0071800Y0166800D03*
X0071800Y0156800D03*
X0071800Y0146800D03*
X0071800Y0136800D03*
X0071800Y0126800D03*
X0061800Y0126800D03*
X0061800Y0136800D03*
X0061800Y0146800D03*
X0061800Y0156800D03*
X0061800Y0166800D03*
X0061800Y0176800D03*
X0061800Y0186800D03*
X0061800Y0196800D03*
X0051800Y0196800D03*
X0051800Y0186800D03*
X0051800Y0176800D03*
X0051800Y0166800D03*
X0051800Y0156800D03*
X0051800Y0146800D03*
X0051800Y0136800D03*
X0051800Y0126800D03*
X0041800Y0126800D03*
X0041800Y0116800D03*
X0041800Y0106800D03*
X0041800Y0096800D03*
X0031800Y0096800D03*
X0031800Y0106800D03*
X0031800Y0116800D03*
X0031800Y0126800D03*
X0031800Y0136800D03*
X0031800Y0146800D03*
X0031800Y0156800D03*
X0031800Y0166800D03*
X0031800Y0176800D03*
X0031800Y0186800D03*
X0031800Y0196800D03*
X0041800Y0196800D03*
X0041800Y0186800D03*
X0041800Y0176800D03*
X0041800Y0166800D03*
X0041800Y0156800D03*
X0041800Y0146800D03*
X0041800Y0136800D03*
X0201800Y0136800D03*
X0201800Y0126800D03*
X0201800Y0116800D03*
X0201800Y0106800D03*
X0211800Y0106800D03*
X0211800Y0116800D03*
X0211800Y0126800D03*
X0211800Y0136800D03*
X0211800Y0146800D03*
X0211800Y0156800D03*
X0211800Y0166800D03*
X0211800Y0176800D03*
X0211800Y0186800D03*
X0211800Y0196800D03*
X0221800Y0196800D03*
X0221800Y0186800D03*
X0221800Y0176800D03*
X0221800Y0166800D03*
X0221800Y0156800D03*
X0221800Y0146800D03*
X0221800Y0136800D03*
X0221800Y0126800D03*
X0221800Y0116800D03*
X0221800Y0106800D03*
X0231800Y0106800D03*
X0231800Y0116800D03*
X0231800Y0126800D03*
X0231800Y0136800D03*
X0231800Y0146800D03*
X0231800Y0156800D03*
X0231800Y0166800D03*
X0231800Y0176800D03*
X0231800Y0186800D03*
X0231800Y0196800D03*
X0241800Y0196800D03*
X0241800Y0186800D03*
X0241800Y0176800D03*
X0241800Y0166800D03*
X0241800Y0156800D03*
X0241800Y0146800D03*
X0241800Y0136800D03*
X0241800Y0126800D03*
X0241800Y0116800D03*
X0241800Y0106800D03*
X0251800Y0106800D03*
X0251800Y0116800D03*
X0251800Y0126800D03*
X0251800Y0136800D03*
X0251800Y0146800D03*
X0251800Y0156800D03*
X0251800Y0166800D03*
X0251800Y0176800D03*
X0251800Y0186800D03*
X0251800Y0196800D03*
X0261800Y0196800D03*
X0261800Y0186800D03*
X0261800Y0176800D03*
X0261800Y0166800D03*
X0261800Y0156800D03*
X0261800Y0146800D03*
X0261800Y0136800D03*
X0261800Y0126800D03*
X0261800Y0116800D03*
X0261800Y0106800D03*
X0261800Y0096800D03*
X0271800Y0096800D03*
X0271800Y0106800D03*
X0271800Y0116800D03*
X0271800Y0126800D03*
X0271800Y0136800D03*
X0271800Y0146800D03*
X0271800Y0156800D03*
X0271800Y0166800D03*
X0271800Y0176800D03*
X0271800Y0186800D03*
X0271800Y0196800D03*
X0201800Y0196800D03*
X0201800Y0186800D03*
X0201800Y0176800D03*
X0201800Y0166800D03*
X0201800Y0156800D03*
X0201800Y0146800D03*
D13*
X0169548Y0035343D02*
X0164792Y0035343D01*
X0138808Y0035343D02*
X0134052Y0035343D01*
D14*
X0137627Y0024320D03*
X0165973Y0024320D03*
D15*
X0161800Y0261800D03*
X0161800Y0271800D03*
X0161800Y0281800D03*
X0161800Y0291800D03*
X0161800Y0301800D03*
X0161800Y0311800D03*
X0161800Y0321800D03*
X0161800Y0331800D03*
X0161800Y0341800D03*
X0161800Y0351800D03*
X0161800Y0361800D03*
X0161800Y0371800D03*
X0161800Y0381800D03*
X0161800Y0391800D03*
X0161800Y0401800D03*
X0161800Y0411800D03*
X0171800Y0411800D03*
X0171800Y0401800D03*
X0171800Y0391800D03*
X0171800Y0381800D03*
X0171800Y0371800D03*
X0171800Y0361800D03*
X0171800Y0351800D03*
X0171800Y0341800D03*
X0171800Y0331800D03*
X0171800Y0321800D03*
X0171800Y0311800D03*
X0171800Y0301800D03*
X0171800Y0291800D03*
X0171800Y0281800D03*
X0171800Y0271800D03*
X0171800Y0261800D03*
X0181800Y0261800D03*
X0181800Y0271800D03*
X0181800Y0281800D03*
X0181800Y0291800D03*
X0181800Y0301800D03*
X0181800Y0311800D03*
X0181800Y0321800D03*
X0181800Y0331800D03*
X0181800Y0341800D03*
X0181800Y0351800D03*
X0181800Y0361800D03*
X0181800Y0371800D03*
X0181800Y0381800D03*
X0181800Y0391800D03*
X0181800Y0401800D03*
X0181800Y0411800D03*
X0191800Y0411800D03*
X0191800Y0401800D03*
X0191800Y0391800D03*
X0191800Y0381800D03*
X0191800Y0371800D03*
X0191800Y0361800D03*
X0191800Y0351800D03*
X0191800Y0341800D03*
X0191800Y0331800D03*
X0191800Y0321800D03*
X0191800Y0311800D03*
X0191800Y0301800D03*
X0191800Y0291800D03*
X0191800Y0281800D03*
X0191800Y0271800D03*
X0191800Y0261800D03*
X0201800Y0261800D03*
X0201800Y0271800D03*
X0201800Y0281800D03*
X0201800Y0291800D03*
X0201800Y0301800D03*
X0201800Y0311800D03*
X0201800Y0321800D03*
X0201800Y0331800D03*
X0201800Y0341800D03*
X0201800Y0351800D03*
X0201800Y0361800D03*
X0201800Y0371800D03*
X0201800Y0381800D03*
X0201800Y0391800D03*
X0201800Y0401800D03*
X0201800Y0411800D03*
X0211800Y0411800D03*
X0211800Y0401800D03*
X0211800Y0391800D03*
X0211800Y0381800D03*
X0211800Y0371800D03*
X0211800Y0361800D03*
X0211800Y0351800D03*
X0211800Y0341800D03*
X0211800Y0331800D03*
X0211800Y0321800D03*
X0211800Y0311800D03*
X0211800Y0301800D03*
X0211800Y0291800D03*
X0211800Y0281800D03*
X0211800Y0271800D03*
X0211800Y0261800D03*
X0221800Y0261800D03*
X0221800Y0271800D03*
X0221800Y0281800D03*
X0221800Y0291800D03*
X0221800Y0301800D03*
X0221800Y0311800D03*
X0221800Y0321800D03*
X0221800Y0331800D03*
X0221800Y0341800D03*
X0221800Y0351800D03*
X0221800Y0361800D03*
X0221800Y0371800D03*
X0221800Y0381800D03*
X0221800Y0391800D03*
X0221800Y0401800D03*
X0221800Y0411800D03*
X0231800Y0411800D03*
X0231800Y0401800D03*
X0231800Y0391800D03*
X0231800Y0381800D03*
X0231800Y0371800D03*
X0231800Y0361800D03*
X0231800Y0351800D03*
X0231800Y0341800D03*
X0231800Y0331800D03*
X0231800Y0321800D03*
X0231800Y0311800D03*
X0231800Y0301800D03*
X0231800Y0291800D03*
X0231800Y0281800D03*
X0231800Y0271800D03*
X0231800Y0261800D03*
X0141800Y0261800D03*
X0141800Y0271800D03*
X0141800Y0281800D03*
X0141800Y0291800D03*
X0141800Y0301800D03*
X0141800Y0311800D03*
X0141800Y0321800D03*
X0141800Y0331800D03*
X0141800Y0341800D03*
X0141800Y0351800D03*
X0141800Y0361800D03*
X0141800Y0371800D03*
X0141800Y0381800D03*
X0141800Y0391800D03*
X0141800Y0401800D03*
X0141800Y0411800D03*
X0131800Y0411800D03*
X0131800Y0401800D03*
X0131800Y0391800D03*
X0131800Y0381800D03*
X0131800Y0371800D03*
X0131800Y0361800D03*
X0131800Y0351800D03*
X0131800Y0341800D03*
X0131800Y0331800D03*
X0131800Y0321800D03*
X0131800Y0311800D03*
X0131800Y0301800D03*
X0131800Y0291800D03*
X0131800Y0281800D03*
X0131800Y0271800D03*
X0131800Y0261800D03*
X0121800Y0261800D03*
X0121800Y0271800D03*
X0121800Y0281800D03*
X0121800Y0291800D03*
X0121800Y0301800D03*
X0121800Y0311800D03*
X0121800Y0321800D03*
X0121800Y0331800D03*
X0121800Y0341800D03*
X0121800Y0351800D03*
X0121800Y0361800D03*
X0121800Y0371800D03*
X0121800Y0381800D03*
X0121800Y0391800D03*
X0121800Y0401800D03*
X0121800Y0411800D03*
X0111800Y0411800D03*
X0111800Y0401800D03*
X0111800Y0391800D03*
X0111800Y0381800D03*
X0111800Y0371800D03*
X0111800Y0361800D03*
X0111800Y0351800D03*
X0111800Y0341800D03*
X0111800Y0331800D03*
X0111800Y0321800D03*
X0111800Y0311800D03*
X0111800Y0301800D03*
X0111800Y0291800D03*
X0111800Y0281800D03*
X0111800Y0271800D03*
X0111800Y0261800D03*
X0101800Y0261800D03*
X0101800Y0271800D03*
X0101800Y0281800D03*
X0101800Y0291800D03*
X0101800Y0301800D03*
X0101800Y0311800D03*
X0101800Y0321800D03*
X0101800Y0331800D03*
X0101800Y0341800D03*
X0101800Y0351800D03*
X0101800Y0361800D03*
X0101800Y0371800D03*
X0101800Y0381800D03*
X0101800Y0391800D03*
X0101800Y0401800D03*
X0101800Y0411800D03*
X0091800Y0411800D03*
X0091800Y0401800D03*
X0091800Y0391800D03*
X0091800Y0381800D03*
X0091800Y0371800D03*
X0091800Y0361800D03*
X0091800Y0351800D03*
X0091800Y0341800D03*
X0091800Y0331800D03*
X0091800Y0321800D03*
X0091800Y0311800D03*
X0091800Y0301800D03*
X0091800Y0291800D03*
X0091800Y0281800D03*
X0091800Y0271800D03*
X0091800Y0261800D03*
X0081800Y0261800D03*
X0081800Y0271800D03*
X0081800Y0281800D03*
X0081800Y0291800D03*
X0081800Y0301800D03*
X0081800Y0311800D03*
X0081800Y0321800D03*
X0081800Y0331800D03*
X0081800Y0341800D03*
X0081800Y0351800D03*
X0081800Y0361800D03*
X0081800Y0371800D03*
X0081800Y0381800D03*
X0081800Y0391800D03*
X0081800Y0401800D03*
X0081800Y0411800D03*
X0071800Y0411800D03*
X0071800Y0401800D03*
X0071800Y0391800D03*
X0071800Y0381800D03*
X0071800Y0371800D03*
X0071800Y0361800D03*
X0071800Y0351800D03*
X0071800Y0341800D03*
X0071800Y0331800D03*
X0071800Y0321800D03*
X0071800Y0311800D03*
X0071800Y0301800D03*
X0071800Y0291800D03*
X0071800Y0281800D03*
X0071800Y0271800D03*
X0071800Y0261800D03*
D16*
X0066800Y0114800D02*
X0066800Y0108800D01*
X0056800Y0108800D02*
X0056800Y0114800D01*
X0076800Y0114800D02*
X0076800Y0108800D01*
X0086800Y0108800D02*
X0086800Y0114800D01*
X0096800Y0114800D02*
X0096800Y0108800D01*
D17*
X0028135Y0093464D02*
X0028135Y0077833D01*
X0028595Y0078942D01*
X0029658Y0080005D01*
X0030808Y0080482D01*
X0031565Y0083306D01*
X0033233Y0086196D01*
X0035593Y0088556D01*
X0038483Y0090224D01*
X0041706Y0091088D01*
X0045043Y0091088D01*
X0048267Y0090224D01*
X0051157Y0088556D01*
X0053517Y0086196D01*
X0055185Y0083306D01*
X0056049Y0080083D01*
X0056049Y0076746D01*
X0055185Y0073522D01*
X0053517Y0070632D01*
X0051559Y0068675D01*
X0053300Y0068289D01*
X0053300Y0068289D01*
X0059417Y0065428D01*
X0059417Y0065428D01*
X0063051Y0062629D01*
X0063595Y0063942D01*
X0064658Y0065005D01*
X0066048Y0065581D01*
X0067552Y0065581D01*
X0068942Y0065005D01*
X0070005Y0063942D01*
X0070581Y0062552D01*
X0070581Y0061048D01*
X0070005Y0059658D01*
X0068942Y0058595D01*
X0067552Y0058019D01*
X0067510Y0058019D01*
X0069092Y0056124D01*
X0069092Y0056124D01*
X0072188Y0050124D01*
X0072188Y0050124D01*
X0073907Y0043594D01*
X0073907Y0043594D01*
X0074022Y0040621D01*
X0074042Y0040091D01*
X0074080Y0039999D01*
X0074080Y0039101D01*
X0074115Y0038204D01*
X0074080Y0038110D01*
X0074080Y0022333D01*
X0077310Y0020085D01*
X0077310Y0020085D01*
X0078329Y0019235D01*
X0078375Y0019220D01*
X0079091Y0018600D01*
X0079818Y0017993D01*
X0079841Y0017950D01*
X0080247Y0017599D01*
X0080247Y0017599D01*
X0080545Y0017212D01*
X0080545Y0017212D01*
X0081151Y0016425D01*
X0081260Y0016304D01*
X0081526Y0016119D01*
X0081835Y0016022D01*
X0081997Y0016009D01*
X0221493Y0016009D01*
X0221549Y0016016D01*
X0221903Y0016309D01*
X0222343Y0016731D01*
X0222343Y0016731D01*
X0224351Y0018807D01*
X0224351Y0018807D01*
X0228935Y0022324D01*
X0228935Y0022324D01*
X0229244Y0022496D01*
X0229244Y0038874D01*
X0229174Y0042201D01*
X0229174Y0042201D01*
X0230529Y0048826D01*
X0230529Y0048826D01*
X0233314Y0054989D01*
X0233314Y0054989D01*
X0237392Y0060383D01*
X0237392Y0060383D01*
X0237392Y0060383D01*
X0242561Y0064743D01*
X0242561Y0064743D01*
X0248566Y0067853D01*
X0248566Y0067853D01*
X0251662Y0068660D01*
X0249690Y0070632D01*
X0248021Y0073522D01*
X0247157Y0076746D01*
X0247157Y0080083D01*
X0248021Y0083306D01*
X0249690Y0086196D01*
X0252049Y0088556D01*
X0254940Y0090224D01*
X0258163Y0091088D01*
X0261500Y0091088D01*
X0264723Y0090224D01*
X0267614Y0088556D01*
X0269973Y0086196D01*
X0271642Y0083306D01*
X0272505Y0080083D01*
X0272505Y0076746D01*
X0271642Y0073522D01*
X0269973Y0070632D01*
X0269051Y0069710D01*
X0275071Y0069710D01*
X0275071Y0093071D01*
X0273850Y0091850D01*
X0271900Y0091850D01*
X0271900Y0096700D01*
X0271700Y0096700D01*
X0271700Y0091850D01*
X0269750Y0091850D01*
X0266850Y0094750D01*
X0266850Y0096700D01*
X0271700Y0096700D01*
X0271700Y0096900D01*
X0271700Y0101750D01*
X0269750Y0101750D01*
X0266850Y0098850D01*
X0266850Y0096900D01*
X0271700Y0096900D01*
X0271900Y0096900D01*
X0271900Y0101750D01*
X0273850Y0101750D01*
X0275071Y0100529D01*
X0275071Y0103071D01*
X0273850Y0101850D01*
X0271900Y0101850D01*
X0271900Y0106700D01*
X0271700Y0106700D01*
X0271700Y0101850D01*
X0269750Y0101850D01*
X0266850Y0104750D01*
X0266850Y0106700D01*
X0271700Y0106700D01*
X0271700Y0106900D01*
X0271700Y0111750D01*
X0269750Y0111750D01*
X0266850Y0108850D01*
X0266850Y0106900D01*
X0271700Y0106900D01*
X0271900Y0106900D01*
X0271900Y0111750D01*
X0273850Y0111750D01*
X0275071Y0110529D01*
X0275071Y0113071D01*
X0273850Y0111850D01*
X0271900Y0111850D01*
X0271900Y0116700D01*
X0271700Y0116700D01*
X0271700Y0111850D01*
X0269750Y0111850D01*
X0266850Y0114750D01*
X0266850Y0116700D01*
X0271700Y0116700D01*
X0271700Y0116900D01*
X0271700Y0121750D01*
X0269750Y0121750D01*
X0266850Y0118850D01*
X0266850Y0116900D01*
X0271700Y0116900D01*
X0271900Y0116900D01*
X0271900Y0121750D01*
X0273850Y0121750D01*
X0275071Y0120529D01*
X0275071Y0123071D01*
X0273850Y0121850D01*
X0271900Y0121850D01*
X0271900Y0126700D01*
X0271700Y0126700D01*
X0271700Y0121850D01*
X0269750Y0121850D01*
X0266850Y0124750D01*
X0266850Y0126700D01*
X0271700Y0126700D01*
X0271700Y0126900D01*
X0271700Y0131750D01*
X0269750Y0131750D01*
X0266850Y0128850D01*
X0266850Y0126900D01*
X0271700Y0126900D01*
X0271900Y0126900D01*
X0271900Y0131750D01*
X0273850Y0131750D01*
X0275071Y0130529D01*
X0275071Y0133071D01*
X0273850Y0131850D01*
X0271900Y0131850D01*
X0271900Y0136700D01*
X0271700Y0136700D01*
X0271700Y0131850D01*
X0269750Y0131850D01*
X0266850Y0134750D01*
X0266850Y0136700D01*
X0271700Y0136700D01*
X0271700Y0136900D01*
X0271700Y0141750D01*
X0269750Y0141750D01*
X0266850Y0138850D01*
X0266850Y0136900D01*
X0271700Y0136900D01*
X0271900Y0136900D01*
X0271900Y0141750D01*
X0273850Y0141750D01*
X0275071Y0140529D01*
X0275071Y0143071D01*
X0273850Y0141850D01*
X0271900Y0141850D01*
X0271900Y0146700D01*
X0271700Y0146700D01*
X0271700Y0141850D01*
X0269750Y0141850D01*
X0266850Y0144750D01*
X0266850Y0146700D01*
X0271700Y0146700D01*
X0271700Y0146900D01*
X0271700Y0151750D01*
X0269750Y0151750D01*
X0266850Y0148850D01*
X0266850Y0146900D01*
X0271700Y0146900D01*
X0271900Y0146900D01*
X0271900Y0151750D01*
X0273850Y0151750D01*
X0275071Y0150529D01*
X0275071Y0153071D01*
X0273850Y0151850D01*
X0271900Y0151850D01*
X0271900Y0156700D01*
X0271700Y0156700D01*
X0271700Y0151850D01*
X0269750Y0151850D01*
X0266850Y0154750D01*
X0266850Y0156700D01*
X0271700Y0156700D01*
X0271700Y0156900D01*
X0271700Y0161750D01*
X0269750Y0161750D01*
X0266850Y0158850D01*
X0266850Y0156900D01*
X0271700Y0156900D01*
X0271900Y0156900D01*
X0271900Y0161750D01*
X0273850Y0161750D01*
X0275071Y0160529D01*
X0275071Y0163071D01*
X0273850Y0161850D01*
X0271900Y0161850D01*
X0271900Y0166700D01*
X0271700Y0166700D01*
X0271700Y0161850D01*
X0269750Y0161850D01*
X0266850Y0164750D01*
X0266850Y0166700D01*
X0271700Y0166700D01*
X0271700Y0166900D01*
X0271700Y0171750D01*
X0269750Y0171750D01*
X0266850Y0168850D01*
X0266850Y0166900D01*
X0271700Y0166900D01*
X0271900Y0166900D01*
X0271900Y0171750D01*
X0273850Y0171750D01*
X0275071Y0170529D01*
X0275071Y0173071D01*
X0273850Y0171850D01*
X0271900Y0171850D01*
X0271900Y0176700D01*
X0271700Y0176700D01*
X0271700Y0171850D01*
X0269750Y0171850D01*
X0266850Y0174750D01*
X0266850Y0176700D01*
X0271700Y0176700D01*
X0271700Y0176900D01*
X0271700Y0181750D01*
X0269750Y0181750D01*
X0266850Y0178850D01*
X0266850Y0176900D01*
X0271700Y0176900D01*
X0271900Y0176900D01*
X0271900Y0181750D01*
X0273850Y0181750D01*
X0275071Y0180529D01*
X0275071Y0183071D01*
X0273850Y0181850D01*
X0271900Y0181850D01*
X0271900Y0186700D01*
X0271700Y0186700D01*
X0271700Y0181850D01*
X0269750Y0181850D01*
X0266850Y0184750D01*
X0266850Y0186700D01*
X0271700Y0186700D01*
X0271700Y0186900D01*
X0271700Y0191750D01*
X0269750Y0191750D01*
X0266850Y0188850D01*
X0266850Y0186900D01*
X0271700Y0186900D01*
X0271900Y0186900D01*
X0271900Y0191750D01*
X0273850Y0191750D01*
X0275071Y0190529D01*
X0275071Y0193071D01*
X0273850Y0191850D01*
X0271900Y0191850D01*
X0271900Y0196700D01*
X0271700Y0196700D01*
X0271700Y0191850D01*
X0269750Y0191850D01*
X0266850Y0194750D01*
X0266850Y0196700D01*
X0271700Y0196700D01*
X0271700Y0196900D01*
X0271700Y0201750D01*
X0269750Y0201750D01*
X0266850Y0198850D01*
X0266850Y0196900D01*
X0271700Y0196900D01*
X0271900Y0196900D01*
X0271900Y0201750D01*
X0273850Y0201750D01*
X0275071Y0200529D01*
X0275071Y0205189D01*
X0260811Y0205189D01*
X0260761Y0205170D01*
X0259819Y0205189D01*
X0258877Y0205189D01*
X0258827Y0205209D01*
X0256773Y0205252D01*
X0256773Y0205252D01*
X0255572Y0205511D01*
X0256386Y0205174D01*
X0259810Y0201750D01*
X0263850Y0201750D01*
X0266750Y0198850D01*
X0266750Y0194750D01*
X0263850Y0191850D01*
X0259750Y0191850D01*
X0256850Y0194750D01*
X0256850Y0196790D01*
X0256750Y0196890D01*
X0256750Y0194750D01*
X0253850Y0191850D01*
X0249750Y0191850D01*
X0246850Y0194750D01*
X0246850Y0198850D01*
X0248000Y0200000D01*
X0245600Y0200000D01*
X0246750Y0198850D01*
X0246750Y0194750D01*
X0243850Y0191850D01*
X0239750Y0191850D01*
X0236850Y0194750D01*
X0236850Y0198850D01*
X0238000Y0200000D01*
X0235600Y0200000D01*
X0236750Y0198850D01*
X0236750Y0194750D01*
X0233850Y0191850D01*
X0229750Y0191850D01*
X0226850Y0194750D01*
X0226850Y0198850D01*
X0228000Y0200000D01*
X0225600Y0200000D01*
X0226750Y0198850D01*
X0226750Y0194750D01*
X0223850Y0191850D01*
X0219750Y0191850D01*
X0216850Y0194750D01*
X0216850Y0198850D01*
X0218000Y0200000D01*
X0215600Y0200000D01*
X0216750Y0198850D01*
X0216750Y0194750D01*
X0213850Y0191850D01*
X0209750Y0191850D01*
X0206850Y0194750D01*
X0206850Y0198850D01*
X0208000Y0200000D01*
X0205600Y0200000D01*
X0206750Y0198850D01*
X0206750Y0194750D01*
X0203850Y0191850D01*
X0199750Y0191850D01*
X0196850Y0194750D01*
X0196850Y0196390D01*
X0193100Y0192640D01*
X0193100Y0170591D01*
X0193352Y0170339D01*
X0193900Y0169016D01*
X0193900Y0167584D01*
X0193352Y0166261D01*
X0192339Y0165248D01*
X0191016Y0164700D01*
X0189584Y0164700D01*
X0188261Y0165248D01*
X0187248Y0166261D01*
X0186700Y0167584D01*
X0186700Y0169016D01*
X0187248Y0170339D01*
X0187500Y0170591D01*
X0187500Y0191000D01*
X0132743Y0191000D01*
X0131714Y0191426D01*
X0130926Y0192214D01*
X0123140Y0200000D01*
X0105600Y0200000D01*
X0106750Y0198850D01*
X0106750Y0194750D01*
X0103850Y0191850D01*
X0099750Y0191850D01*
X0096850Y0194750D01*
X0096850Y0198850D01*
X0098000Y0200000D01*
X0095600Y0200000D01*
X0096750Y0198850D01*
X0096750Y0194750D01*
X0093850Y0191850D01*
X0089750Y0191850D01*
X0086850Y0194750D01*
X0086850Y0198850D01*
X0088000Y0200000D01*
X0085600Y0200000D01*
X0086750Y0198850D01*
X0086750Y0194750D01*
X0083850Y0191850D01*
X0079750Y0191850D01*
X0076850Y0194750D01*
X0076850Y0198850D01*
X0078000Y0200000D01*
X0075600Y0200000D01*
X0076750Y0198850D01*
X0076750Y0194750D01*
X0073850Y0191850D01*
X0069750Y0191850D01*
X0066850Y0194750D01*
X0066850Y0198850D01*
X0068000Y0200000D01*
X0065600Y0200000D01*
X0066750Y0198850D01*
X0066750Y0194750D01*
X0063850Y0191850D01*
X0059750Y0191850D01*
X0056850Y0194750D01*
X0056850Y0198850D01*
X0058000Y0200000D01*
X0055600Y0200000D01*
X0056750Y0198850D01*
X0056750Y0194750D01*
X0053850Y0191850D01*
X0049750Y0191850D01*
X0046850Y0194750D01*
X0046850Y0197890D01*
X0046750Y0197790D01*
X0046750Y0194750D01*
X0043850Y0191850D01*
X0039750Y0191850D01*
X0036850Y0194750D01*
X0036850Y0198850D01*
X0039750Y0201750D01*
X0042790Y0201750D01*
X0045426Y0204386D01*
X0046214Y0205174D01*
X0046351Y0205230D01*
X0045866Y0205217D01*
X0044435Y0205177D01*
X0044369Y0205150D01*
X0043444Y0205150D01*
X0042520Y0205124D01*
X0042453Y0205150D01*
X0028135Y0205150D01*
X0028135Y0200136D01*
X0029750Y0201750D01*
X0031700Y0201750D01*
X0031700Y0196900D01*
X0031900Y0196900D01*
X0031900Y0201750D01*
X0033850Y0201750D01*
X0036750Y0198850D01*
X0036750Y0196900D01*
X0031900Y0196900D01*
X0031900Y0196700D01*
X0036750Y0196700D01*
X0036750Y0194750D01*
X0033850Y0191850D01*
X0031900Y0191850D01*
X0031900Y0196700D01*
X0031700Y0196700D01*
X0031700Y0191850D01*
X0029750Y0191850D01*
X0028135Y0193464D01*
X0028135Y0190136D01*
X0029750Y0191750D01*
X0031700Y0191750D01*
X0031700Y0186900D01*
X0031900Y0186900D01*
X0031900Y0191750D01*
X0033850Y0191750D01*
X0036750Y0188850D01*
X0036750Y0186900D01*
X0031900Y0186900D01*
X0031900Y0186700D01*
X0036750Y0186700D01*
X0036750Y0184750D01*
X0033850Y0181850D01*
X0031900Y0181850D01*
X0031900Y0186700D01*
X0031700Y0186700D01*
X0031700Y0181850D01*
X0029750Y0181850D01*
X0028135Y0183464D01*
X0028135Y0180136D01*
X0029750Y0181750D01*
X0031700Y0181750D01*
X0031700Y0176900D01*
X0031900Y0176900D01*
X0031900Y0181750D01*
X0033850Y0181750D01*
X0036750Y0178850D01*
X0036750Y0176900D01*
X0031900Y0176900D01*
X0031900Y0176700D01*
X0036750Y0176700D01*
X0036750Y0174750D01*
X0033850Y0171850D01*
X0031900Y0171850D01*
X0031900Y0176700D01*
X0031700Y0176700D01*
X0031700Y0171850D01*
X0029750Y0171850D01*
X0028135Y0173464D01*
X0028135Y0170136D01*
X0029750Y0171750D01*
X0031700Y0171750D01*
X0031700Y0166900D01*
X0031900Y0166900D01*
X0031900Y0171750D01*
X0033850Y0171750D01*
X0036750Y0168850D01*
X0036750Y0166900D01*
X0031900Y0166900D01*
X0031900Y0166700D01*
X0036750Y0166700D01*
X0036750Y0164750D01*
X0033850Y0161850D01*
X0031900Y0161850D01*
X0031900Y0166700D01*
X0031700Y0166700D01*
X0031700Y0161850D01*
X0029750Y0161850D01*
X0028135Y0163464D01*
X0028135Y0160136D01*
X0029750Y0161750D01*
X0031700Y0161750D01*
X0031700Y0156900D01*
X0031900Y0156900D01*
X0031900Y0161750D01*
X0033850Y0161750D01*
X0036750Y0158850D01*
X0036750Y0156900D01*
X0031900Y0156900D01*
X0031900Y0156700D01*
X0036750Y0156700D01*
X0036750Y0154750D01*
X0033850Y0151850D01*
X0031900Y0151850D01*
X0031900Y0156700D01*
X0031700Y0156700D01*
X0031700Y0151850D01*
X0029750Y0151850D01*
X0028135Y0153464D01*
X0028135Y0150136D01*
X0029750Y0151750D01*
X0031700Y0151750D01*
X0031700Y0146900D01*
X0031900Y0146900D01*
X0031900Y0151750D01*
X0033850Y0151750D01*
X0036750Y0148850D01*
X0036750Y0146900D01*
X0031900Y0146900D01*
X0031900Y0146700D01*
X0036750Y0146700D01*
X0036750Y0144750D01*
X0033850Y0141850D01*
X0031900Y0141850D01*
X0031900Y0146700D01*
X0031700Y0146700D01*
X0031700Y0141850D01*
X0029750Y0141850D01*
X0028135Y0143464D01*
X0028135Y0140136D01*
X0029750Y0141750D01*
X0031700Y0141750D01*
X0031700Y0136900D01*
X0031900Y0136900D01*
X0031900Y0141750D01*
X0033850Y0141750D01*
X0036750Y0138850D01*
X0036750Y0136900D01*
X0031900Y0136900D01*
X0031900Y0136700D01*
X0036750Y0136700D01*
X0036750Y0134750D01*
X0033850Y0131850D01*
X0031900Y0131850D01*
X0031900Y0136700D01*
X0031700Y0136700D01*
X0031700Y0131850D01*
X0029750Y0131850D01*
X0028135Y0133464D01*
X0028135Y0130136D01*
X0029750Y0131750D01*
X0031700Y0131750D01*
X0031700Y0126900D01*
X0031900Y0126900D01*
X0031900Y0131750D01*
X0033850Y0131750D01*
X0036750Y0128850D01*
X0036750Y0126900D01*
X0031900Y0126900D01*
X0031900Y0126700D01*
X0036750Y0126700D01*
X0036750Y0124750D01*
X0033850Y0121850D01*
X0031900Y0121850D01*
X0031900Y0126700D01*
X0031700Y0126700D01*
X0031700Y0121850D01*
X0029750Y0121850D01*
X0028135Y0123464D01*
X0028135Y0120136D01*
X0029750Y0121750D01*
X0031700Y0121750D01*
X0031700Y0116900D01*
X0031900Y0116900D01*
X0031900Y0121750D01*
X0033850Y0121750D01*
X0036750Y0118850D01*
X0036750Y0116900D01*
X0031900Y0116900D01*
X0031900Y0116700D01*
X0036750Y0116700D01*
X0036750Y0114750D01*
X0033850Y0111850D01*
X0031900Y0111850D01*
X0031900Y0116700D01*
X0031700Y0116700D01*
X0031700Y0111850D01*
X0029750Y0111850D01*
X0028135Y0113464D01*
X0028135Y0110136D01*
X0029750Y0111750D01*
X0031700Y0111750D01*
X0031700Y0106900D01*
X0031900Y0106900D01*
X0031900Y0111750D01*
X0033850Y0111750D01*
X0036750Y0108850D01*
X0036750Y0106900D01*
X0031900Y0106900D01*
X0031900Y0106700D01*
X0036750Y0106700D01*
X0036750Y0104750D01*
X0033850Y0101850D01*
X0031900Y0101850D01*
X0031900Y0106700D01*
X0031700Y0106700D01*
X0031700Y0101850D01*
X0029750Y0101850D01*
X0028135Y0103464D01*
X0028135Y0100136D01*
X0029750Y0101750D01*
X0031700Y0101750D01*
X0031700Y0096900D01*
X0031900Y0096900D01*
X0031900Y0101750D01*
X0033850Y0101750D01*
X0036750Y0098850D01*
X0036750Y0096900D01*
X0031900Y0096900D01*
X0031900Y0096700D01*
X0036750Y0096700D01*
X0036750Y0094750D01*
X0033850Y0091850D01*
X0031900Y0091850D01*
X0031900Y0096700D01*
X0031700Y0096700D01*
X0031700Y0091850D01*
X0029750Y0091850D01*
X0028135Y0093464D01*
X0028135Y0091930D02*
X0029670Y0091930D01*
X0031700Y0091930D02*
X0031900Y0091930D01*
X0031900Y0093529D02*
X0031700Y0093529D01*
X0031700Y0095127D02*
X0031900Y0095127D01*
X0031900Y0096726D02*
X0036850Y0096726D01*
X0036850Y0098324D02*
X0036750Y0098324D01*
X0036850Y0098850D02*
X0036850Y0094750D01*
X0039750Y0091850D01*
X0043850Y0091850D01*
X0046750Y0094750D01*
X0046750Y0098850D01*
X0043850Y0101750D01*
X0039750Y0101750D01*
X0036850Y0098850D01*
X0037922Y0099923D02*
X0035678Y0099923D01*
X0034079Y0101521D02*
X0039521Y0101521D01*
X0039750Y0101850D02*
X0043850Y0101850D01*
X0046750Y0104750D01*
X0046750Y0108850D01*
X0043850Y0111750D01*
X0039750Y0111750D01*
X0036850Y0108850D01*
X0036850Y0104750D01*
X0039750Y0101850D01*
X0038480Y0103120D02*
X0035120Y0103120D01*
X0036718Y0104718D02*
X0036882Y0104718D01*
X0036850Y0106317D02*
X0036750Y0106317D01*
X0036750Y0107915D02*
X0036850Y0107915D01*
X0037513Y0109514D02*
X0036087Y0109514D01*
X0034488Y0111112D02*
X0039112Y0111112D01*
X0039750Y0111850D02*
X0043850Y0111850D01*
X0046750Y0114750D01*
X0046750Y0118850D01*
X0043850Y0121750D01*
X0039750Y0121750D01*
X0036850Y0118850D01*
X0036850Y0114750D01*
X0039750Y0111850D01*
X0038889Y0112711D02*
X0034711Y0112711D01*
X0036310Y0114309D02*
X0037290Y0114309D01*
X0036850Y0115908D02*
X0036750Y0115908D01*
X0036750Y0117506D02*
X0036850Y0117506D01*
X0037104Y0119105D02*
X0036496Y0119105D01*
X0034897Y0120703D02*
X0038703Y0120703D01*
X0039750Y0121850D02*
X0043850Y0121850D01*
X0046750Y0124750D01*
X0046750Y0128850D01*
X0043850Y0131750D01*
X0039750Y0131750D01*
X0036850Y0128850D01*
X0036850Y0124750D01*
X0039750Y0121850D01*
X0039298Y0122302D02*
X0034302Y0122302D01*
X0035901Y0123900D02*
X0037699Y0123900D01*
X0036850Y0125499D02*
X0036750Y0125499D01*
X0036750Y0127097D02*
X0036850Y0127097D01*
X0036850Y0128696D02*
X0036750Y0128696D01*
X0035306Y0130294D02*
X0038294Y0130294D01*
X0039750Y0131850D02*
X0043850Y0131850D01*
X0046750Y0134750D01*
X0046750Y0138850D01*
X0043850Y0141750D01*
X0039750Y0141750D01*
X0036850Y0138850D01*
X0036850Y0134750D01*
X0039750Y0131850D01*
X0039707Y0131893D02*
X0033893Y0131893D01*
X0031900Y0131893D02*
X0031700Y0131893D01*
X0031700Y0133491D02*
X0031900Y0133491D01*
X0031900Y0135090D02*
X0031700Y0135090D01*
X0031700Y0136688D02*
X0031900Y0136688D01*
X0031900Y0138287D02*
X0031700Y0138287D01*
X0031700Y0139885D02*
X0031900Y0139885D01*
X0031900Y0141484D02*
X0031700Y0141484D01*
X0031700Y0143082D02*
X0031900Y0143082D01*
X0031900Y0144681D02*
X0031700Y0144681D01*
X0031700Y0146279D02*
X0031900Y0146279D01*
X0031900Y0147878D02*
X0031700Y0147878D01*
X0031700Y0149476D02*
X0031900Y0149476D01*
X0031900Y0151075D02*
X0031700Y0151075D01*
X0031700Y0152673D02*
X0031900Y0152673D01*
X0031900Y0154272D02*
X0031700Y0154272D01*
X0031700Y0155870D02*
X0031900Y0155870D01*
X0031900Y0157469D02*
X0031700Y0157469D01*
X0031700Y0159068D02*
X0031900Y0159068D01*
X0031900Y0160666D02*
X0031700Y0160666D01*
X0031700Y0162265D02*
X0031900Y0162265D01*
X0031900Y0163863D02*
X0031700Y0163863D01*
X0031700Y0165462D02*
X0031900Y0165462D01*
X0031900Y0167060D02*
X0031700Y0167060D01*
X0031700Y0168659D02*
X0031900Y0168659D01*
X0031900Y0170257D02*
X0031700Y0170257D01*
X0031700Y0171856D02*
X0031900Y0171856D01*
X0031900Y0173454D02*
X0031700Y0173454D01*
X0031700Y0175053D02*
X0031900Y0175053D01*
X0031900Y0176651D02*
X0031700Y0176651D01*
X0031700Y0178250D02*
X0031900Y0178250D01*
X0031900Y0179848D02*
X0031700Y0179848D01*
X0031700Y0181447D02*
X0031900Y0181447D01*
X0031900Y0183045D02*
X0031700Y0183045D01*
X0031700Y0184644D02*
X0031900Y0184644D01*
X0031900Y0186242D02*
X0031700Y0186242D01*
X0031700Y0187841D02*
X0031900Y0187841D01*
X0031900Y0189439D02*
X0031700Y0189439D01*
X0031700Y0191038D02*
X0031900Y0191038D01*
X0031900Y0192636D02*
X0031700Y0192636D01*
X0031700Y0194235D02*
X0031900Y0194235D01*
X0031900Y0195833D02*
X0031700Y0195833D01*
X0031700Y0197432D02*
X0031900Y0197432D01*
X0031900Y0199030D02*
X0031700Y0199030D01*
X0031700Y0200629D02*
X0031900Y0200629D01*
X0034972Y0200629D02*
X0038628Y0200629D01*
X0037030Y0199030D02*
X0036570Y0199030D01*
X0036750Y0197432D02*
X0036850Y0197432D01*
X0036850Y0195833D02*
X0036750Y0195833D01*
X0036235Y0194235D02*
X0037365Y0194235D01*
X0038963Y0192636D02*
X0034637Y0192636D01*
X0034563Y0191038D02*
X0039037Y0191038D01*
X0039750Y0191750D02*
X0036850Y0188850D01*
X0036850Y0184750D01*
X0039750Y0181850D01*
X0043850Y0181850D01*
X0046750Y0184750D01*
X0046750Y0188850D01*
X0043850Y0191750D01*
X0039750Y0191750D01*
X0037439Y0189439D02*
X0036161Y0189439D01*
X0036750Y0187841D02*
X0036850Y0187841D01*
X0036850Y0186242D02*
X0036750Y0186242D01*
X0036644Y0184644D02*
X0036956Y0184644D01*
X0038554Y0183045D02*
X0035046Y0183045D01*
X0034154Y0181447D02*
X0039446Y0181447D01*
X0039750Y0181750D02*
X0036850Y0178850D01*
X0036850Y0174750D01*
X0039750Y0171850D01*
X0043850Y0171850D01*
X0046750Y0174750D01*
X0046750Y0178850D01*
X0043850Y0181750D01*
X0039750Y0181750D01*
X0037848Y0179848D02*
X0035752Y0179848D01*
X0036750Y0178250D02*
X0036850Y0178250D01*
X0036850Y0176651D02*
X0036750Y0176651D01*
X0036750Y0175053D02*
X0036850Y0175053D01*
X0038146Y0173454D02*
X0035454Y0173454D01*
X0033856Y0171856D02*
X0039744Y0171856D01*
X0039750Y0171750D02*
X0036850Y0168850D01*
X0036850Y0164750D01*
X0039750Y0161850D01*
X0043850Y0161850D01*
X0046750Y0164750D01*
X0046750Y0168850D01*
X0043850Y0171750D01*
X0039750Y0171750D01*
X0038257Y0170257D02*
X0035343Y0170257D01*
X0036750Y0168659D02*
X0036850Y0168659D01*
X0036850Y0167060D02*
X0036750Y0167060D01*
X0036750Y0165462D02*
X0036850Y0165462D01*
X0037737Y0163863D02*
X0035863Y0163863D01*
X0034265Y0162265D02*
X0039335Y0162265D01*
X0039750Y0161750D02*
X0036850Y0158850D01*
X0036850Y0154750D01*
X0039750Y0151850D01*
X0043850Y0151850D01*
X0046750Y0154750D01*
X0046750Y0158850D01*
X0043850Y0161750D01*
X0039750Y0161750D01*
X0038666Y0160666D02*
X0034934Y0160666D01*
X0036533Y0159068D02*
X0037067Y0159068D01*
X0036850Y0157469D02*
X0036750Y0157469D01*
X0036750Y0155870D02*
X0036850Y0155870D01*
X0037328Y0154272D02*
X0036272Y0154272D01*
X0034674Y0152673D02*
X0038926Y0152673D01*
X0039750Y0151750D02*
X0036850Y0148850D01*
X0036850Y0144750D01*
X0039750Y0141850D01*
X0043850Y0141850D01*
X0046750Y0144750D01*
X0046750Y0148850D01*
X0043850Y0151750D01*
X0039750Y0151750D01*
X0039075Y0151075D02*
X0034525Y0151075D01*
X0036124Y0149476D02*
X0037476Y0149476D01*
X0036850Y0147878D02*
X0036750Y0147878D01*
X0036750Y0146279D02*
X0036850Y0146279D01*
X0036919Y0144681D02*
X0036681Y0144681D01*
X0035083Y0143082D02*
X0038517Y0143082D01*
X0039484Y0141484D02*
X0034116Y0141484D01*
X0035715Y0139885D02*
X0037885Y0139885D01*
X0036850Y0138287D02*
X0036750Y0138287D01*
X0036750Y0136688D02*
X0036850Y0136688D01*
X0036850Y0135090D02*
X0036750Y0135090D01*
X0035492Y0133491D02*
X0038108Y0133491D01*
X0043893Y0131893D02*
X0049707Y0131893D01*
X0049750Y0131850D02*
X0053850Y0131850D01*
X0056750Y0134750D01*
X0056750Y0138850D01*
X0053850Y0141750D01*
X0049750Y0141750D01*
X0046850Y0138850D01*
X0046850Y0134750D01*
X0049750Y0131850D01*
X0049750Y0131750D02*
X0046850Y0128850D01*
X0046850Y0124750D01*
X0049750Y0121850D01*
X0053850Y0121850D01*
X0056750Y0124750D01*
X0056750Y0128850D01*
X0053850Y0131750D01*
X0049750Y0131750D01*
X0048294Y0130294D02*
X0045306Y0130294D01*
X0046750Y0128696D02*
X0046850Y0128696D01*
X0046850Y0127097D02*
X0046750Y0127097D01*
X0046750Y0125499D02*
X0046850Y0125499D01*
X0047699Y0123900D02*
X0045901Y0123900D01*
X0044302Y0122302D02*
X0049298Y0122302D01*
X0046496Y0119105D02*
X0054676Y0119105D01*
X0054957Y0119248D02*
X0054284Y0118905D01*
X0053673Y0118461D01*
X0053139Y0117927D01*
X0052695Y0117316D01*
X0052352Y0116643D01*
X0052118Y0115924D01*
X0052000Y0115178D01*
X0052000Y0112000D01*
X0056600Y0112000D01*
X0056600Y0119600D01*
X0056422Y0119600D01*
X0055676Y0119482D01*
X0054957Y0119248D01*
X0056600Y0119105D02*
X0057000Y0119105D01*
X0057000Y0119600D02*
X0057000Y0112000D01*
X0061600Y0112000D01*
X0061600Y0115178D01*
X0061482Y0115924D01*
X0061248Y0116643D01*
X0060905Y0117316D01*
X0060461Y0117927D01*
X0059927Y0118461D01*
X0059316Y0118905D01*
X0058643Y0119248D01*
X0057924Y0119482D01*
X0057178Y0119600D01*
X0057000Y0119600D01*
X0058924Y0119105D02*
X0064650Y0119105D01*
X0064081Y0118869D02*
X0065845Y0119600D01*
X0067755Y0119600D01*
X0069519Y0118869D01*
X0070869Y0117519D01*
X0071600Y0115755D01*
X0071600Y0107845D01*
X0070869Y0106081D01*
X0069519Y0104731D01*
X0067755Y0104000D01*
X0065845Y0104000D01*
X0064081Y0104731D01*
X0062731Y0106081D01*
X0062000Y0107845D01*
X0062000Y0115755D01*
X0062731Y0117519D01*
X0064081Y0118869D01*
X0062725Y0117506D02*
X0060767Y0117506D01*
X0061484Y0115908D02*
X0062063Y0115908D01*
X0062000Y0114309D02*
X0061600Y0114309D01*
X0061600Y0112711D02*
X0062000Y0112711D01*
X0061600Y0111600D02*
X0057000Y0111600D01*
X0057000Y0112000D01*
X0056600Y0112000D01*
X0056600Y0111600D01*
X0057000Y0111600D01*
X0057000Y0104000D01*
X0057178Y0104000D01*
X0057924Y0104118D01*
X0058643Y0104352D01*
X0059316Y0104695D01*
X0059927Y0105139D01*
X0060461Y0105673D01*
X0060905Y0106284D01*
X0061248Y0106957D01*
X0061482Y0107676D01*
X0061600Y0108422D01*
X0061600Y0111600D01*
X0061600Y0111112D02*
X0062000Y0111112D01*
X0062000Y0109514D02*
X0061600Y0109514D01*
X0061520Y0107915D02*
X0062000Y0107915D01*
X0062633Y0106317D02*
X0060922Y0106317D01*
X0059348Y0104718D02*
X0064112Y0104718D01*
X0069488Y0104718D02*
X0074112Y0104718D01*
X0074081Y0104731D02*
X0075845Y0104000D01*
X0077755Y0104000D01*
X0079519Y0104731D01*
X0080869Y0106081D01*
X0081600Y0107845D01*
X0081600Y0115755D01*
X0080869Y0117519D01*
X0079519Y0118869D01*
X0077755Y0119600D01*
X0075845Y0119600D01*
X0074081Y0118869D01*
X0072731Y0117519D01*
X0072000Y0115755D01*
X0072000Y0107845D01*
X0072731Y0106081D01*
X0074081Y0104731D01*
X0072633Y0106317D02*
X0070967Y0106317D01*
X0071600Y0107915D02*
X0072000Y0107915D01*
X0072000Y0109514D02*
X0071600Y0109514D01*
X0071600Y0111112D02*
X0072000Y0111112D01*
X0072000Y0112711D02*
X0071600Y0112711D01*
X0071600Y0114309D02*
X0072000Y0114309D01*
X0072063Y0115908D02*
X0071537Y0115908D01*
X0070875Y0117506D02*
X0072725Y0117506D01*
X0074650Y0119105D02*
X0068950Y0119105D01*
X0069750Y0121850D02*
X0073850Y0121850D01*
X0076750Y0124750D01*
X0076750Y0128850D01*
X0073850Y0131750D01*
X0069750Y0131750D01*
X0066850Y0128850D01*
X0066850Y0124750D01*
X0069750Y0121850D01*
X0069298Y0122302D02*
X0064302Y0122302D01*
X0063850Y0121850D02*
X0066750Y0124750D01*
X0066750Y0128850D01*
X0063850Y0131750D01*
X0059750Y0131750D01*
X0056850Y0128850D01*
X0056850Y0124750D01*
X0059750Y0121850D01*
X0063850Y0121850D01*
X0065901Y0123900D02*
X0067699Y0123900D01*
X0066850Y0125499D02*
X0066750Y0125499D01*
X0066750Y0127097D02*
X0066850Y0127097D01*
X0066850Y0128696D02*
X0066750Y0128696D01*
X0065306Y0130294D02*
X0068294Y0130294D01*
X0069750Y0131850D02*
X0073850Y0131850D01*
X0076750Y0134750D01*
X0076750Y0138850D01*
X0073850Y0141750D01*
X0069750Y0141750D01*
X0066850Y0138850D01*
X0066850Y0134750D01*
X0069750Y0131850D01*
X0069707Y0131893D02*
X0063893Y0131893D01*
X0063850Y0131850D02*
X0066750Y0134750D01*
X0066750Y0138850D01*
X0063850Y0141750D01*
X0059750Y0141750D01*
X0056850Y0138850D01*
X0056850Y0134750D01*
X0059750Y0131850D01*
X0063850Y0131850D01*
X0065492Y0133491D02*
X0068108Y0133491D01*
X0066850Y0135090D02*
X0066750Y0135090D01*
X0066750Y0136688D02*
X0066850Y0136688D01*
X0066850Y0138287D02*
X0066750Y0138287D01*
X0065715Y0139885D02*
X0067885Y0139885D01*
X0069484Y0141484D02*
X0064116Y0141484D01*
X0063850Y0141850D02*
X0066750Y0144750D01*
X0066750Y0148850D01*
X0063850Y0151750D01*
X0059750Y0151750D01*
X0056850Y0148850D01*
X0056850Y0144750D01*
X0059750Y0141850D01*
X0063850Y0141850D01*
X0065083Y0143082D02*
X0068517Y0143082D01*
X0069750Y0141850D02*
X0073850Y0141850D01*
X0076750Y0144750D01*
X0076750Y0148850D01*
X0073850Y0151750D01*
X0069750Y0151750D01*
X0066850Y0148850D01*
X0066850Y0144750D01*
X0069750Y0141850D01*
X0066919Y0144681D02*
X0066681Y0144681D01*
X0066750Y0146279D02*
X0066850Y0146279D01*
X0066850Y0147878D02*
X0066750Y0147878D01*
X0066124Y0149476D02*
X0067476Y0149476D01*
X0069075Y0151075D02*
X0064525Y0151075D01*
X0063850Y0151850D02*
X0066750Y0154750D01*
X0066750Y0158850D01*
X0063850Y0161750D01*
X0059750Y0161750D01*
X0056850Y0158850D01*
X0056850Y0154750D01*
X0059750Y0151850D01*
X0063850Y0151850D01*
X0064674Y0152673D02*
X0068926Y0152673D01*
X0069750Y0151850D02*
X0073850Y0151850D01*
X0076750Y0154750D01*
X0076750Y0158850D01*
X0073850Y0161750D01*
X0069750Y0161750D01*
X0066850Y0158850D01*
X0066850Y0154750D01*
X0069750Y0151850D01*
X0067328Y0154272D02*
X0066272Y0154272D01*
X0066750Y0155870D02*
X0066850Y0155870D01*
X0066850Y0157469D02*
X0066750Y0157469D01*
X0066533Y0159068D02*
X0067067Y0159068D01*
X0068666Y0160666D02*
X0064934Y0160666D01*
X0063850Y0161850D02*
X0066750Y0164750D01*
X0066750Y0168850D01*
X0063850Y0171750D01*
X0059750Y0171750D01*
X0056850Y0168850D01*
X0056850Y0164750D01*
X0059750Y0161850D01*
X0063850Y0161850D01*
X0064265Y0162265D02*
X0069335Y0162265D01*
X0069750Y0161850D02*
X0073850Y0161850D01*
X0076750Y0164750D01*
X0076750Y0168850D01*
X0073850Y0171750D01*
X0069750Y0171750D01*
X0066850Y0168850D01*
X0066850Y0164750D01*
X0069750Y0161850D01*
X0067737Y0163863D02*
X0065863Y0163863D01*
X0066750Y0165462D02*
X0066850Y0165462D01*
X0066850Y0167060D02*
X0066750Y0167060D01*
X0066750Y0168659D02*
X0066850Y0168659D01*
X0068257Y0170257D02*
X0065343Y0170257D01*
X0063850Y0171850D02*
X0066750Y0174750D01*
X0066750Y0178850D01*
X0063850Y0181750D01*
X0059750Y0181750D01*
X0056850Y0178850D01*
X0056850Y0174750D01*
X0059750Y0171850D01*
X0063850Y0171850D01*
X0063856Y0171856D02*
X0069744Y0171856D01*
X0069750Y0171850D02*
X0073850Y0171850D01*
X0076750Y0174750D01*
X0076750Y0178850D01*
X0073850Y0181750D01*
X0069750Y0181750D01*
X0066850Y0178850D01*
X0066850Y0174750D01*
X0069750Y0171850D01*
X0068146Y0173454D02*
X0065454Y0173454D01*
X0066750Y0175053D02*
X0066850Y0175053D01*
X0066850Y0176651D02*
X0066750Y0176651D01*
X0066750Y0178250D02*
X0066850Y0178250D01*
X0067848Y0179848D02*
X0065752Y0179848D01*
X0064154Y0181447D02*
X0069446Y0181447D01*
X0069750Y0181850D02*
X0073850Y0181850D01*
X0076750Y0184750D01*
X0076750Y0188850D01*
X0073850Y0191750D01*
X0069750Y0191750D01*
X0066850Y0188850D01*
X0066850Y0184750D01*
X0069750Y0181850D01*
X0068554Y0183045D02*
X0065046Y0183045D01*
X0063850Y0181850D02*
X0066750Y0184750D01*
X0066750Y0188850D01*
X0063850Y0191750D01*
X0059750Y0191750D01*
X0056850Y0188850D01*
X0056850Y0184750D01*
X0059750Y0181850D01*
X0063850Y0181850D01*
X0066644Y0184644D02*
X0066956Y0184644D01*
X0066850Y0186242D02*
X0066750Y0186242D01*
X0066750Y0187841D02*
X0066850Y0187841D01*
X0067439Y0189439D02*
X0066161Y0189439D01*
X0064563Y0191038D02*
X0069037Y0191038D01*
X0068963Y0192636D02*
X0064637Y0192636D01*
X0066235Y0194235D02*
X0067365Y0194235D01*
X0066850Y0195833D02*
X0066750Y0195833D01*
X0066750Y0197432D02*
X0066850Y0197432D01*
X0067030Y0199030D02*
X0066570Y0199030D01*
X0058963Y0192636D02*
X0054637Y0192636D01*
X0053850Y0191750D02*
X0049750Y0191750D01*
X0046850Y0188850D01*
X0046850Y0184750D01*
X0049750Y0181850D01*
X0053850Y0181850D01*
X0056750Y0184750D01*
X0056750Y0188850D01*
X0053850Y0191750D01*
X0054563Y0191038D02*
X0059037Y0191038D01*
X0057439Y0189439D02*
X0056161Y0189439D01*
X0056750Y0187841D02*
X0056850Y0187841D01*
X0056850Y0186242D02*
X0056750Y0186242D01*
X0056644Y0184644D02*
X0056956Y0184644D01*
X0058554Y0183045D02*
X0055046Y0183045D01*
X0053850Y0181750D02*
X0049750Y0181750D01*
X0046850Y0178850D01*
X0046850Y0174750D01*
X0049750Y0171850D01*
X0053850Y0171850D01*
X0056750Y0174750D01*
X0056750Y0178850D01*
X0053850Y0181750D01*
X0054154Y0181447D02*
X0059446Y0181447D01*
X0057848Y0179848D02*
X0055752Y0179848D01*
X0056750Y0178250D02*
X0056850Y0178250D01*
X0056850Y0176651D02*
X0056750Y0176651D01*
X0056750Y0175053D02*
X0056850Y0175053D01*
X0058146Y0173454D02*
X0055454Y0173454D01*
X0053856Y0171856D02*
X0059744Y0171856D01*
X0058257Y0170257D02*
X0055343Y0170257D01*
X0056750Y0168850D02*
X0053850Y0171750D01*
X0049750Y0171750D01*
X0046850Y0168850D01*
X0046850Y0164750D01*
X0049750Y0161850D01*
X0053850Y0161850D01*
X0056750Y0164750D01*
X0056750Y0168850D01*
X0056750Y0168659D02*
X0056850Y0168659D01*
X0056850Y0167060D02*
X0056750Y0167060D01*
X0056750Y0165462D02*
X0056850Y0165462D01*
X0057737Y0163863D02*
X0055863Y0163863D01*
X0054265Y0162265D02*
X0059335Y0162265D01*
X0058666Y0160666D02*
X0054934Y0160666D01*
X0053850Y0161750D02*
X0049750Y0161750D01*
X0046850Y0158850D01*
X0046850Y0154750D01*
X0049750Y0151850D01*
X0053850Y0151850D01*
X0056750Y0154750D01*
X0056750Y0158850D01*
X0053850Y0161750D01*
X0056533Y0159068D02*
X0057067Y0159068D01*
X0056850Y0157469D02*
X0056750Y0157469D01*
X0056750Y0155870D02*
X0056850Y0155870D01*
X0057328Y0154272D02*
X0056272Y0154272D01*
X0054674Y0152673D02*
X0058926Y0152673D01*
X0059075Y0151075D02*
X0054525Y0151075D01*
X0053850Y0151750D02*
X0049750Y0151750D01*
X0046850Y0148850D01*
X0046850Y0144750D01*
X0049750Y0141850D01*
X0053850Y0141850D01*
X0056750Y0144750D01*
X0056750Y0148850D01*
X0053850Y0151750D01*
X0056124Y0149476D02*
X0057476Y0149476D01*
X0056850Y0147878D02*
X0056750Y0147878D01*
X0056750Y0146279D02*
X0056850Y0146279D01*
X0056919Y0144681D02*
X0056681Y0144681D01*
X0055083Y0143082D02*
X0058517Y0143082D01*
X0059484Y0141484D02*
X0054116Y0141484D01*
X0055715Y0139885D02*
X0057885Y0139885D01*
X0056850Y0138287D02*
X0056750Y0138287D01*
X0056750Y0136688D02*
X0056850Y0136688D01*
X0056850Y0135090D02*
X0056750Y0135090D01*
X0055492Y0133491D02*
X0058108Y0133491D01*
X0059707Y0131893D02*
X0053893Y0131893D01*
X0055306Y0130294D02*
X0058294Y0130294D01*
X0056850Y0128696D02*
X0056750Y0128696D01*
X0056750Y0127097D02*
X0056850Y0127097D01*
X0056850Y0125499D02*
X0056750Y0125499D01*
X0055901Y0123900D02*
X0057699Y0123900D01*
X0059298Y0122302D02*
X0054302Y0122302D01*
X0052833Y0117506D02*
X0046750Y0117506D01*
X0046750Y0115908D02*
X0052116Y0115908D01*
X0052000Y0114309D02*
X0046310Y0114309D01*
X0044711Y0112711D02*
X0052000Y0112711D01*
X0052000Y0111600D02*
X0052000Y0108422D01*
X0052118Y0107676D01*
X0052352Y0106957D01*
X0052695Y0106284D01*
X0053139Y0105673D01*
X0053673Y0105139D01*
X0054284Y0104695D01*
X0054957Y0104352D01*
X0055676Y0104118D01*
X0056422Y0104000D01*
X0056600Y0104000D01*
X0056600Y0111600D01*
X0052000Y0111600D01*
X0052000Y0111112D02*
X0044488Y0111112D01*
X0046087Y0109514D02*
X0052000Y0109514D01*
X0052080Y0107915D02*
X0046750Y0107915D01*
X0046750Y0106317D02*
X0052678Y0106317D01*
X0054252Y0104718D02*
X0046718Y0104718D01*
X0045120Y0103120D02*
X0117890Y0103120D01*
X0117890Y0104631D02*
X0118358Y0105100D01*
X0184021Y0105100D01*
X0184490Y0104631D01*
X0184490Y0076469D01*
X0184021Y0076000D01*
X0118358Y0076000D01*
X0117890Y0076469D01*
X0117890Y0104631D01*
X0117977Y0104718D02*
X0099488Y0104718D01*
X0099519Y0104731D02*
X0100869Y0106081D01*
X0101600Y0107845D01*
X0101600Y0115755D01*
X0100869Y0117519D01*
X0099519Y0118869D01*
X0097755Y0119600D01*
X0095845Y0119600D01*
X0094081Y0118869D01*
X0092731Y0117519D01*
X0092000Y0115755D01*
X0092000Y0107845D01*
X0092731Y0106081D01*
X0094081Y0104731D01*
X0095845Y0104000D01*
X0097755Y0104000D01*
X0099519Y0104731D01*
X0100967Y0106317D02*
X0196850Y0106317D01*
X0196850Y0104750D02*
X0199750Y0101850D01*
X0203850Y0101850D01*
X0206750Y0104750D01*
X0206750Y0108850D01*
X0203850Y0111750D01*
X0199750Y0111750D01*
X0196850Y0108850D01*
X0196850Y0104750D01*
X0196882Y0104718D02*
X0184403Y0104718D01*
X0184490Y0103120D02*
X0198480Y0103120D01*
X0196850Y0107915D02*
X0101600Y0107915D01*
X0101600Y0109514D02*
X0143739Y0109514D01*
X0143595Y0109658D02*
X0144658Y0108595D01*
X0146048Y0108019D01*
X0147552Y0108019D01*
X0148942Y0108595D01*
X0150005Y0109658D01*
X0150581Y0111048D01*
X0150581Y0112552D01*
X0150005Y0113942D01*
X0148942Y0115005D01*
X0147552Y0115581D01*
X0146048Y0115581D01*
X0144658Y0115005D01*
X0143595Y0113942D01*
X0143019Y0112552D01*
X0143019Y0111048D01*
X0143595Y0109658D01*
X0143019Y0111112D02*
X0101600Y0111112D01*
X0101600Y0112711D02*
X0143085Y0112711D01*
X0143962Y0114309D02*
X0101600Y0114309D01*
X0101537Y0115908D02*
X0196850Y0115908D01*
X0196850Y0114750D02*
X0199750Y0111850D01*
X0203850Y0111850D01*
X0206750Y0114750D01*
X0206750Y0118850D01*
X0203850Y0121750D01*
X0199750Y0121750D01*
X0196850Y0118850D01*
X0196850Y0114750D01*
X0197290Y0114309D02*
X0149638Y0114309D01*
X0150515Y0112711D02*
X0198889Y0112711D01*
X0199112Y0111112D02*
X0150581Y0111112D01*
X0149861Y0109514D02*
X0197513Y0109514D01*
X0196850Y0117506D02*
X0100875Y0117506D01*
X0098950Y0119105D02*
X0197104Y0119105D01*
X0198703Y0120703D02*
X0044897Y0120703D01*
X0045492Y0133491D02*
X0048108Y0133491D01*
X0046850Y0135090D02*
X0046750Y0135090D01*
X0046750Y0136688D02*
X0046850Y0136688D01*
X0046850Y0138287D02*
X0046750Y0138287D01*
X0045715Y0139885D02*
X0047885Y0139885D01*
X0049484Y0141484D02*
X0044116Y0141484D01*
X0045083Y0143082D02*
X0048517Y0143082D01*
X0046919Y0144681D02*
X0046681Y0144681D01*
X0046750Y0146279D02*
X0046850Y0146279D01*
X0046850Y0147878D02*
X0046750Y0147878D01*
X0046124Y0149476D02*
X0047476Y0149476D01*
X0049075Y0151075D02*
X0044525Y0151075D01*
X0044674Y0152673D02*
X0048926Y0152673D01*
X0047328Y0154272D02*
X0046272Y0154272D01*
X0046750Y0155870D02*
X0046850Y0155870D01*
X0046850Y0157469D02*
X0046750Y0157469D01*
X0046533Y0159068D02*
X0047067Y0159068D01*
X0048666Y0160666D02*
X0044934Y0160666D01*
X0044265Y0162265D02*
X0049335Y0162265D01*
X0047737Y0163863D02*
X0045863Y0163863D01*
X0046750Y0165462D02*
X0046850Y0165462D01*
X0046850Y0167060D02*
X0046750Y0167060D01*
X0046750Y0168659D02*
X0046850Y0168659D01*
X0048257Y0170257D02*
X0045343Y0170257D01*
X0043856Y0171856D02*
X0049744Y0171856D01*
X0048146Y0173454D02*
X0045454Y0173454D01*
X0046750Y0175053D02*
X0046850Y0175053D01*
X0046850Y0176651D02*
X0046750Y0176651D01*
X0046750Y0178250D02*
X0046850Y0178250D01*
X0047848Y0179848D02*
X0045752Y0179848D01*
X0044154Y0181447D02*
X0049446Y0181447D01*
X0048554Y0183045D02*
X0045046Y0183045D01*
X0046644Y0184644D02*
X0046956Y0184644D01*
X0046850Y0186242D02*
X0046750Y0186242D01*
X0046750Y0187841D02*
X0046850Y0187841D01*
X0047439Y0189439D02*
X0046161Y0189439D01*
X0044563Y0191038D02*
X0049037Y0191038D01*
X0048963Y0192636D02*
X0044637Y0192636D01*
X0046235Y0194235D02*
X0047365Y0194235D01*
X0046850Y0195833D02*
X0046750Y0195833D01*
X0046750Y0197432D02*
X0046850Y0197432D01*
X0043268Y0202227D02*
X0028135Y0202227D01*
X0028135Y0200629D02*
X0028628Y0200629D01*
X0028135Y0203826D02*
X0044866Y0203826D01*
X0049319Y0205600D02*
X0053650Y0206588D01*
X0053650Y0206588D01*
X0059047Y0209003D01*
X0063868Y0212425D01*
X0063868Y0212425D01*
X0067929Y0216722D01*
X0067929Y0216722D01*
X0071072Y0221730D01*
X0073177Y0227254D01*
X0073177Y0227254D01*
X0074164Y0233084D01*
X0074080Y0235969D01*
X0074078Y0236039D01*
X0074077Y0236087D01*
X0074049Y0237032D01*
X0073980Y0239452D01*
X0072321Y0246077D01*
X0069280Y0252191D01*
X0064996Y0257510D01*
X0059671Y0261785D01*
X0053552Y0264817D01*
X0051452Y0265339D01*
X0053517Y0267404D01*
X0055185Y0270294D01*
X0056049Y0273517D01*
X0056049Y0276854D01*
X0055185Y0280078D01*
X0053517Y0282968D01*
X0051157Y0285328D01*
X0048267Y0286996D01*
X0045043Y0287860D01*
X0041706Y0287860D01*
X0038483Y0286996D01*
X0035593Y0285328D01*
X0035063Y0284798D01*
X0035581Y0286048D01*
X0035581Y0287552D01*
X0035005Y0288942D01*
X0033942Y0290005D01*
X0032552Y0290581D01*
X0031048Y0290581D01*
X0029658Y0290005D01*
X0028595Y0288942D01*
X0028175Y0287928D01*
X0028175Y0425672D01*
X0028595Y0424658D01*
X0029658Y0423595D01*
X0031048Y0423019D01*
X0032552Y0423019D01*
X0033942Y0423595D01*
X0035005Y0424658D01*
X0035581Y0426048D01*
X0035581Y0427552D01*
X0035005Y0428942D01*
X0033942Y0430005D01*
X0032552Y0430581D01*
X0031048Y0430581D01*
X0029658Y0430005D01*
X0028595Y0428942D01*
X0028175Y0427928D01*
X0028175Y0461094D01*
X0034155Y0461094D01*
X0033233Y0460173D01*
X0031565Y0457283D01*
X0030701Y0454059D01*
X0030701Y0450722D01*
X0031565Y0447499D01*
X0033233Y0444609D01*
X0035593Y0442249D01*
X0038483Y0440580D01*
X0041706Y0439717D01*
X0045043Y0439717D01*
X0048267Y0440580D01*
X0051157Y0442249D01*
X0053517Y0444609D01*
X0055185Y0447499D01*
X0056049Y0450722D01*
X0056049Y0454059D01*
X0055185Y0457283D01*
X0053517Y0460173D01*
X0051549Y0462140D01*
X0056685Y0464035D01*
X0062008Y0467327D01*
X0066570Y0471610D01*
X0070190Y0476715D01*
X0072723Y0482438D01*
X0074067Y0488550D01*
X0074103Y0490727D01*
X0074120Y0490767D01*
X0074120Y0491720D01*
X0074135Y0492672D01*
X0074120Y0492712D01*
X0074120Y0508333D01*
X0075016Y0508840D01*
X0075016Y0508840D01*
X0079540Y0512487D01*
X0079540Y0512487D01*
X0080946Y0514063D01*
X0081474Y0514655D01*
X0081550Y0514729D01*
X0081728Y0514843D01*
X0081930Y0514905D01*
X0081936Y0514906D01*
X0081968Y0514908D01*
X0220327Y0514908D01*
X0220375Y0514888D01*
X0221369Y0514888D01*
X0221457Y0514882D01*
X0221627Y0514833D01*
X0221773Y0514741D01*
X0221834Y0514683D01*
X0221841Y0514677D01*
X0222375Y0514079D01*
X0222831Y0513515D01*
X0222831Y0513515D01*
X0222884Y0513450D01*
X0222884Y0513450D01*
X0222947Y0513394D01*
X0223692Y0512737D01*
X0225664Y0510999D01*
X0229638Y0508207D01*
X0229638Y0491003D01*
X0229697Y0490861D01*
X0229718Y0490328D01*
X0229721Y0490262D01*
X0229724Y0490177D01*
X0229760Y0489268D01*
X0229853Y0486959D01*
X0231555Y0480572D01*
X0234614Y0474712D01*
X0238881Y0469663D01*
X0244149Y0465670D01*
X0250163Y0462926D01*
X0252046Y0462529D01*
X0249729Y0460212D01*
X0248061Y0457322D01*
X0247197Y0454098D01*
X0247197Y0450761D01*
X0248061Y0447538D01*
X0249729Y0444648D01*
X0252089Y0442288D01*
X0254979Y0440620D01*
X0258202Y0439756D01*
X0261539Y0439756D01*
X0264763Y0440620D01*
X0267653Y0442288D01*
X0270013Y0444648D01*
X0271681Y0447538D01*
X0272545Y0450761D01*
X0272545Y0454098D01*
X0271681Y0457322D01*
X0270013Y0460212D01*
X0268618Y0461606D01*
X0275071Y0461606D01*
X0275071Y0428784D01*
X0275005Y0428942D01*
X0273942Y0430005D01*
X0272552Y0430581D01*
X0271048Y0430581D01*
X0269658Y0430005D01*
X0268595Y0428942D01*
X0268019Y0427552D01*
X0268019Y0426048D01*
X0268595Y0424658D01*
X0269658Y0423595D01*
X0271048Y0423019D01*
X0272552Y0423019D01*
X0273942Y0423595D01*
X0275005Y0424658D01*
X0275071Y0424816D01*
X0275071Y0293784D01*
X0275005Y0293942D01*
X0273942Y0295005D01*
X0272552Y0295581D01*
X0271048Y0295581D01*
X0269658Y0295005D01*
X0268595Y0293942D01*
X0268019Y0292552D01*
X0268019Y0291048D01*
X0268595Y0289658D01*
X0269658Y0288595D01*
X0271048Y0288019D01*
X0272552Y0288019D01*
X0273942Y0288595D01*
X0275005Y0289658D01*
X0275071Y0289816D01*
X0275071Y0266521D01*
X0269091Y0266521D01*
X0270013Y0267443D01*
X0271681Y0270333D01*
X0272545Y0273557D01*
X0272545Y0276894D01*
X0271681Y0280117D01*
X0270013Y0283007D01*
X0267653Y0285367D01*
X0264763Y0287035D01*
X0261539Y0287899D01*
X0258202Y0287899D01*
X0254979Y0287035D01*
X0252089Y0285367D01*
X0251600Y0284878D01*
X0251600Y0297232D01*
X0252189Y0297476D01*
X0253624Y0298911D01*
X0254326Y0300606D01*
X0254326Y0300606D01*
X0254574Y0299842D01*
X0254938Y0299127D01*
X0255410Y0298478D01*
X0255978Y0297910D01*
X0256627Y0297438D01*
X0257342Y0297074D01*
X0258106Y0296826D01*
X0258899Y0296700D01*
X0259116Y0296700D01*
X0259116Y0301616D01*
X0259484Y0301616D01*
X0259484Y0296700D01*
X0259701Y0296700D01*
X0260494Y0296826D01*
X0261258Y0297074D01*
X0261973Y0297438D01*
X0262622Y0297910D01*
X0263190Y0298478D01*
X0263662Y0299127D01*
X0264026Y0299842D01*
X0264274Y0300606D01*
X0264400Y0301399D01*
X0264400Y0301616D01*
X0259484Y0301616D01*
X0259484Y0301984D01*
X0259116Y0301984D01*
X0259116Y0311616D01*
X0259484Y0311616D01*
X0259484Y0306700D01*
X0259484Y0301984D01*
X0264400Y0301984D01*
X0264400Y0302201D01*
X0264274Y0302994D01*
X0264026Y0303758D01*
X0263662Y0304473D01*
X0263190Y0305122D01*
X0262622Y0305690D01*
X0261973Y0306162D01*
X0261258Y0306526D01*
X0260494Y0306774D01*
X0260333Y0306800D01*
X0260494Y0306826D01*
X0261258Y0307074D01*
X0261973Y0307438D01*
X0262622Y0307910D01*
X0263190Y0308478D01*
X0263662Y0309127D01*
X0264026Y0309842D01*
X0264274Y0310606D01*
X0264400Y0311399D01*
X0264400Y0311616D01*
X0259484Y0311616D01*
X0259484Y0311984D01*
X0264400Y0311984D01*
X0264400Y0312201D01*
X0264274Y0312994D01*
X0264026Y0313758D01*
X0263662Y0314473D01*
X0263190Y0315122D01*
X0262622Y0315690D01*
X0261973Y0316162D01*
X0261258Y0316526D01*
X0260494Y0316774D01*
X0260333Y0316800D01*
X0260494Y0316826D01*
X0261258Y0317074D01*
X0261973Y0317438D01*
X0262622Y0317910D01*
X0263190Y0318478D01*
X0263662Y0319127D01*
X0264026Y0319842D01*
X0264274Y0320606D01*
X0264400Y0321399D01*
X0264400Y0321616D01*
X0259484Y0321616D01*
X0259484Y0316700D01*
X0259484Y0311984D01*
X0259116Y0311984D01*
X0259116Y0321616D01*
X0259484Y0321616D01*
X0259484Y0321984D01*
X0259116Y0321984D01*
X0259116Y0331616D01*
X0259484Y0331616D01*
X0259484Y0326900D01*
X0259484Y0321984D01*
X0264400Y0321984D01*
X0264400Y0322201D01*
X0264274Y0322994D01*
X0264026Y0323758D01*
X0263662Y0324473D01*
X0263190Y0325122D01*
X0262622Y0325690D01*
X0261973Y0326162D01*
X0261258Y0326526D01*
X0260494Y0326774D01*
X0260333Y0326800D01*
X0260494Y0326826D01*
X0261258Y0327074D01*
X0261973Y0327438D01*
X0262622Y0327910D01*
X0263190Y0328478D01*
X0263662Y0329127D01*
X0264026Y0329842D01*
X0264274Y0330606D01*
X0264400Y0331399D01*
X0264400Y0331616D01*
X0259484Y0331616D01*
X0259484Y0331984D01*
X0264400Y0331984D01*
X0264400Y0332201D01*
X0264274Y0332994D01*
X0264026Y0333758D01*
X0263662Y0334473D01*
X0263190Y0335122D01*
X0262622Y0335690D01*
X0261973Y0336162D01*
X0261258Y0336526D01*
X0260494Y0336774D01*
X0260333Y0336800D01*
X0260494Y0336826D01*
X0261258Y0337074D01*
X0261973Y0337438D01*
X0262622Y0337910D01*
X0263190Y0338478D01*
X0263662Y0339127D01*
X0264026Y0339842D01*
X0264274Y0340606D01*
X0264400Y0341399D01*
X0264400Y0341616D01*
X0259484Y0341616D01*
X0259484Y0336700D01*
X0259484Y0331984D01*
X0259116Y0331984D01*
X0259116Y0341616D01*
X0259484Y0341616D01*
X0259484Y0341984D01*
X0259116Y0341984D01*
X0259116Y0351616D01*
X0259484Y0351616D01*
X0259484Y0346700D01*
X0259484Y0341984D01*
X0264400Y0341984D01*
X0264400Y0342201D01*
X0264274Y0342994D01*
X0264026Y0343758D01*
X0263662Y0344473D01*
X0263190Y0345122D01*
X0262622Y0345690D01*
X0261973Y0346162D01*
X0261258Y0346526D01*
X0260494Y0346774D01*
X0260333Y0346800D01*
X0260494Y0346826D01*
X0261258Y0347074D01*
X0261973Y0347438D01*
X0262622Y0347910D01*
X0263190Y0348478D01*
X0263662Y0349127D01*
X0264026Y0349842D01*
X0264274Y0350606D01*
X0264400Y0351399D01*
X0264400Y0351616D01*
X0259484Y0351616D01*
X0259484Y0351984D01*
X0264400Y0351984D01*
X0264400Y0352201D01*
X0264274Y0352994D01*
X0264026Y0353758D01*
X0263662Y0354473D01*
X0263190Y0355122D01*
X0262622Y0355690D01*
X0261973Y0356162D01*
X0261258Y0356526D01*
X0260494Y0356774D01*
X0260333Y0356800D01*
X0260494Y0356826D01*
X0261258Y0357074D01*
X0261973Y0357438D01*
X0262622Y0357910D01*
X0263190Y0358478D01*
X0263662Y0359127D01*
X0264026Y0359842D01*
X0264274Y0360606D01*
X0264400Y0361399D01*
X0264400Y0361616D01*
X0259484Y0361616D01*
X0259484Y0356700D01*
X0259484Y0351984D01*
X0259116Y0351984D01*
X0259116Y0361616D01*
X0259484Y0361616D01*
X0259484Y0361984D01*
X0259116Y0361984D01*
X0259116Y0371616D01*
X0259484Y0371616D01*
X0259484Y0366700D01*
X0259484Y0361984D01*
X0264400Y0361984D01*
X0264400Y0362201D01*
X0264274Y0362994D01*
X0264026Y0363758D01*
X0263662Y0364473D01*
X0263190Y0365122D01*
X0262622Y0365690D01*
X0261973Y0366162D01*
X0261258Y0366526D01*
X0260494Y0366774D01*
X0260333Y0366800D01*
X0260494Y0366826D01*
X0261258Y0367074D01*
X0261973Y0367438D01*
X0262622Y0367910D01*
X0263190Y0368478D01*
X0263662Y0369127D01*
X0264026Y0369842D01*
X0264274Y0370606D01*
X0264400Y0371399D01*
X0264400Y0371616D01*
X0259484Y0371616D01*
X0259484Y0371984D01*
X0264400Y0371984D01*
X0264400Y0372201D01*
X0264274Y0372994D01*
X0264026Y0373758D01*
X0263662Y0374473D01*
X0263190Y0375122D01*
X0262622Y0375690D01*
X0261973Y0376162D01*
X0261258Y0376526D01*
X0260494Y0376774D01*
X0260333Y0376800D01*
X0260494Y0376826D01*
X0261258Y0377074D01*
X0261973Y0377438D01*
X0262622Y0377910D01*
X0263190Y0378478D01*
X0263662Y0379127D01*
X0264026Y0379842D01*
X0264274Y0380606D01*
X0264400Y0381399D01*
X0264400Y0381616D01*
X0259484Y0381616D01*
X0259484Y0376700D01*
X0259484Y0371984D01*
X0259116Y0371984D01*
X0259116Y0381616D01*
X0259484Y0381616D01*
X0259484Y0381984D01*
X0259116Y0381984D01*
X0259116Y0391616D01*
X0259484Y0391616D01*
X0259484Y0386700D01*
X0259484Y0381984D01*
X0264400Y0381984D01*
X0264400Y0382201D01*
X0264274Y0382994D01*
X0264026Y0383758D01*
X0263662Y0384473D01*
X0263190Y0385122D01*
X0262622Y0385690D01*
X0261973Y0386162D01*
X0261258Y0386526D01*
X0260494Y0386774D01*
X0260333Y0386800D01*
X0260494Y0386826D01*
X0261258Y0387074D01*
X0261973Y0387438D01*
X0262622Y0387910D01*
X0263190Y0388478D01*
X0263662Y0389127D01*
X0264026Y0389842D01*
X0264274Y0390606D01*
X0264400Y0391399D01*
X0264400Y0391616D01*
X0259484Y0391616D01*
X0259484Y0391984D01*
X0264400Y0391984D01*
X0264400Y0392201D01*
X0264274Y0392994D01*
X0264026Y0393758D01*
X0263662Y0394473D01*
X0263190Y0395122D01*
X0262622Y0395690D01*
X0261973Y0396162D01*
X0261258Y0396526D01*
X0260494Y0396774D01*
X0260333Y0396800D01*
X0260494Y0396826D01*
X0261258Y0397074D01*
X0261973Y0397438D01*
X0262622Y0397910D01*
X0263190Y0398478D01*
X0263662Y0399127D01*
X0264026Y0399842D01*
X0264274Y0400606D01*
X0264400Y0401399D01*
X0264400Y0401616D01*
X0259484Y0401616D01*
X0259484Y0396900D01*
X0259484Y0391984D01*
X0259116Y0391984D01*
X0259116Y0401616D01*
X0259484Y0401616D01*
X0259484Y0401984D01*
X0259116Y0401984D01*
X0259116Y0411616D01*
X0259484Y0411616D01*
X0259484Y0406700D01*
X0259484Y0401984D01*
X0264400Y0401984D01*
X0264400Y0402201D01*
X0264274Y0402994D01*
X0264026Y0403758D01*
X0263662Y0404473D01*
X0263190Y0405122D01*
X0262622Y0405690D01*
X0261973Y0406162D01*
X0261258Y0406526D01*
X0260494Y0406774D01*
X0260333Y0406800D01*
X0260494Y0406826D01*
X0261258Y0407074D01*
X0261973Y0407438D01*
X0262622Y0407910D01*
X0263190Y0408478D01*
X0263662Y0409127D01*
X0264026Y0409842D01*
X0264274Y0410606D01*
X0264400Y0411399D01*
X0264400Y0411616D01*
X0259484Y0411616D01*
X0259484Y0411984D01*
X0259116Y0411984D01*
X0259116Y0416900D01*
X0258899Y0416900D01*
X0258106Y0416774D01*
X0257342Y0416526D01*
X0256627Y0416162D01*
X0255978Y0415690D01*
X0255410Y0415122D01*
X0254938Y0414473D01*
X0254574Y0413758D01*
X0254326Y0412994D01*
X0253624Y0414689D01*
X0252189Y0416124D01*
X0250314Y0416900D01*
X0248286Y0416900D01*
X0246411Y0416124D01*
X0244976Y0414689D01*
X0244200Y0412814D01*
X0244200Y0410786D01*
X0244976Y0408911D01*
X0246411Y0407476D01*
X0248044Y0406800D01*
X0246411Y0406124D01*
X0244976Y0404689D01*
X0244200Y0402814D01*
X0244200Y0400786D01*
X0244976Y0398911D01*
X0246411Y0397476D01*
X0248044Y0396800D01*
X0246411Y0396124D01*
X0244976Y0394689D01*
X0244200Y0392814D01*
X0244200Y0390786D01*
X0244976Y0388911D01*
X0246411Y0387476D01*
X0248044Y0386800D01*
X0246411Y0386124D01*
X0244976Y0384689D01*
X0244200Y0382814D01*
X0244200Y0380786D01*
X0244976Y0378911D01*
X0246411Y0377476D01*
X0248044Y0376800D01*
X0246411Y0376124D01*
X0244976Y0374689D01*
X0244200Y0372814D01*
X0244200Y0370786D01*
X0244976Y0368911D01*
X0246411Y0367476D01*
X0248044Y0366800D01*
X0246411Y0366124D01*
X0244976Y0364689D01*
X0244200Y0362814D01*
X0244200Y0360786D01*
X0244976Y0358911D01*
X0246411Y0357476D01*
X0248044Y0356800D01*
X0246411Y0356124D01*
X0244976Y0354689D01*
X0244200Y0352814D01*
X0244200Y0350786D01*
X0244976Y0348911D01*
X0246411Y0347476D01*
X0248044Y0346800D01*
X0246411Y0346124D01*
X0244976Y0344689D01*
X0244200Y0342814D01*
X0244200Y0340786D01*
X0244976Y0338911D01*
X0246411Y0337476D01*
X0248044Y0336800D01*
X0246411Y0336124D01*
X0244976Y0334689D01*
X0244200Y0332814D01*
X0244200Y0330786D01*
X0244976Y0328911D01*
X0246411Y0327476D01*
X0248044Y0326800D01*
X0246411Y0326124D01*
X0244976Y0324689D01*
X0244200Y0322814D01*
X0244200Y0320786D01*
X0244976Y0318911D01*
X0246411Y0317476D01*
X0248044Y0316800D01*
X0246411Y0316124D01*
X0244976Y0314689D01*
X0244200Y0312814D01*
X0244200Y0310786D01*
X0244976Y0308911D01*
X0246411Y0307476D01*
X0248044Y0306800D01*
X0246411Y0306124D01*
X0244976Y0304689D01*
X0244200Y0302814D01*
X0244200Y0300786D01*
X0244976Y0298911D01*
X0246000Y0297888D01*
X0246000Y0283460D01*
X0236818Y0274278D01*
X0234295Y0276800D01*
X0237100Y0279605D01*
X0237100Y0283995D01*
X0234295Y0286800D01*
X0237100Y0289605D01*
X0237100Y0293995D01*
X0234295Y0296800D01*
X0237100Y0299605D01*
X0237100Y0303995D01*
X0234295Y0306800D01*
X0237100Y0309605D01*
X0237100Y0313995D01*
X0234295Y0316800D01*
X0237100Y0319605D01*
X0237100Y0323995D01*
X0234295Y0326800D01*
X0237100Y0329605D01*
X0237100Y0333995D01*
X0234295Y0336800D01*
X0237100Y0339605D01*
X0237100Y0343995D01*
X0234295Y0346800D01*
X0237100Y0349605D01*
X0237100Y0353995D01*
X0234295Y0356800D01*
X0237100Y0359605D01*
X0237100Y0363995D01*
X0234295Y0366800D01*
X0237100Y0369605D01*
X0237100Y0373995D01*
X0234295Y0376800D01*
X0237100Y0379605D01*
X0237100Y0383995D01*
X0234295Y0386800D01*
X0237100Y0389605D01*
X0237100Y0393995D01*
X0234295Y0396800D01*
X0237100Y0399605D01*
X0237100Y0403995D01*
X0234295Y0406800D01*
X0237100Y0409605D01*
X0237100Y0413995D01*
X0233995Y0417100D01*
X0229605Y0417100D01*
X0226800Y0414295D01*
X0223995Y0417100D01*
X0219605Y0417100D01*
X0216800Y0414295D01*
X0213995Y0417100D01*
X0209605Y0417100D01*
X0206800Y0414295D01*
X0203995Y0417100D01*
X0199605Y0417100D01*
X0196800Y0414295D01*
X0193995Y0417100D01*
X0189605Y0417100D01*
X0186800Y0414295D01*
X0183995Y0417100D01*
X0179605Y0417100D01*
X0176800Y0414295D01*
X0173995Y0417100D01*
X0169605Y0417100D01*
X0166800Y0414295D01*
X0163995Y0417100D01*
X0159605Y0417100D01*
X0156500Y0413995D01*
X0156500Y0409605D01*
X0159305Y0406800D01*
X0156500Y0403995D01*
X0156500Y0399605D01*
X0159305Y0396800D01*
X0156500Y0393995D01*
X0156500Y0389605D01*
X0159305Y0386800D01*
X0156500Y0383995D01*
X0156500Y0379605D01*
X0159305Y0376800D01*
X0156500Y0373995D01*
X0156500Y0369605D01*
X0159305Y0366800D01*
X0156500Y0363995D01*
X0156500Y0359605D01*
X0159305Y0356800D01*
X0156500Y0353995D01*
X0156500Y0349605D01*
X0159305Y0346800D01*
X0156500Y0343995D01*
X0156500Y0339605D01*
X0159305Y0336800D01*
X0156500Y0333995D01*
X0156500Y0329605D01*
X0159305Y0326800D01*
X0156500Y0323995D01*
X0156500Y0319605D01*
X0159305Y0316800D01*
X0156500Y0313995D01*
X0156500Y0309605D01*
X0159305Y0306800D01*
X0156500Y0303995D01*
X0156500Y0299605D01*
X0159305Y0296800D01*
X0156500Y0293995D01*
X0156500Y0289605D01*
X0159305Y0286800D01*
X0156500Y0283995D01*
X0156500Y0279605D01*
X0159305Y0276800D01*
X0156500Y0273995D01*
X0156500Y0269605D01*
X0159305Y0266800D01*
X0156500Y0263995D01*
X0156500Y0259605D01*
X0159605Y0256500D01*
X0163995Y0256500D01*
X0166800Y0259305D01*
X0169605Y0256500D01*
X0173995Y0256500D01*
X0176800Y0259305D01*
X0179605Y0256500D01*
X0183995Y0256500D01*
X0186800Y0259305D01*
X0189605Y0256500D01*
X0193995Y0256500D01*
X0196800Y0259305D01*
X0199605Y0256500D01*
X0203995Y0256500D01*
X0206800Y0259305D01*
X0209605Y0256500D01*
X0213995Y0256500D01*
X0216800Y0259305D01*
X0219605Y0256500D01*
X0223995Y0256500D01*
X0226800Y0259305D01*
X0229605Y0256500D01*
X0231040Y0256500D01*
X0226214Y0251674D01*
X0225426Y0250886D01*
X0225000Y0249857D01*
X0225000Y0205600D01*
X0198743Y0205600D01*
X0197714Y0205174D01*
X0196926Y0204386D01*
X0189140Y0196600D01*
X0134460Y0196600D01*
X0132898Y0198162D01*
X0133942Y0198595D01*
X0135005Y0199658D01*
X0135581Y0201048D01*
X0135581Y0202552D01*
X0135005Y0203942D01*
X0133942Y0205005D01*
X0132552Y0205581D01*
X0131048Y0205581D01*
X0129658Y0205005D01*
X0128595Y0203942D01*
X0128162Y0202898D01*
X0125886Y0205174D01*
X0124857Y0205600D01*
X0049319Y0205600D01*
X0054622Y0207023D02*
X0225000Y0207023D01*
X0225000Y0208621D02*
X0058195Y0208621D01*
X0059047Y0209003D02*
X0059047Y0209003D01*
X0060762Y0210220D02*
X0225000Y0210220D01*
X0225000Y0211818D02*
X0063014Y0211818D01*
X0064806Y0213417D02*
X0225000Y0213417D01*
X0225000Y0215015D02*
X0066316Y0215015D01*
X0067827Y0216614D02*
X0225000Y0216614D01*
X0225000Y0218212D02*
X0068864Y0218212D01*
X0069868Y0219811D02*
X0225000Y0219811D01*
X0225000Y0221409D02*
X0070871Y0221409D01*
X0071072Y0221730D02*
X0071072Y0221730D01*
X0071559Y0223008D02*
X0225000Y0223008D01*
X0225000Y0224606D02*
X0204954Y0224606D01*
X0205005Y0224658D02*
X0205581Y0226048D01*
X0205581Y0227552D01*
X0205005Y0228942D01*
X0203942Y0230005D01*
X0202552Y0230581D01*
X0201048Y0230581D01*
X0199658Y0230005D01*
X0198595Y0228942D01*
X0198019Y0227552D01*
X0198019Y0226048D01*
X0198595Y0224658D01*
X0199658Y0223595D01*
X0201048Y0223019D01*
X0202552Y0223019D01*
X0203942Y0223595D01*
X0205005Y0224658D01*
X0205581Y0226205D02*
X0225000Y0226205D01*
X0225000Y0227803D02*
X0205477Y0227803D01*
X0204545Y0229402D02*
X0225000Y0229402D01*
X0225000Y0231001D02*
X0073811Y0231001D01*
X0074082Y0232599D02*
X0225000Y0232599D01*
X0225000Y0234198D02*
X0074131Y0234198D01*
X0074164Y0233084D02*
X0074164Y0233084D01*
X0074085Y0235796D02*
X0225000Y0235796D01*
X0225000Y0237395D02*
X0074039Y0237395D01*
X0073993Y0238993D02*
X0225000Y0238993D01*
X0225000Y0240592D02*
X0073694Y0240592D01*
X0073980Y0239452D02*
X0073980Y0239452D01*
X0073294Y0242190D02*
X0225000Y0242190D01*
X0225000Y0243789D02*
X0072894Y0243789D01*
X0072494Y0245387D02*
X0225000Y0245387D01*
X0225000Y0246986D02*
X0071869Y0246986D01*
X0072321Y0246077D02*
X0072321Y0246077D01*
X0071074Y0248584D02*
X0225000Y0248584D01*
X0225135Y0250183D02*
X0070279Y0250183D01*
X0069483Y0251781D02*
X0226321Y0251781D01*
X0227920Y0253380D02*
X0068322Y0253380D01*
X0069280Y0252191D02*
X0069280Y0252191D01*
X0067035Y0254978D02*
X0229518Y0254978D01*
X0229528Y0256577D02*
X0224072Y0256577D01*
X0225671Y0258175D02*
X0227929Y0258175D01*
X0219528Y0256577D02*
X0214072Y0256577D01*
X0215671Y0258175D02*
X0217929Y0258175D01*
X0209528Y0256577D02*
X0204072Y0256577D01*
X0205671Y0258175D02*
X0207929Y0258175D01*
X0199528Y0256577D02*
X0194072Y0256577D01*
X0195671Y0258175D02*
X0197929Y0258175D01*
X0189528Y0256577D02*
X0184072Y0256577D01*
X0185671Y0258175D02*
X0187929Y0258175D01*
X0179528Y0256577D02*
X0174072Y0256577D01*
X0175671Y0258175D02*
X0177929Y0258175D01*
X0169528Y0256577D02*
X0164072Y0256577D01*
X0165671Y0258175D02*
X0167929Y0258175D01*
X0159528Y0256577D02*
X0144072Y0256577D01*
X0143995Y0256500D02*
X0147100Y0259605D01*
X0147100Y0263995D01*
X0144295Y0266800D01*
X0147100Y0269605D01*
X0147100Y0273995D01*
X0144295Y0276800D01*
X0147100Y0279605D01*
X0147100Y0283995D01*
X0144295Y0286800D01*
X0147100Y0289605D01*
X0147100Y0293995D01*
X0144295Y0296800D01*
X0147100Y0299605D01*
X0147100Y0303995D01*
X0144295Y0306800D01*
X0147100Y0309605D01*
X0147100Y0313995D01*
X0144295Y0316800D01*
X0147100Y0319605D01*
X0147100Y0323995D01*
X0144295Y0326800D01*
X0147100Y0329605D01*
X0147100Y0333995D01*
X0144295Y0336800D01*
X0147100Y0339605D01*
X0147100Y0343995D01*
X0144295Y0346800D01*
X0147100Y0349605D01*
X0147100Y0353995D01*
X0144295Y0356800D01*
X0147100Y0359605D01*
X0147100Y0363995D01*
X0144295Y0366800D01*
X0147100Y0369605D01*
X0147100Y0373995D01*
X0144295Y0376800D01*
X0147100Y0379605D01*
X0147100Y0383995D01*
X0144295Y0386800D01*
X0147100Y0389605D01*
X0147100Y0393995D01*
X0144295Y0396800D01*
X0147100Y0399605D01*
X0147100Y0403995D01*
X0144295Y0406800D01*
X0147100Y0409605D01*
X0147100Y0413995D01*
X0143995Y0417100D01*
X0139605Y0417100D01*
X0136800Y0414295D01*
X0133995Y0417100D01*
X0129605Y0417100D01*
X0126800Y0414295D01*
X0123995Y0417100D01*
X0119605Y0417100D01*
X0116800Y0414295D01*
X0113995Y0417100D01*
X0109605Y0417100D01*
X0106800Y0414295D01*
X0103995Y0417100D01*
X0099605Y0417100D01*
X0096800Y0414295D01*
X0093995Y0417100D01*
X0089605Y0417100D01*
X0086800Y0414295D01*
X0083995Y0417100D01*
X0079605Y0417100D01*
X0076800Y0414295D01*
X0073995Y0417100D01*
X0069605Y0417100D01*
X0066500Y0413995D01*
X0066500Y0409605D01*
X0069305Y0406800D01*
X0066500Y0403995D01*
X0066500Y0399605D01*
X0069305Y0396800D01*
X0066500Y0393995D01*
X0066500Y0389605D01*
X0069305Y0386800D01*
X0066500Y0383995D01*
X0066500Y0379605D01*
X0069305Y0376800D01*
X0066500Y0373995D01*
X0066500Y0369605D01*
X0069305Y0366800D01*
X0066500Y0363995D01*
X0066500Y0359605D01*
X0069305Y0356800D01*
X0066500Y0353995D01*
X0066500Y0349605D01*
X0069305Y0346800D01*
X0066500Y0343995D01*
X0066500Y0339605D01*
X0069305Y0336800D01*
X0066500Y0333995D01*
X0066500Y0329605D01*
X0069305Y0326800D01*
X0066500Y0323995D01*
X0066500Y0319605D01*
X0069305Y0316800D01*
X0066500Y0313995D01*
X0066500Y0309605D01*
X0069305Y0306800D01*
X0066500Y0303995D01*
X0066500Y0299605D01*
X0069305Y0296800D01*
X0066500Y0293995D01*
X0066500Y0289605D01*
X0069305Y0286800D01*
X0066500Y0283995D01*
X0066500Y0279605D01*
X0069305Y0276800D01*
X0066500Y0273995D01*
X0066500Y0269605D01*
X0069305Y0266800D01*
X0066500Y0263995D01*
X0066500Y0259605D01*
X0069605Y0256500D01*
X0073995Y0256500D01*
X0076800Y0259305D01*
X0079605Y0256500D01*
X0083995Y0256500D01*
X0086800Y0259305D01*
X0089605Y0256500D01*
X0093995Y0256500D01*
X0096800Y0259305D01*
X0099605Y0256500D01*
X0103995Y0256500D01*
X0106800Y0259305D01*
X0109605Y0256500D01*
X0113995Y0256500D01*
X0116800Y0259305D01*
X0119605Y0256500D01*
X0123995Y0256500D01*
X0126800Y0259305D01*
X0129605Y0256500D01*
X0133995Y0256500D01*
X0136800Y0259305D01*
X0139605Y0256500D01*
X0143995Y0256500D01*
X0145671Y0258175D02*
X0157929Y0258175D01*
X0156500Y0259774D02*
X0147100Y0259774D01*
X0147100Y0261372D02*
X0156500Y0261372D01*
X0156500Y0262971D02*
X0147100Y0262971D01*
X0146526Y0264569D02*
X0157074Y0264569D01*
X0158672Y0266168D02*
X0144928Y0266168D01*
X0145262Y0267766D02*
X0158338Y0267766D01*
X0156740Y0269365D02*
X0146860Y0269365D01*
X0147100Y0270963D02*
X0156500Y0270963D01*
X0156500Y0272562D02*
X0147100Y0272562D01*
X0146935Y0274160D02*
X0156665Y0274160D01*
X0158264Y0275759D02*
X0145336Y0275759D01*
X0144853Y0277357D02*
X0158747Y0277357D01*
X0157149Y0278956D02*
X0146451Y0278956D01*
X0147100Y0280554D02*
X0156500Y0280554D01*
X0156500Y0282153D02*
X0147100Y0282153D01*
X0147100Y0283751D02*
X0156500Y0283751D01*
X0157855Y0285350D02*
X0145745Y0285350D01*
X0144444Y0286948D02*
X0159156Y0286948D01*
X0157558Y0288547D02*
X0146042Y0288547D01*
X0147100Y0290145D02*
X0156500Y0290145D01*
X0156500Y0291744D02*
X0147100Y0291744D01*
X0147100Y0293342D02*
X0156500Y0293342D01*
X0157446Y0294941D02*
X0146154Y0294941D01*
X0144556Y0296539D02*
X0159044Y0296539D01*
X0157967Y0298138D02*
X0145633Y0298138D01*
X0147100Y0299737D02*
X0156500Y0299737D01*
X0156500Y0301335D02*
X0147100Y0301335D01*
X0147100Y0302934D02*
X0156500Y0302934D01*
X0157037Y0304532D02*
X0146563Y0304532D01*
X0144965Y0306131D02*
X0158635Y0306131D01*
X0158376Y0307729D02*
X0145224Y0307729D01*
X0146823Y0309328D02*
X0156777Y0309328D01*
X0156500Y0310926D02*
X0147100Y0310926D01*
X0147100Y0312525D02*
X0156500Y0312525D01*
X0156628Y0314123D02*
X0146972Y0314123D01*
X0145374Y0315722D02*
X0158226Y0315722D01*
X0158785Y0317320D02*
X0144815Y0317320D01*
X0146414Y0318919D02*
X0157186Y0318919D01*
X0156500Y0320517D02*
X0147100Y0320517D01*
X0147100Y0322116D02*
X0156500Y0322116D01*
X0156500Y0323714D02*
X0147100Y0323714D01*
X0145783Y0325313D02*
X0157817Y0325313D01*
X0159193Y0326911D02*
X0144407Y0326911D01*
X0146005Y0328510D02*
X0157595Y0328510D01*
X0156500Y0330108D02*
X0147100Y0330108D01*
X0147100Y0331707D02*
X0156500Y0331707D01*
X0156500Y0333305D02*
X0147100Y0333305D01*
X0146192Y0334904D02*
X0157408Y0334904D01*
X0159007Y0336502D02*
X0144593Y0336502D01*
X0145596Y0338101D02*
X0158004Y0338101D01*
X0156500Y0339699D02*
X0147100Y0339699D01*
X0147100Y0341298D02*
X0156500Y0341298D01*
X0156500Y0342896D02*
X0147100Y0342896D01*
X0146600Y0344495D02*
X0157000Y0344495D01*
X0158598Y0346093D02*
X0145002Y0346093D01*
X0145187Y0347692D02*
X0158413Y0347692D01*
X0156814Y0349290D02*
X0146786Y0349290D01*
X0147100Y0350889D02*
X0156500Y0350889D01*
X0156500Y0352487D02*
X0147100Y0352487D01*
X0147009Y0354086D02*
X0156591Y0354086D01*
X0158189Y0355684D02*
X0145411Y0355684D01*
X0144778Y0357283D02*
X0158822Y0357283D01*
X0157223Y0358881D02*
X0146377Y0358881D01*
X0147100Y0360480D02*
X0156500Y0360480D01*
X0156500Y0362078D02*
X0147100Y0362078D01*
X0147100Y0363677D02*
X0156500Y0363677D01*
X0157780Y0365275D02*
X0145820Y0365275D01*
X0144369Y0366874D02*
X0159231Y0366874D01*
X0157632Y0368472D02*
X0145968Y0368472D01*
X0147100Y0370071D02*
X0156500Y0370071D01*
X0156500Y0371670D02*
X0147100Y0371670D01*
X0147100Y0373268D02*
X0156500Y0373268D01*
X0157371Y0374867D02*
X0146229Y0374867D01*
X0144630Y0376465D02*
X0158970Y0376465D01*
X0158041Y0378064D02*
X0145559Y0378064D01*
X0147100Y0379662D02*
X0156500Y0379662D01*
X0156500Y0381261D02*
X0147100Y0381261D01*
X0147100Y0382859D02*
X0156500Y0382859D01*
X0156962Y0384458D02*
X0146638Y0384458D01*
X0145039Y0386056D02*
X0158561Y0386056D01*
X0158450Y0387655D02*
X0145150Y0387655D01*
X0146748Y0389253D02*
X0156852Y0389253D01*
X0156500Y0390852D02*
X0147100Y0390852D01*
X0147100Y0392450D02*
X0156500Y0392450D01*
X0156553Y0394049D02*
X0147047Y0394049D01*
X0145448Y0395647D02*
X0158152Y0395647D01*
X0158859Y0397246D02*
X0144741Y0397246D01*
X0146340Y0398844D02*
X0157260Y0398844D01*
X0156500Y0400443D02*
X0147100Y0400443D01*
X0147100Y0402041D02*
X0156500Y0402041D01*
X0156500Y0403640D02*
X0147100Y0403640D01*
X0145857Y0405238D02*
X0157743Y0405238D01*
X0159268Y0406837D02*
X0144332Y0406837D01*
X0145931Y0408435D02*
X0157669Y0408435D01*
X0156500Y0410034D02*
X0147100Y0410034D01*
X0147100Y0411632D02*
X0156500Y0411632D01*
X0156500Y0413231D02*
X0147100Y0413231D01*
X0146266Y0414829D02*
X0157334Y0414829D01*
X0158933Y0416428D02*
X0144667Y0416428D01*
X0138933Y0416428D02*
X0134667Y0416428D01*
X0136266Y0414829D02*
X0137334Y0414829D01*
X0128933Y0416428D02*
X0124667Y0416428D01*
X0126266Y0414829D02*
X0127334Y0414829D01*
X0118933Y0416428D02*
X0114667Y0416428D01*
X0116266Y0414829D02*
X0117334Y0414829D01*
X0108933Y0416428D02*
X0104667Y0416428D01*
X0106266Y0414829D02*
X0107334Y0414829D01*
X0098933Y0416428D02*
X0094667Y0416428D01*
X0096266Y0414829D02*
X0097334Y0414829D01*
X0088933Y0416428D02*
X0084667Y0416428D01*
X0086266Y0414829D02*
X0087334Y0414829D01*
X0078933Y0416428D02*
X0074667Y0416428D01*
X0076266Y0414829D02*
X0077334Y0414829D01*
X0068933Y0416428D02*
X0056454Y0416428D01*
X0057189Y0416124D02*
X0055314Y0416900D01*
X0053286Y0416900D01*
X0051411Y0416124D01*
X0049976Y0414689D01*
X0049274Y0412994D01*
X0049274Y0412994D01*
X0049026Y0413758D01*
X0048662Y0414473D01*
X0048190Y0415122D01*
X0047622Y0415690D01*
X0046973Y0416162D01*
X0046258Y0416526D01*
X0045494Y0416774D01*
X0044701Y0416900D01*
X0044484Y0416900D01*
X0044484Y0411984D01*
X0044116Y0411984D01*
X0044116Y0411616D01*
X0039200Y0411616D01*
X0039200Y0411399D01*
X0039326Y0410606D01*
X0039574Y0409842D01*
X0039938Y0409127D01*
X0040410Y0408478D01*
X0040978Y0407910D01*
X0041627Y0407438D01*
X0042342Y0407074D01*
X0043106Y0406826D01*
X0043267Y0406800D01*
X0043106Y0406774D01*
X0042342Y0406526D01*
X0041627Y0406162D01*
X0040978Y0405690D01*
X0040410Y0405122D01*
X0039938Y0404473D01*
X0039574Y0403758D01*
X0039326Y0402994D01*
X0039200Y0402201D01*
X0039200Y0401984D01*
X0044116Y0401984D01*
X0044116Y0401616D01*
X0039200Y0401616D01*
X0039200Y0401399D01*
X0039326Y0400606D01*
X0039574Y0399842D01*
X0039938Y0399127D01*
X0040410Y0398478D01*
X0040978Y0397910D01*
X0041627Y0397438D01*
X0042342Y0397074D01*
X0043106Y0396826D01*
X0043267Y0396800D01*
X0043106Y0396774D01*
X0042342Y0396526D01*
X0041627Y0396162D01*
X0040978Y0395690D01*
X0040410Y0395122D01*
X0039938Y0394473D01*
X0039574Y0393758D01*
X0039326Y0392994D01*
X0039200Y0392201D01*
X0039200Y0391984D01*
X0044116Y0391984D01*
X0044116Y0391616D01*
X0039200Y0391616D01*
X0039200Y0391399D01*
X0039326Y0390606D01*
X0039574Y0389842D01*
X0039938Y0389127D01*
X0040410Y0388478D01*
X0040978Y0387910D01*
X0041627Y0387438D01*
X0042342Y0387074D01*
X0043106Y0386826D01*
X0043267Y0386800D01*
X0043106Y0386774D01*
X0042342Y0386526D01*
X0041627Y0386162D01*
X0040978Y0385690D01*
X0040410Y0385122D01*
X0039938Y0384473D01*
X0039574Y0383758D01*
X0039326Y0382994D01*
X0039200Y0382201D01*
X0039200Y0381984D01*
X0044116Y0381984D01*
X0044116Y0381616D01*
X0039200Y0381616D01*
X0039200Y0381399D01*
X0039326Y0380606D01*
X0039574Y0379842D01*
X0039938Y0379127D01*
X0040410Y0378478D01*
X0040978Y0377910D01*
X0041627Y0377438D01*
X0042342Y0377074D01*
X0043106Y0376826D01*
X0043267Y0376800D01*
X0043106Y0376774D01*
X0042342Y0376526D01*
X0041627Y0376162D01*
X0040978Y0375690D01*
X0040410Y0375122D01*
X0039938Y0374473D01*
X0039574Y0373758D01*
X0039326Y0372994D01*
X0039200Y0372201D01*
X0039200Y0371984D01*
X0044116Y0371984D01*
X0044116Y0371616D01*
X0039200Y0371616D01*
X0039200Y0371399D01*
X0039326Y0370606D01*
X0039574Y0369842D01*
X0039938Y0369127D01*
X0040410Y0368478D01*
X0040978Y0367910D01*
X0041627Y0367438D01*
X0042342Y0367074D01*
X0043106Y0366826D01*
X0043267Y0366800D01*
X0043106Y0366774D01*
X0042342Y0366526D01*
X0041627Y0366162D01*
X0040978Y0365690D01*
X0040410Y0365122D01*
X0039938Y0364473D01*
X0039574Y0363758D01*
X0039326Y0362994D01*
X0039200Y0362201D01*
X0039200Y0361984D01*
X0044116Y0361984D01*
X0044116Y0361616D01*
X0039200Y0361616D01*
X0039200Y0361399D01*
X0039326Y0360606D01*
X0039574Y0359842D01*
X0039938Y0359127D01*
X0040410Y0358478D01*
X0040978Y0357910D01*
X0041627Y0357438D01*
X0042342Y0357074D01*
X0043106Y0356826D01*
X0043267Y0356800D01*
X0043106Y0356774D01*
X0042342Y0356526D01*
X0041627Y0356162D01*
X0040978Y0355690D01*
X0040410Y0355122D01*
X0039938Y0354473D01*
X0039574Y0353758D01*
X0039326Y0352994D01*
X0039200Y0352201D01*
X0039200Y0351984D01*
X0044116Y0351984D01*
X0044116Y0351616D01*
X0039200Y0351616D01*
X0039200Y0351399D01*
X0039326Y0350606D01*
X0039574Y0349842D01*
X0039938Y0349127D01*
X0040410Y0348478D01*
X0040978Y0347910D01*
X0041627Y0347438D01*
X0042342Y0347074D01*
X0043106Y0346826D01*
X0043267Y0346800D01*
X0043106Y0346774D01*
X0042342Y0346526D01*
X0041627Y0346162D01*
X0040978Y0345690D01*
X0040410Y0345122D01*
X0039938Y0344473D01*
X0039574Y0343758D01*
X0039326Y0342994D01*
X0039200Y0342201D01*
X0039200Y0341984D01*
X0044116Y0341984D01*
X0044116Y0341616D01*
X0039200Y0341616D01*
X0039200Y0341399D01*
X0039326Y0340606D01*
X0039574Y0339842D01*
X0039938Y0339127D01*
X0040410Y0338478D01*
X0040978Y0337910D01*
X0041627Y0337438D01*
X0042342Y0337074D01*
X0043106Y0336826D01*
X0043267Y0336800D01*
X0043106Y0336774D01*
X0042342Y0336526D01*
X0041627Y0336162D01*
X0040978Y0335690D01*
X0040410Y0335122D01*
X0039938Y0334473D01*
X0039574Y0333758D01*
X0039326Y0332994D01*
X0039200Y0332201D01*
X0039200Y0331984D01*
X0044116Y0331984D01*
X0044116Y0331616D01*
X0039200Y0331616D01*
X0039200Y0331399D01*
X0039326Y0330606D01*
X0039574Y0329842D01*
X0039938Y0329127D01*
X0040410Y0328478D01*
X0040978Y0327910D01*
X0041627Y0327438D01*
X0042342Y0327074D01*
X0043106Y0326826D01*
X0043267Y0326800D01*
X0043106Y0326774D01*
X0042342Y0326526D01*
X0041627Y0326162D01*
X0040978Y0325690D01*
X0040410Y0325122D01*
X0039938Y0324473D01*
X0039574Y0323758D01*
X0039326Y0322994D01*
X0039200Y0322201D01*
X0039200Y0321984D01*
X0044116Y0321984D01*
X0044116Y0321616D01*
X0039200Y0321616D01*
X0039200Y0321399D01*
X0039326Y0320606D01*
X0039574Y0319842D01*
X0039938Y0319127D01*
X0040410Y0318478D01*
X0040978Y0317910D01*
X0041627Y0317438D01*
X0042342Y0317074D01*
X0043106Y0316826D01*
X0043267Y0316800D01*
X0043106Y0316774D01*
X0042342Y0316526D01*
X0041627Y0316162D01*
X0040978Y0315690D01*
X0040410Y0315122D01*
X0039938Y0314473D01*
X0039574Y0313758D01*
X0039326Y0312994D01*
X0039200Y0312201D01*
X0039200Y0311984D01*
X0044116Y0311984D01*
X0044116Y0311616D01*
X0039200Y0311616D01*
X0039200Y0311399D01*
X0039326Y0310606D01*
X0039574Y0309842D01*
X0039938Y0309127D01*
X0040410Y0308478D01*
X0040978Y0307910D01*
X0041627Y0307438D01*
X0042342Y0307074D01*
X0043106Y0306826D01*
X0043267Y0306800D01*
X0043106Y0306774D01*
X0042342Y0306526D01*
X0041627Y0306162D01*
X0040978Y0305690D01*
X0040410Y0305122D01*
X0039938Y0304473D01*
X0039574Y0303758D01*
X0039326Y0302994D01*
X0039200Y0302201D01*
X0039200Y0301984D01*
X0044116Y0301984D01*
X0044116Y0301616D01*
X0044484Y0301616D01*
X0044484Y0296700D01*
X0044701Y0296700D01*
X0045494Y0296826D01*
X0046258Y0297074D01*
X0046973Y0297438D01*
X0047622Y0297910D01*
X0048190Y0298478D01*
X0048662Y0299127D01*
X0049026Y0299842D01*
X0049274Y0300606D01*
X0049976Y0298911D01*
X0051411Y0297476D01*
X0053286Y0296700D01*
X0055314Y0296700D01*
X0057189Y0297476D01*
X0058624Y0298911D01*
X0059400Y0300786D01*
X0059400Y0302814D01*
X0058624Y0304689D01*
X0057189Y0306124D01*
X0055556Y0306800D01*
X0057189Y0307476D01*
X0058624Y0308911D01*
X0059400Y0310786D01*
X0059400Y0312814D01*
X0058624Y0314689D01*
X0057189Y0316124D01*
X0055556Y0316800D01*
X0057189Y0317476D01*
X0058624Y0318911D01*
X0059400Y0320786D01*
X0059400Y0322814D01*
X0058624Y0324689D01*
X0057189Y0326124D01*
X0055556Y0326800D01*
X0057189Y0327476D01*
X0058624Y0328911D01*
X0059400Y0330786D01*
X0059400Y0332814D01*
X0058624Y0334689D01*
X0057189Y0336124D01*
X0055556Y0336800D01*
X0057189Y0337476D01*
X0058624Y0338911D01*
X0059400Y0340786D01*
X0059400Y0342814D01*
X0058624Y0344689D01*
X0057189Y0346124D01*
X0055556Y0346800D01*
X0057189Y0347476D01*
X0058624Y0348911D01*
X0059400Y0350786D01*
X0059400Y0352814D01*
X0058624Y0354689D01*
X0057189Y0356124D01*
X0055556Y0356800D01*
X0057189Y0357476D01*
X0058624Y0358911D01*
X0059400Y0360786D01*
X0059400Y0362814D01*
X0058624Y0364689D01*
X0057189Y0366124D01*
X0055556Y0366800D01*
X0057189Y0367476D01*
X0058624Y0368911D01*
X0059400Y0370786D01*
X0059400Y0372814D01*
X0058624Y0374689D01*
X0057189Y0376124D01*
X0055556Y0376800D01*
X0057189Y0377476D01*
X0058624Y0378911D01*
X0059400Y0380786D01*
X0059400Y0382814D01*
X0058624Y0384689D01*
X0057189Y0386124D01*
X0055556Y0386800D01*
X0057189Y0387476D01*
X0058624Y0388911D01*
X0059400Y0390786D01*
X0059400Y0392814D01*
X0058624Y0394689D01*
X0057189Y0396124D01*
X0055556Y0396800D01*
X0057189Y0397476D01*
X0058624Y0398911D01*
X0059400Y0400786D01*
X0059400Y0402814D01*
X0058624Y0404689D01*
X0057189Y0406124D01*
X0055556Y0406800D01*
X0057189Y0407476D01*
X0058624Y0408911D01*
X0059400Y0410786D01*
X0059400Y0412814D01*
X0058624Y0414689D01*
X0057189Y0416124D01*
X0058483Y0414829D02*
X0067334Y0414829D01*
X0066500Y0413231D02*
X0059228Y0413231D01*
X0059400Y0411632D02*
X0066500Y0411632D01*
X0066500Y0410034D02*
X0059089Y0410034D01*
X0058148Y0408435D02*
X0067669Y0408435D01*
X0069268Y0406837D02*
X0055645Y0406837D01*
X0058074Y0405238D02*
X0067743Y0405238D01*
X0066500Y0403640D02*
X0059058Y0403640D01*
X0059400Y0402041D02*
X0066500Y0402041D01*
X0066500Y0400443D02*
X0059258Y0400443D01*
X0058557Y0398844D02*
X0067260Y0398844D01*
X0068859Y0397246D02*
X0056632Y0397246D01*
X0057665Y0395647D02*
X0068152Y0395647D01*
X0066553Y0394049D02*
X0058889Y0394049D01*
X0059400Y0392450D02*
X0066500Y0392450D01*
X0066500Y0390852D02*
X0059400Y0390852D01*
X0058765Y0389253D02*
X0066852Y0389253D01*
X0068450Y0387655D02*
X0057367Y0387655D01*
X0057256Y0386056D02*
X0068561Y0386056D01*
X0066962Y0384458D02*
X0058719Y0384458D01*
X0059382Y0382859D02*
X0066500Y0382859D01*
X0066500Y0381261D02*
X0059400Y0381261D01*
X0058935Y0379662D02*
X0066500Y0379662D01*
X0068041Y0378064D02*
X0057776Y0378064D01*
X0056364Y0376465D02*
X0068970Y0376465D01*
X0067371Y0374867D02*
X0058446Y0374867D01*
X0059212Y0373268D02*
X0066500Y0373268D01*
X0066500Y0371670D02*
X0059400Y0371670D01*
X0059104Y0370071D02*
X0066500Y0370071D01*
X0067632Y0368472D02*
X0058185Y0368472D01*
X0055734Y0366874D02*
X0069231Y0366874D01*
X0067780Y0365275D02*
X0058037Y0365275D01*
X0059043Y0363677D02*
X0066500Y0363677D01*
X0066500Y0362078D02*
X0059400Y0362078D01*
X0059273Y0360480D02*
X0066500Y0360480D01*
X0067223Y0358881D02*
X0058594Y0358881D01*
X0056722Y0357283D02*
X0068822Y0357283D01*
X0068189Y0355684D02*
X0057628Y0355684D01*
X0058873Y0354086D02*
X0066591Y0354086D01*
X0066500Y0352487D02*
X0059400Y0352487D01*
X0059400Y0350889D02*
X0066500Y0350889D01*
X0066814Y0349290D02*
X0058781Y0349290D01*
X0057404Y0347692D02*
X0068413Y0347692D01*
X0068598Y0346093D02*
X0057219Y0346093D01*
X0058704Y0344495D02*
X0066999Y0344495D01*
X0066500Y0342896D02*
X0059366Y0342896D01*
X0059400Y0341298D02*
X0066500Y0341298D01*
X0066500Y0339699D02*
X0058950Y0339699D01*
X0057813Y0338101D02*
X0068004Y0338101D01*
X0069007Y0336502D02*
X0056275Y0336502D01*
X0058409Y0334904D02*
X0067408Y0334904D01*
X0066500Y0333305D02*
X0059197Y0333305D01*
X0059400Y0331707D02*
X0066500Y0331707D01*
X0066500Y0330108D02*
X0059119Y0330108D01*
X0058222Y0328510D02*
X0067595Y0328510D01*
X0069193Y0326911D02*
X0055824Y0326911D01*
X0058000Y0325313D02*
X0067817Y0325313D01*
X0066500Y0323714D02*
X0059027Y0323714D01*
X0059400Y0322116D02*
X0066500Y0322116D01*
X0066500Y0320517D02*
X0059289Y0320517D01*
X0058627Y0318919D02*
X0067186Y0318919D01*
X0068785Y0317320D02*
X0056812Y0317320D01*
X0057591Y0315722D02*
X0068226Y0315722D01*
X0066628Y0314123D02*
X0058858Y0314123D01*
X0059400Y0312525D02*
X0066500Y0312525D01*
X0066500Y0310926D02*
X0059400Y0310926D01*
X0058796Y0309328D02*
X0066777Y0309328D01*
X0068376Y0307729D02*
X0057442Y0307729D01*
X0057172Y0306131D02*
X0068635Y0306131D01*
X0067037Y0304532D02*
X0058689Y0304532D01*
X0059351Y0302934D02*
X0066500Y0302934D01*
X0066500Y0301335D02*
X0059400Y0301335D01*
X0058965Y0299737D02*
X0066500Y0299737D01*
X0067967Y0298138D02*
X0057850Y0298138D01*
X0050750Y0298138D02*
X0047850Y0298138D01*
X0048972Y0299737D02*
X0049635Y0299737D01*
X0049274Y0300606D02*
X0049274Y0300606D01*
X0044484Y0301335D02*
X0044116Y0301335D01*
X0044116Y0301616D02*
X0044116Y0296700D01*
X0043899Y0296700D01*
X0043106Y0296826D01*
X0042342Y0297074D01*
X0041627Y0297438D01*
X0040978Y0297910D01*
X0040410Y0298478D01*
X0039938Y0299127D01*
X0039574Y0299842D01*
X0039326Y0300606D01*
X0039200Y0301399D01*
X0039200Y0301616D01*
X0044116Y0301616D01*
X0044116Y0301984D02*
X0044116Y0311616D01*
X0044484Y0311616D01*
X0044484Y0306700D01*
X0044484Y0301984D01*
X0044116Y0301984D01*
X0044116Y0302934D02*
X0044484Y0302934D01*
X0044484Y0304532D02*
X0044116Y0304532D01*
X0044116Y0306131D02*
X0044484Y0306131D01*
X0044484Y0307729D02*
X0044116Y0307729D01*
X0044116Y0309328D02*
X0044484Y0309328D01*
X0044484Y0310926D02*
X0044116Y0310926D01*
X0044116Y0311984D02*
X0044116Y0321616D01*
X0044484Y0321616D01*
X0044484Y0316700D01*
X0044484Y0311984D01*
X0044116Y0311984D01*
X0044116Y0312525D02*
X0044484Y0312525D01*
X0044484Y0314123D02*
X0044116Y0314123D01*
X0044116Y0315722D02*
X0044484Y0315722D01*
X0044484Y0317320D02*
X0044116Y0317320D01*
X0044116Y0318919D02*
X0044484Y0318919D01*
X0044484Y0320517D02*
X0044116Y0320517D01*
X0044116Y0321984D02*
X0044116Y0331616D01*
X0044484Y0331616D01*
X0044484Y0326700D01*
X0044484Y0321984D01*
X0044116Y0321984D01*
X0044116Y0322116D02*
X0044484Y0322116D01*
X0044484Y0323714D02*
X0044116Y0323714D01*
X0044116Y0325313D02*
X0044484Y0325313D01*
X0044484Y0326911D02*
X0044116Y0326911D01*
X0042842Y0326911D02*
X0028175Y0326911D01*
X0028175Y0325313D02*
X0040600Y0325313D01*
X0039560Y0323714D02*
X0028175Y0323714D01*
X0028175Y0322116D02*
X0039200Y0322116D01*
X0039354Y0320517D02*
X0028175Y0320517D01*
X0028175Y0318919D02*
X0040089Y0318919D01*
X0041859Y0317320D02*
X0028175Y0317320D01*
X0028175Y0315722D02*
X0041021Y0315722D01*
X0039760Y0314123D02*
X0028175Y0314123D01*
X0028175Y0312525D02*
X0039251Y0312525D01*
X0039275Y0310926D02*
X0028175Y0310926D01*
X0028175Y0309328D02*
X0039836Y0309328D01*
X0041227Y0307729D02*
X0028175Y0307729D01*
X0028175Y0306131D02*
X0041584Y0306131D01*
X0039981Y0304532D02*
X0028175Y0304532D01*
X0028175Y0302934D02*
X0039316Y0302934D01*
X0039210Y0301335D02*
X0028175Y0301335D01*
X0028175Y0299737D02*
X0039628Y0299737D01*
X0040750Y0298138D02*
X0028175Y0298138D01*
X0028175Y0296539D02*
X0069044Y0296539D01*
X0067446Y0294941D02*
X0028175Y0294941D01*
X0028175Y0293342D02*
X0066500Y0293342D01*
X0066500Y0291744D02*
X0028175Y0291744D01*
X0028175Y0290145D02*
X0029996Y0290145D01*
X0028431Y0288547D02*
X0028175Y0288547D01*
X0033604Y0290145D02*
X0066500Y0290145D01*
X0067558Y0288547D02*
X0035169Y0288547D01*
X0035581Y0286948D02*
X0038400Y0286948D01*
X0035631Y0285350D02*
X0035292Y0285350D01*
X0044116Y0298138D02*
X0044484Y0298138D01*
X0044484Y0299737D02*
X0044116Y0299737D01*
X0048349Y0286948D02*
X0069156Y0286948D01*
X0067855Y0285350D02*
X0051118Y0285350D01*
X0052733Y0283751D02*
X0066500Y0283751D01*
X0066500Y0282153D02*
X0053987Y0282153D01*
X0054910Y0280554D02*
X0066500Y0280554D01*
X0067149Y0278956D02*
X0055486Y0278956D01*
X0055914Y0277357D02*
X0068747Y0277357D01*
X0068264Y0275759D02*
X0056049Y0275759D01*
X0056049Y0274160D02*
X0066665Y0274160D01*
X0066500Y0272562D02*
X0055793Y0272562D01*
X0055364Y0270963D02*
X0066500Y0270963D01*
X0066740Y0269365D02*
X0054649Y0269365D01*
X0053726Y0267766D02*
X0068338Y0267766D01*
X0068672Y0266168D02*
X0052281Y0266168D01*
X0053552Y0264817D02*
X0053552Y0264817D01*
X0054052Y0264569D02*
X0067074Y0264569D01*
X0066500Y0262971D02*
X0057278Y0262971D01*
X0059671Y0261785D02*
X0059671Y0261785D01*
X0060185Y0261372D02*
X0066500Y0261372D01*
X0066500Y0259774D02*
X0062176Y0259774D01*
X0064167Y0258175D02*
X0067929Y0258175D01*
X0069528Y0256577D02*
X0065748Y0256577D01*
X0064996Y0257510D02*
X0064996Y0257510D01*
X0064996Y0257510D01*
X0074072Y0256577D02*
X0079528Y0256577D01*
X0077929Y0258175D02*
X0075671Y0258175D01*
X0084072Y0256577D02*
X0089528Y0256577D01*
X0087929Y0258175D02*
X0085671Y0258175D01*
X0094072Y0256577D02*
X0099528Y0256577D01*
X0097929Y0258175D02*
X0095671Y0258175D01*
X0104072Y0256577D02*
X0109528Y0256577D01*
X0107929Y0258175D02*
X0105671Y0258175D01*
X0114072Y0256577D02*
X0119528Y0256577D01*
X0117929Y0258175D02*
X0115671Y0258175D01*
X0124072Y0256577D02*
X0129528Y0256577D01*
X0127929Y0258175D02*
X0125671Y0258175D01*
X0134072Y0256577D02*
X0139528Y0256577D01*
X0137929Y0258175D02*
X0135671Y0258175D01*
X0123942Y0230005D02*
X0122552Y0230581D01*
X0121048Y0230581D01*
X0119658Y0230005D01*
X0118595Y0228942D01*
X0118019Y0227552D01*
X0118019Y0226048D01*
X0118595Y0224658D01*
X0119658Y0223595D01*
X0121048Y0223019D01*
X0122552Y0223019D01*
X0123942Y0223595D01*
X0125005Y0224658D01*
X0125581Y0226048D01*
X0125581Y0227552D01*
X0125005Y0228942D01*
X0123942Y0230005D01*
X0124545Y0229402D02*
X0159055Y0229402D01*
X0158595Y0228942D02*
X0158019Y0227552D01*
X0158019Y0226048D01*
X0158595Y0224658D01*
X0159658Y0223595D01*
X0161048Y0223019D01*
X0162552Y0223019D01*
X0163942Y0223595D01*
X0165005Y0224658D01*
X0165581Y0226048D01*
X0165581Y0227552D01*
X0165005Y0228942D01*
X0163942Y0230005D01*
X0162552Y0230581D01*
X0161048Y0230581D01*
X0159658Y0230005D01*
X0158595Y0228942D01*
X0158123Y0227803D02*
X0125477Y0227803D01*
X0125581Y0226205D02*
X0158019Y0226205D01*
X0158646Y0224606D02*
X0124954Y0224606D01*
X0118646Y0224606D02*
X0089954Y0224606D01*
X0090005Y0224658D02*
X0090581Y0226048D01*
X0090581Y0227552D01*
X0090005Y0228942D01*
X0088942Y0230005D01*
X0087552Y0230581D01*
X0086048Y0230581D01*
X0084658Y0230005D01*
X0083595Y0228942D01*
X0083019Y0227552D01*
X0083019Y0226048D01*
X0083595Y0224658D01*
X0084658Y0223595D01*
X0086048Y0223019D01*
X0087552Y0223019D01*
X0088942Y0223595D01*
X0090005Y0224658D01*
X0090581Y0226205D02*
X0118019Y0226205D01*
X0118123Y0227803D02*
X0090477Y0227803D01*
X0089545Y0229402D02*
X0119055Y0229402D01*
X0125281Y0205424D02*
X0130669Y0205424D01*
X0132931Y0205424D02*
X0165669Y0205424D01*
X0166048Y0205581D02*
X0164658Y0205005D01*
X0163595Y0203942D01*
X0163019Y0202552D01*
X0163019Y0201048D01*
X0163595Y0199658D01*
X0164658Y0198595D01*
X0166048Y0198019D01*
X0167552Y0198019D01*
X0168942Y0198595D01*
X0170005Y0199658D01*
X0170581Y0201048D01*
X0170581Y0202552D01*
X0170005Y0203942D01*
X0168942Y0205005D01*
X0167552Y0205581D01*
X0166048Y0205581D01*
X0167931Y0205424D02*
X0198319Y0205424D01*
X0196366Y0203826D02*
X0170054Y0203826D01*
X0170581Y0202227D02*
X0194768Y0202227D01*
X0193169Y0200629D02*
X0170407Y0200629D01*
X0169378Y0199030D02*
X0191570Y0199030D01*
X0189972Y0197432D02*
X0133628Y0197432D01*
X0134378Y0199030D02*
X0164222Y0199030D01*
X0163192Y0200629D02*
X0135407Y0200629D01*
X0135581Y0202227D02*
X0163019Y0202227D01*
X0163546Y0203826D02*
X0135054Y0203826D01*
X0128546Y0203826D02*
X0127234Y0203826D01*
X0124110Y0199030D02*
X0106570Y0199030D01*
X0106750Y0197432D02*
X0125708Y0197432D01*
X0127307Y0195833D02*
X0106750Y0195833D01*
X0106235Y0194235D02*
X0128905Y0194235D01*
X0130504Y0192636D02*
X0104637Y0192636D01*
X0103850Y0191750D02*
X0099750Y0191750D01*
X0096850Y0188850D01*
X0096850Y0184750D01*
X0099750Y0181850D01*
X0103850Y0181850D01*
X0106750Y0184750D01*
X0106750Y0188850D01*
X0103850Y0191750D01*
X0104563Y0191038D02*
X0132652Y0191038D01*
X0132552Y0150581D02*
X0131048Y0150581D01*
X0129658Y0150005D01*
X0128595Y0148942D01*
X0128019Y0147552D01*
X0128019Y0146048D01*
X0128595Y0144658D01*
X0129658Y0143595D01*
X0131048Y0143019D01*
X0132552Y0143019D01*
X0133942Y0143595D01*
X0135005Y0144658D01*
X0135581Y0146048D01*
X0135581Y0147552D01*
X0135005Y0148942D01*
X0133942Y0150005D01*
X0132552Y0150581D01*
X0134471Y0149476D02*
X0154129Y0149476D01*
X0154658Y0150005D02*
X0153595Y0148942D01*
X0153019Y0147552D01*
X0153019Y0146048D01*
X0153595Y0144658D01*
X0154658Y0143595D01*
X0156048Y0143019D01*
X0157552Y0143019D01*
X0158942Y0143595D01*
X0160005Y0144658D01*
X0160581Y0146048D01*
X0160581Y0147552D01*
X0160005Y0148942D01*
X0158942Y0150005D01*
X0157552Y0150581D01*
X0156048Y0150581D01*
X0154658Y0150005D01*
X0153154Y0147878D02*
X0135446Y0147878D01*
X0135581Y0146279D02*
X0153019Y0146279D01*
X0153585Y0144681D02*
X0135015Y0144681D01*
X0132705Y0143082D02*
X0155895Y0143082D01*
X0157705Y0143082D02*
X0198517Y0143082D01*
X0199750Y0141850D02*
X0196850Y0144750D01*
X0196850Y0148850D01*
X0199750Y0151750D01*
X0203850Y0151750D01*
X0206750Y0148850D01*
X0206750Y0144750D01*
X0203850Y0141850D01*
X0199750Y0141850D01*
X0199750Y0141750D02*
X0196850Y0138850D01*
X0196850Y0134750D01*
X0199750Y0131850D01*
X0203850Y0131850D01*
X0206750Y0134750D01*
X0206750Y0138850D01*
X0203850Y0141750D01*
X0199750Y0141750D01*
X0199484Y0141484D02*
X0104116Y0141484D01*
X0103850Y0141750D02*
X0099750Y0141750D01*
X0096850Y0138850D01*
X0096850Y0134750D01*
X0099750Y0131850D01*
X0103850Y0131850D01*
X0106750Y0134750D01*
X0106750Y0138850D01*
X0103850Y0141750D01*
X0103850Y0141850D02*
X0106750Y0144750D01*
X0106750Y0148850D01*
X0103850Y0151750D01*
X0099750Y0151750D01*
X0096850Y0148850D01*
X0096850Y0144750D01*
X0099750Y0141850D01*
X0103850Y0141850D01*
X0105083Y0143082D02*
X0130895Y0143082D01*
X0128585Y0144681D02*
X0106681Y0144681D01*
X0106750Y0146279D02*
X0128019Y0146279D01*
X0128154Y0147878D02*
X0106750Y0147878D01*
X0106124Y0149476D02*
X0129129Y0149476D01*
X0106750Y0154750D02*
X0103850Y0151850D01*
X0099750Y0151850D01*
X0096850Y0154750D01*
X0096850Y0158850D01*
X0099750Y0161750D01*
X0103850Y0161750D01*
X0106750Y0158850D01*
X0106750Y0154750D01*
X0106272Y0154272D02*
X0197328Y0154272D01*
X0196850Y0154750D02*
X0199750Y0151850D01*
X0203850Y0151850D01*
X0206750Y0154750D01*
X0206750Y0158850D01*
X0203850Y0161750D01*
X0199750Y0161750D01*
X0196850Y0158850D01*
X0196850Y0154750D01*
X0196850Y0155870D02*
X0106750Y0155870D01*
X0106750Y0157469D02*
X0196850Y0157469D01*
X0197067Y0159068D02*
X0106533Y0159068D01*
X0104934Y0160666D02*
X0198666Y0160666D01*
X0199750Y0161850D02*
X0196850Y0164750D01*
X0196850Y0168850D01*
X0199750Y0171750D01*
X0203850Y0171750D01*
X0206750Y0168850D01*
X0206750Y0164750D01*
X0203850Y0161850D01*
X0199750Y0161850D01*
X0199335Y0162265D02*
X0104265Y0162265D01*
X0103850Y0161850D02*
X0106750Y0164750D01*
X0106750Y0168850D01*
X0103850Y0171750D01*
X0099750Y0171750D01*
X0096850Y0168850D01*
X0096850Y0164750D01*
X0099750Y0161850D01*
X0103850Y0161850D01*
X0105863Y0163863D02*
X0197737Y0163863D01*
X0196850Y0165462D02*
X0192553Y0165462D01*
X0193683Y0167060D02*
X0196850Y0167060D01*
X0196850Y0168659D02*
X0193900Y0168659D01*
X0193386Y0170257D02*
X0198257Y0170257D01*
X0199750Y0171850D02*
X0196850Y0174750D01*
X0196850Y0178850D01*
X0199750Y0181750D01*
X0203850Y0181750D01*
X0206750Y0178850D01*
X0206750Y0174750D01*
X0203850Y0171850D01*
X0199750Y0171850D01*
X0199744Y0171856D02*
X0193100Y0171856D01*
X0193100Y0173454D02*
X0198146Y0173454D01*
X0196850Y0175053D02*
X0193100Y0175053D01*
X0193100Y0176651D02*
X0196850Y0176651D01*
X0196850Y0178250D02*
X0193100Y0178250D01*
X0193100Y0179848D02*
X0197848Y0179848D01*
X0199446Y0181447D02*
X0193100Y0181447D01*
X0193100Y0183045D02*
X0198554Y0183045D01*
X0199750Y0181850D02*
X0196850Y0184750D01*
X0196850Y0188850D01*
X0199750Y0191750D01*
X0203850Y0191750D01*
X0206750Y0188850D01*
X0206750Y0184750D01*
X0203850Y0181850D01*
X0199750Y0181850D01*
X0196956Y0184644D02*
X0193100Y0184644D01*
X0193100Y0186242D02*
X0196850Y0186242D01*
X0196850Y0187841D02*
X0193100Y0187841D01*
X0193100Y0189439D02*
X0197439Y0189439D01*
X0199037Y0191038D02*
X0193100Y0191038D01*
X0193100Y0192636D02*
X0198963Y0192636D01*
X0197365Y0194235D02*
X0194695Y0194235D01*
X0196293Y0195833D02*
X0196850Y0195833D01*
X0204637Y0192636D02*
X0208963Y0192636D01*
X0209750Y0191750D02*
X0206850Y0188850D01*
X0206850Y0184750D01*
X0209750Y0181850D01*
X0213850Y0181850D01*
X0216750Y0184750D01*
X0216750Y0188850D01*
X0213850Y0191750D01*
X0209750Y0191750D01*
X0209037Y0191038D02*
X0204563Y0191038D01*
X0206161Y0189439D02*
X0207439Y0189439D01*
X0206850Y0187841D02*
X0206750Y0187841D01*
X0206750Y0186242D02*
X0206850Y0186242D01*
X0206956Y0184644D02*
X0206644Y0184644D01*
X0205046Y0183045D02*
X0208554Y0183045D01*
X0209750Y0181750D02*
X0206850Y0178850D01*
X0206850Y0174750D01*
X0209750Y0171850D01*
X0213850Y0171850D01*
X0216750Y0174750D01*
X0216750Y0178850D01*
X0213850Y0181750D01*
X0209750Y0181750D01*
X0209446Y0181447D02*
X0204154Y0181447D01*
X0205752Y0179848D02*
X0207848Y0179848D01*
X0206850Y0178250D02*
X0206750Y0178250D01*
X0206750Y0176651D02*
X0206850Y0176651D01*
X0206850Y0175053D02*
X0206750Y0175053D01*
X0205454Y0173454D02*
X0208146Y0173454D01*
X0209744Y0171856D02*
X0203856Y0171856D01*
X0205343Y0170257D02*
X0208257Y0170257D01*
X0206850Y0168850D02*
X0206850Y0164750D01*
X0209750Y0161850D01*
X0213850Y0161850D01*
X0216750Y0164750D01*
X0216750Y0168850D01*
X0213850Y0171750D01*
X0209750Y0171750D01*
X0206850Y0168850D01*
X0206850Y0168659D02*
X0206750Y0168659D01*
X0206750Y0167060D02*
X0206850Y0167060D01*
X0206850Y0165462D02*
X0206750Y0165462D01*
X0205863Y0163863D02*
X0207737Y0163863D01*
X0209335Y0162265D02*
X0204265Y0162265D01*
X0204934Y0160666D02*
X0208666Y0160666D01*
X0209750Y0161750D02*
X0206850Y0158850D01*
X0206850Y0154750D01*
X0209750Y0151850D01*
X0213850Y0151850D01*
X0216750Y0154750D01*
X0216750Y0158850D01*
X0213850Y0161750D01*
X0209750Y0161750D01*
X0207067Y0159068D02*
X0206533Y0159068D01*
X0206750Y0157469D02*
X0206850Y0157469D01*
X0206850Y0155870D02*
X0206750Y0155870D01*
X0206272Y0154272D02*
X0207328Y0154272D01*
X0208926Y0152673D02*
X0204674Y0152673D01*
X0204525Y0151075D02*
X0209075Y0151075D01*
X0209750Y0151750D02*
X0206850Y0148850D01*
X0206850Y0144750D01*
X0209750Y0141850D01*
X0213850Y0141850D01*
X0216750Y0144750D01*
X0216750Y0148850D01*
X0213850Y0151750D01*
X0209750Y0151750D01*
X0207476Y0149476D02*
X0206124Y0149476D01*
X0206750Y0147878D02*
X0206850Y0147878D01*
X0206850Y0146279D02*
X0206750Y0146279D01*
X0206681Y0144681D02*
X0206919Y0144681D01*
X0208517Y0143082D02*
X0205083Y0143082D01*
X0204116Y0141484D02*
X0209484Y0141484D01*
X0209750Y0141750D02*
X0206850Y0138850D01*
X0206850Y0134750D01*
X0209750Y0131850D01*
X0213850Y0131850D01*
X0216750Y0134750D01*
X0216750Y0138850D01*
X0213850Y0141750D01*
X0209750Y0141750D01*
X0207885Y0139885D02*
X0205715Y0139885D01*
X0206750Y0138287D02*
X0206850Y0138287D01*
X0206850Y0136688D02*
X0206750Y0136688D01*
X0206750Y0135090D02*
X0206850Y0135090D01*
X0208108Y0133491D02*
X0205492Y0133491D01*
X0203893Y0131893D02*
X0209707Y0131893D01*
X0209750Y0131750D02*
X0206850Y0128850D01*
X0206850Y0124750D01*
X0209750Y0121850D01*
X0213850Y0121850D01*
X0216750Y0124750D01*
X0216750Y0128850D01*
X0213850Y0131750D01*
X0209750Y0131750D01*
X0208294Y0130294D02*
X0205306Y0130294D01*
X0206750Y0128850D02*
X0203850Y0131750D01*
X0199750Y0131750D01*
X0196850Y0128850D01*
X0196850Y0124750D01*
X0199750Y0121850D01*
X0203850Y0121850D01*
X0206750Y0124750D01*
X0206750Y0128850D01*
X0206750Y0128696D02*
X0206850Y0128696D01*
X0206850Y0127097D02*
X0206750Y0127097D01*
X0206750Y0125499D02*
X0206850Y0125499D01*
X0207699Y0123900D02*
X0205901Y0123900D01*
X0204302Y0122302D02*
X0209298Y0122302D01*
X0209750Y0121750D02*
X0206850Y0118850D01*
X0206850Y0114750D01*
X0209750Y0111850D01*
X0213850Y0111850D01*
X0216750Y0114750D01*
X0216750Y0118850D01*
X0213850Y0121750D01*
X0209750Y0121750D01*
X0208703Y0120703D02*
X0204897Y0120703D01*
X0206496Y0119105D02*
X0207104Y0119105D01*
X0206850Y0117506D02*
X0206750Y0117506D01*
X0206750Y0115908D02*
X0206850Y0115908D01*
X0207290Y0114309D02*
X0206310Y0114309D01*
X0204711Y0112711D02*
X0208889Y0112711D01*
X0209750Y0111750D02*
X0206850Y0108850D01*
X0206850Y0104750D01*
X0209750Y0101850D01*
X0213850Y0101850D01*
X0216750Y0104750D01*
X0216750Y0108850D01*
X0213850Y0111750D01*
X0209750Y0111750D01*
X0209112Y0111112D02*
X0204488Y0111112D01*
X0206087Y0109514D02*
X0207513Y0109514D01*
X0206850Y0107915D02*
X0206750Y0107915D01*
X0206750Y0106317D02*
X0206850Y0106317D01*
X0206882Y0104718D02*
X0206718Y0104718D01*
X0205120Y0103120D02*
X0208480Y0103120D01*
X0215120Y0103120D02*
X0218480Y0103120D01*
X0219750Y0101850D02*
X0223850Y0101850D01*
X0226750Y0104750D01*
X0226750Y0108850D01*
X0223850Y0111750D01*
X0219750Y0111750D01*
X0216850Y0108850D01*
X0216850Y0104750D01*
X0219750Y0101850D01*
X0216882Y0104718D02*
X0216718Y0104718D01*
X0216750Y0106317D02*
X0216850Y0106317D01*
X0216850Y0107915D02*
X0216750Y0107915D01*
X0216087Y0109514D02*
X0217513Y0109514D01*
X0219112Y0111112D02*
X0214488Y0111112D01*
X0214711Y0112711D02*
X0218889Y0112711D01*
X0219750Y0111850D02*
X0223850Y0111850D01*
X0226750Y0114750D01*
X0226750Y0118850D01*
X0223850Y0121750D01*
X0219750Y0121750D01*
X0216850Y0118850D01*
X0216850Y0114750D01*
X0219750Y0111850D01*
X0217290Y0114309D02*
X0216310Y0114309D01*
X0216750Y0115908D02*
X0216850Y0115908D01*
X0216850Y0117506D02*
X0216750Y0117506D01*
X0216496Y0119105D02*
X0217104Y0119105D01*
X0218703Y0120703D02*
X0214897Y0120703D01*
X0214302Y0122302D02*
X0219298Y0122302D01*
X0219750Y0121850D02*
X0223850Y0121850D01*
X0226750Y0124750D01*
X0226750Y0128850D01*
X0223850Y0131750D01*
X0219750Y0131750D01*
X0216850Y0128850D01*
X0216850Y0124750D01*
X0219750Y0121850D01*
X0217699Y0123900D02*
X0215901Y0123900D01*
X0216750Y0125499D02*
X0216850Y0125499D01*
X0216850Y0127097D02*
X0216750Y0127097D01*
X0216750Y0128696D02*
X0216850Y0128696D01*
X0218294Y0130294D02*
X0215306Y0130294D01*
X0213893Y0131893D02*
X0219707Y0131893D01*
X0219750Y0131850D02*
X0223850Y0131850D01*
X0226750Y0134750D01*
X0226750Y0138850D01*
X0223850Y0141750D01*
X0219750Y0141750D01*
X0216850Y0138850D01*
X0216850Y0134750D01*
X0219750Y0131850D01*
X0218108Y0133491D02*
X0215492Y0133491D01*
X0216750Y0135090D02*
X0216850Y0135090D01*
X0216850Y0136688D02*
X0216750Y0136688D01*
X0216750Y0138287D02*
X0216850Y0138287D01*
X0217885Y0139885D02*
X0215715Y0139885D01*
X0214116Y0141484D02*
X0219484Y0141484D01*
X0219750Y0141850D02*
X0223850Y0141850D01*
X0226750Y0144750D01*
X0226750Y0148850D01*
X0223850Y0151750D01*
X0219750Y0151750D01*
X0216850Y0148850D01*
X0216850Y0144750D01*
X0219750Y0141850D01*
X0218517Y0143082D02*
X0215083Y0143082D01*
X0216681Y0144681D02*
X0216919Y0144681D01*
X0216850Y0146279D02*
X0216750Y0146279D01*
X0216750Y0147878D02*
X0216850Y0147878D01*
X0217476Y0149476D02*
X0216124Y0149476D01*
X0214525Y0151075D02*
X0219075Y0151075D01*
X0219750Y0151850D02*
X0223850Y0151850D01*
X0226750Y0154750D01*
X0226750Y0158850D01*
X0223850Y0161750D01*
X0219750Y0161750D01*
X0216850Y0158850D01*
X0216850Y0154750D01*
X0219750Y0151850D01*
X0218926Y0152673D02*
X0214674Y0152673D01*
X0216272Y0154272D02*
X0217328Y0154272D01*
X0216850Y0155870D02*
X0216750Y0155870D01*
X0216750Y0157469D02*
X0216850Y0157469D01*
X0217067Y0159068D02*
X0216533Y0159068D01*
X0214934Y0160666D02*
X0218666Y0160666D01*
X0219750Y0161850D02*
X0216850Y0164750D01*
X0216850Y0168850D01*
X0219750Y0171750D01*
X0223850Y0171750D01*
X0226750Y0168850D01*
X0226750Y0164750D01*
X0223850Y0161850D01*
X0219750Y0161850D01*
X0219335Y0162265D02*
X0214265Y0162265D01*
X0215863Y0163863D02*
X0217737Y0163863D01*
X0216850Y0165462D02*
X0216750Y0165462D01*
X0216750Y0167060D02*
X0216850Y0167060D01*
X0216850Y0168659D02*
X0216750Y0168659D01*
X0215343Y0170257D02*
X0218257Y0170257D01*
X0219750Y0171850D02*
X0223850Y0171850D01*
X0226750Y0174750D01*
X0226750Y0178850D01*
X0223850Y0181750D01*
X0219750Y0181750D01*
X0216850Y0178850D01*
X0216850Y0174750D01*
X0219750Y0171850D01*
X0219744Y0171856D02*
X0213856Y0171856D01*
X0215454Y0173454D02*
X0218146Y0173454D01*
X0216850Y0175053D02*
X0216750Y0175053D01*
X0216750Y0176651D02*
X0216850Y0176651D01*
X0216850Y0178250D02*
X0216750Y0178250D01*
X0215752Y0179848D02*
X0217848Y0179848D01*
X0219446Y0181447D02*
X0214154Y0181447D01*
X0215046Y0183045D02*
X0218554Y0183045D01*
X0219750Y0181850D02*
X0223850Y0181850D01*
X0226750Y0184750D01*
X0226750Y0188850D01*
X0223850Y0191750D01*
X0219750Y0191750D01*
X0216850Y0188850D01*
X0216850Y0184750D01*
X0219750Y0181850D01*
X0216956Y0184644D02*
X0216644Y0184644D01*
X0216750Y0186242D02*
X0216850Y0186242D01*
X0216850Y0187841D02*
X0216750Y0187841D01*
X0216161Y0189439D02*
X0217439Y0189439D01*
X0219037Y0191038D02*
X0214563Y0191038D01*
X0214637Y0192636D02*
X0218963Y0192636D01*
X0217365Y0194235D02*
X0216235Y0194235D01*
X0216750Y0195833D02*
X0216850Y0195833D01*
X0216850Y0197432D02*
X0216750Y0197432D01*
X0216570Y0199030D02*
X0217030Y0199030D01*
X0224637Y0192636D02*
X0228963Y0192636D01*
X0229750Y0191750D02*
X0226850Y0188850D01*
X0226850Y0184750D01*
X0229750Y0181850D01*
X0233850Y0181850D01*
X0236750Y0184750D01*
X0236750Y0188850D01*
X0233850Y0191750D01*
X0229750Y0191750D01*
X0229037Y0191038D02*
X0224563Y0191038D01*
X0226161Y0189439D02*
X0227439Y0189439D01*
X0226850Y0187841D02*
X0226750Y0187841D01*
X0226750Y0186242D02*
X0226850Y0186242D01*
X0226956Y0184644D02*
X0226644Y0184644D01*
X0225046Y0183045D02*
X0228554Y0183045D01*
X0229750Y0181750D02*
X0226850Y0178850D01*
X0226850Y0174750D01*
X0229750Y0171850D01*
X0233850Y0171850D01*
X0236750Y0174750D01*
X0236750Y0178850D01*
X0233850Y0181750D01*
X0229750Y0181750D01*
X0229446Y0181447D02*
X0224154Y0181447D01*
X0225752Y0179848D02*
X0227848Y0179848D01*
X0226850Y0178250D02*
X0226750Y0178250D01*
X0226750Y0176651D02*
X0226850Y0176651D01*
X0226850Y0175053D02*
X0226750Y0175053D01*
X0225454Y0173454D02*
X0228146Y0173454D01*
X0229744Y0171856D02*
X0223856Y0171856D01*
X0225343Y0170257D02*
X0228257Y0170257D01*
X0226850Y0168850D02*
X0226850Y0164750D01*
X0229750Y0161850D01*
X0233850Y0161850D01*
X0236750Y0164750D01*
X0236750Y0168850D01*
X0233850Y0171750D01*
X0229750Y0171750D01*
X0226850Y0168850D01*
X0226850Y0168659D02*
X0226750Y0168659D01*
X0226750Y0167060D02*
X0226850Y0167060D01*
X0226850Y0165462D02*
X0226750Y0165462D01*
X0225863Y0163863D02*
X0227737Y0163863D01*
X0229335Y0162265D02*
X0224265Y0162265D01*
X0224934Y0160666D02*
X0228666Y0160666D01*
X0229750Y0161750D02*
X0226850Y0158850D01*
X0226850Y0154750D01*
X0229750Y0151850D01*
X0233850Y0151850D01*
X0236750Y0154750D01*
X0236750Y0158850D01*
X0233850Y0161750D01*
X0229750Y0161750D01*
X0227067Y0159068D02*
X0226533Y0159068D01*
X0226750Y0157469D02*
X0226850Y0157469D01*
X0226850Y0155870D02*
X0226750Y0155870D01*
X0226272Y0154272D02*
X0227328Y0154272D01*
X0228926Y0152673D02*
X0224674Y0152673D01*
X0224525Y0151075D02*
X0229075Y0151075D01*
X0229750Y0151750D02*
X0226850Y0148850D01*
X0226850Y0144750D01*
X0229750Y0141850D01*
X0233850Y0141850D01*
X0236750Y0144750D01*
X0236750Y0148850D01*
X0233850Y0151750D01*
X0229750Y0151750D01*
X0227476Y0149476D02*
X0226124Y0149476D01*
X0226750Y0147878D02*
X0226850Y0147878D01*
X0226850Y0146279D02*
X0226750Y0146279D01*
X0226681Y0144681D02*
X0226919Y0144681D01*
X0228517Y0143082D02*
X0225083Y0143082D01*
X0224116Y0141484D02*
X0229484Y0141484D01*
X0229750Y0141750D02*
X0226850Y0138850D01*
X0226850Y0134750D01*
X0229750Y0131850D01*
X0233850Y0131850D01*
X0236750Y0134750D01*
X0236750Y0138850D01*
X0233850Y0141750D01*
X0229750Y0141750D01*
X0227885Y0139885D02*
X0225715Y0139885D01*
X0226750Y0138287D02*
X0226850Y0138287D01*
X0226850Y0136688D02*
X0226750Y0136688D01*
X0226750Y0135090D02*
X0226850Y0135090D01*
X0228108Y0133491D02*
X0225492Y0133491D01*
X0223893Y0131893D02*
X0229707Y0131893D01*
X0229750Y0131750D02*
X0226850Y0128850D01*
X0226850Y0124750D01*
X0229750Y0121850D01*
X0233850Y0121850D01*
X0236750Y0124750D01*
X0236750Y0128850D01*
X0233850Y0131750D01*
X0229750Y0131750D01*
X0228294Y0130294D02*
X0225306Y0130294D01*
X0226750Y0128696D02*
X0226850Y0128696D01*
X0226850Y0127097D02*
X0226750Y0127097D01*
X0226750Y0125499D02*
X0226850Y0125499D01*
X0227699Y0123900D02*
X0225901Y0123900D01*
X0224302Y0122302D02*
X0229298Y0122302D01*
X0229750Y0121750D02*
X0226850Y0118850D01*
X0226850Y0114750D01*
X0229750Y0111850D01*
X0233850Y0111850D01*
X0236750Y0114750D01*
X0236750Y0118850D01*
X0233850Y0121750D01*
X0229750Y0121750D01*
X0228703Y0120703D02*
X0224897Y0120703D01*
X0226496Y0119105D02*
X0227104Y0119105D01*
X0226850Y0117506D02*
X0226750Y0117506D01*
X0226750Y0115908D02*
X0226850Y0115908D01*
X0227290Y0114309D02*
X0226310Y0114309D01*
X0224711Y0112711D02*
X0228889Y0112711D01*
X0229750Y0111750D02*
X0226850Y0108850D01*
X0226850Y0104750D01*
X0229750Y0101850D01*
X0233850Y0101850D01*
X0236750Y0104750D01*
X0236750Y0108850D01*
X0233850Y0111750D01*
X0229750Y0111750D01*
X0229112Y0111112D02*
X0224488Y0111112D01*
X0226087Y0109514D02*
X0227513Y0109514D01*
X0226850Y0107915D02*
X0226750Y0107915D01*
X0226750Y0106317D02*
X0226850Y0106317D01*
X0226882Y0104718D02*
X0226718Y0104718D01*
X0225120Y0103120D02*
X0228480Y0103120D01*
X0234488Y0111112D02*
X0239112Y0111112D01*
X0239750Y0111750D02*
X0236850Y0108850D01*
X0236850Y0104750D01*
X0239750Y0101850D01*
X0243850Y0101850D01*
X0246750Y0104750D01*
X0246750Y0108850D01*
X0243850Y0111750D01*
X0239750Y0111750D01*
X0239750Y0111850D02*
X0243850Y0111850D01*
X0246750Y0114750D01*
X0246750Y0118850D01*
X0243850Y0121750D01*
X0239750Y0121750D01*
X0236850Y0118850D01*
X0236850Y0114750D01*
X0239750Y0111850D01*
X0238889Y0112711D02*
X0234711Y0112711D01*
X0236310Y0114309D02*
X0237290Y0114309D01*
X0236850Y0115908D02*
X0236750Y0115908D01*
X0236750Y0117506D02*
X0236850Y0117506D01*
X0237104Y0119105D02*
X0236496Y0119105D01*
X0234897Y0120703D02*
X0238703Y0120703D01*
X0239750Y0121850D02*
X0243850Y0121850D01*
X0246750Y0124750D01*
X0246750Y0128850D01*
X0243850Y0131750D01*
X0239750Y0131750D01*
X0236850Y0128850D01*
X0236850Y0124750D01*
X0239750Y0121850D01*
X0239298Y0122302D02*
X0234302Y0122302D01*
X0235901Y0123900D02*
X0237699Y0123900D01*
X0236850Y0125499D02*
X0236750Y0125499D01*
X0236750Y0127097D02*
X0236850Y0127097D01*
X0236850Y0128696D02*
X0236750Y0128696D01*
X0235306Y0130294D02*
X0238294Y0130294D01*
X0239750Y0131850D02*
X0243850Y0131850D01*
X0246750Y0134750D01*
X0246750Y0138850D01*
X0243850Y0141750D01*
X0239750Y0141750D01*
X0236850Y0138850D01*
X0236850Y0134750D01*
X0239750Y0131850D01*
X0239707Y0131893D02*
X0233893Y0131893D01*
X0235492Y0133491D02*
X0238108Y0133491D01*
X0236850Y0135090D02*
X0236750Y0135090D01*
X0236750Y0136688D02*
X0236850Y0136688D01*
X0236850Y0138287D02*
X0236750Y0138287D01*
X0235715Y0139885D02*
X0237885Y0139885D01*
X0239484Y0141484D02*
X0234116Y0141484D01*
X0235083Y0143082D02*
X0238517Y0143082D01*
X0239750Y0141850D02*
X0243850Y0141850D01*
X0246750Y0144750D01*
X0246750Y0148850D01*
X0243850Y0151750D01*
X0239750Y0151750D01*
X0236850Y0148850D01*
X0236850Y0144750D01*
X0239750Y0141850D01*
X0236919Y0144681D02*
X0236681Y0144681D01*
X0236750Y0146279D02*
X0236850Y0146279D01*
X0236850Y0147878D02*
X0236750Y0147878D01*
X0236124Y0149476D02*
X0237476Y0149476D01*
X0239075Y0151075D02*
X0234525Y0151075D01*
X0234674Y0152673D02*
X0238926Y0152673D01*
X0239750Y0151850D02*
X0243850Y0151850D01*
X0246750Y0154750D01*
X0246750Y0158850D01*
X0243850Y0161750D01*
X0239750Y0161750D01*
X0236850Y0158850D01*
X0236850Y0154750D01*
X0239750Y0151850D01*
X0237328Y0154272D02*
X0236272Y0154272D01*
X0236750Y0155870D02*
X0236850Y0155870D01*
X0236850Y0157469D02*
X0236750Y0157469D01*
X0236533Y0159068D02*
X0237067Y0159068D01*
X0238666Y0160666D02*
X0234934Y0160666D01*
X0234265Y0162265D02*
X0239335Y0162265D01*
X0239750Y0161850D02*
X0243850Y0161850D01*
X0246750Y0164750D01*
X0246750Y0168850D01*
X0243850Y0171750D01*
X0239750Y0171750D01*
X0236850Y0168850D01*
X0236850Y0164750D01*
X0239750Y0161850D01*
X0237737Y0163863D02*
X0235863Y0163863D01*
X0236750Y0165462D02*
X0236850Y0165462D01*
X0236850Y0167060D02*
X0236750Y0167060D01*
X0236750Y0168659D02*
X0236850Y0168659D01*
X0238257Y0170257D02*
X0235343Y0170257D01*
X0233856Y0171856D02*
X0239744Y0171856D01*
X0239750Y0171850D02*
X0243850Y0171850D01*
X0246750Y0174750D01*
X0246750Y0178850D01*
X0243850Y0181750D01*
X0239750Y0181750D01*
X0236850Y0178850D01*
X0236850Y0174750D01*
X0239750Y0171850D01*
X0238146Y0173454D02*
X0235454Y0173454D01*
X0236750Y0175053D02*
X0236850Y0175053D01*
X0236850Y0176651D02*
X0236750Y0176651D01*
X0236750Y0178250D02*
X0236850Y0178250D01*
X0237848Y0179848D02*
X0235752Y0179848D01*
X0234154Y0181447D02*
X0239446Y0181447D01*
X0239750Y0181850D02*
X0243850Y0181850D01*
X0246750Y0184750D01*
X0246750Y0188850D01*
X0243850Y0191750D01*
X0239750Y0191750D01*
X0236850Y0188850D01*
X0236850Y0184750D01*
X0239750Y0181850D01*
X0238554Y0183045D02*
X0235046Y0183045D01*
X0236644Y0184644D02*
X0236956Y0184644D01*
X0236850Y0186242D02*
X0236750Y0186242D01*
X0236750Y0187841D02*
X0236850Y0187841D01*
X0237439Y0189439D02*
X0236161Y0189439D01*
X0234563Y0191038D02*
X0239037Y0191038D01*
X0238963Y0192636D02*
X0234637Y0192636D01*
X0236235Y0194235D02*
X0237365Y0194235D01*
X0236850Y0195833D02*
X0236750Y0195833D01*
X0236750Y0197432D02*
X0236850Y0197432D01*
X0237030Y0199030D02*
X0236570Y0199030D01*
X0227030Y0199030D02*
X0226570Y0199030D01*
X0226750Y0197432D02*
X0226850Y0197432D01*
X0226850Y0195833D02*
X0226750Y0195833D01*
X0226235Y0194235D02*
X0227365Y0194235D01*
X0244637Y0192636D02*
X0248963Y0192636D01*
X0249750Y0191750D02*
X0246850Y0188850D01*
X0246850Y0184750D01*
X0249750Y0181850D01*
X0253850Y0181850D01*
X0256750Y0184750D01*
X0256750Y0188850D01*
X0253850Y0191750D01*
X0249750Y0191750D01*
X0249037Y0191038D02*
X0244563Y0191038D01*
X0246161Y0189439D02*
X0247439Y0189439D01*
X0246850Y0187841D02*
X0246750Y0187841D01*
X0246750Y0186242D02*
X0246850Y0186242D01*
X0246956Y0184644D02*
X0246644Y0184644D01*
X0245046Y0183045D02*
X0248554Y0183045D01*
X0249750Y0181750D02*
X0246850Y0178850D01*
X0246850Y0174750D01*
X0249750Y0171850D01*
X0253850Y0171850D01*
X0256750Y0174750D01*
X0256750Y0178850D01*
X0253850Y0181750D01*
X0249750Y0181750D01*
X0249446Y0181447D02*
X0244154Y0181447D01*
X0245752Y0179848D02*
X0247848Y0179848D01*
X0246850Y0178250D02*
X0246750Y0178250D01*
X0246750Y0176651D02*
X0246850Y0176651D01*
X0246850Y0175053D02*
X0246750Y0175053D01*
X0245454Y0173454D02*
X0248146Y0173454D01*
X0249744Y0171856D02*
X0243856Y0171856D01*
X0245343Y0170257D02*
X0248257Y0170257D01*
X0246850Y0168850D02*
X0246850Y0164750D01*
X0249750Y0161850D01*
X0253850Y0161850D01*
X0256750Y0164750D01*
X0256750Y0168850D01*
X0253850Y0171750D01*
X0249750Y0171750D01*
X0246850Y0168850D01*
X0246850Y0168659D02*
X0246750Y0168659D01*
X0246750Y0167060D02*
X0246850Y0167060D01*
X0246850Y0165462D02*
X0246750Y0165462D01*
X0245863Y0163863D02*
X0247737Y0163863D01*
X0249335Y0162265D02*
X0244265Y0162265D01*
X0244934Y0160666D02*
X0248666Y0160666D01*
X0249750Y0161750D02*
X0246850Y0158850D01*
X0246850Y0154750D01*
X0249750Y0151850D01*
X0253850Y0151850D01*
X0256750Y0154750D01*
X0256750Y0158850D01*
X0253850Y0161750D01*
X0249750Y0161750D01*
X0247067Y0159068D02*
X0246533Y0159068D01*
X0246750Y0157469D02*
X0246850Y0157469D01*
X0246850Y0155870D02*
X0246750Y0155870D01*
X0246272Y0154272D02*
X0247328Y0154272D01*
X0248926Y0152673D02*
X0244674Y0152673D01*
X0244525Y0151075D02*
X0249075Y0151075D01*
X0249750Y0151750D02*
X0246850Y0148850D01*
X0246850Y0144750D01*
X0249750Y0141850D01*
X0253850Y0141850D01*
X0256750Y0144750D01*
X0256750Y0148850D01*
X0253850Y0151750D01*
X0249750Y0151750D01*
X0247476Y0149476D02*
X0246124Y0149476D01*
X0246750Y0147878D02*
X0246850Y0147878D01*
X0246850Y0146279D02*
X0246750Y0146279D01*
X0246681Y0144681D02*
X0246919Y0144681D01*
X0248517Y0143082D02*
X0245083Y0143082D01*
X0244116Y0141484D02*
X0249484Y0141484D01*
X0249750Y0141750D02*
X0246850Y0138850D01*
X0246850Y0134750D01*
X0249750Y0131850D01*
X0253850Y0131850D01*
X0256750Y0134750D01*
X0256750Y0138850D01*
X0253850Y0141750D01*
X0249750Y0141750D01*
X0247885Y0139885D02*
X0245715Y0139885D01*
X0246750Y0138287D02*
X0246850Y0138287D01*
X0246850Y0136688D02*
X0246750Y0136688D01*
X0246750Y0135090D02*
X0246850Y0135090D01*
X0248108Y0133491D02*
X0245492Y0133491D01*
X0243893Y0131893D02*
X0249707Y0131893D01*
X0249750Y0131750D02*
X0246850Y0128850D01*
X0246850Y0124750D01*
X0249750Y0121850D01*
X0253850Y0121850D01*
X0256750Y0124750D01*
X0256750Y0128850D01*
X0253850Y0131750D01*
X0249750Y0131750D01*
X0248294Y0130294D02*
X0245306Y0130294D01*
X0246750Y0128696D02*
X0246850Y0128696D01*
X0246850Y0127097D02*
X0246750Y0127097D01*
X0246750Y0125499D02*
X0246850Y0125499D01*
X0247699Y0123900D02*
X0245901Y0123900D01*
X0244302Y0122302D02*
X0249298Y0122302D01*
X0249750Y0121750D02*
X0246850Y0118850D01*
X0246850Y0114750D01*
X0249750Y0111850D01*
X0253850Y0111850D01*
X0256750Y0114750D01*
X0256750Y0118850D01*
X0253850Y0121750D01*
X0249750Y0121750D01*
X0248703Y0120703D02*
X0244897Y0120703D01*
X0246496Y0119105D02*
X0247104Y0119105D01*
X0246850Y0117506D02*
X0246750Y0117506D01*
X0246750Y0115908D02*
X0246850Y0115908D01*
X0247290Y0114309D02*
X0246310Y0114309D01*
X0244711Y0112711D02*
X0248889Y0112711D01*
X0249750Y0111750D02*
X0246850Y0108850D01*
X0246850Y0104750D01*
X0249750Y0101850D01*
X0253850Y0101850D01*
X0256750Y0104750D01*
X0256750Y0108850D01*
X0253850Y0111750D01*
X0249750Y0111750D01*
X0249112Y0111112D02*
X0244488Y0111112D01*
X0246087Y0109514D02*
X0247513Y0109514D01*
X0246850Y0107915D02*
X0246750Y0107915D01*
X0246750Y0106317D02*
X0246850Y0106317D01*
X0246882Y0104718D02*
X0246718Y0104718D01*
X0245120Y0103120D02*
X0248480Y0103120D01*
X0255120Y0103120D02*
X0258480Y0103120D01*
X0259750Y0101850D02*
X0263850Y0101850D01*
X0266750Y0104750D01*
X0266750Y0108850D01*
X0263850Y0111750D01*
X0259750Y0111750D01*
X0256850Y0108850D01*
X0256850Y0104750D01*
X0259750Y0101850D01*
X0259750Y0101750D02*
X0256850Y0098850D01*
X0256850Y0094750D01*
X0259750Y0091850D01*
X0263850Y0091850D01*
X0266750Y0094750D01*
X0266750Y0098850D01*
X0263850Y0101750D01*
X0259750Y0101750D01*
X0259521Y0101521D02*
X0184490Y0101521D01*
X0184490Y0099923D02*
X0257922Y0099923D01*
X0256850Y0098324D02*
X0184490Y0098324D01*
X0184490Y0096726D02*
X0256850Y0096726D01*
X0256850Y0095127D02*
X0184490Y0095127D01*
X0184490Y0093529D02*
X0258071Y0093529D01*
X0259670Y0091930D02*
X0184490Y0091930D01*
X0184490Y0090332D02*
X0220445Y0090332D01*
X0221048Y0090581D02*
X0219658Y0090005D01*
X0218595Y0088942D01*
X0218019Y0087552D01*
X0218019Y0086048D01*
X0218595Y0084658D01*
X0219658Y0083595D01*
X0221048Y0083019D01*
X0222552Y0083019D01*
X0223942Y0083595D01*
X0225005Y0084658D01*
X0225581Y0086048D01*
X0225581Y0087552D01*
X0225005Y0088942D01*
X0223942Y0090005D01*
X0222552Y0090581D01*
X0221048Y0090581D01*
X0223155Y0090332D02*
X0255339Y0090332D01*
X0252356Y0088733D02*
X0225092Y0088733D01*
X0225581Y0087134D02*
X0250628Y0087134D01*
X0249309Y0085536D02*
X0225369Y0085536D01*
X0224285Y0083937D02*
X0248386Y0083937D01*
X0247762Y0082339D02*
X0184490Y0082339D01*
X0184490Y0083937D02*
X0219315Y0083937D01*
X0218231Y0085536D02*
X0184490Y0085536D01*
X0184490Y0087134D02*
X0218019Y0087134D01*
X0218508Y0088733D02*
X0184490Y0088733D01*
X0184490Y0080740D02*
X0247334Y0080740D01*
X0247157Y0079142D02*
X0184490Y0079142D01*
X0184490Y0077543D02*
X0247157Y0077543D01*
X0247372Y0075945D02*
X0055834Y0075945D01*
X0056049Y0077543D02*
X0117890Y0077543D01*
X0117890Y0079142D02*
X0056049Y0079142D01*
X0055873Y0080740D02*
X0117890Y0080740D01*
X0117890Y0082339D02*
X0104339Y0082339D01*
X0103850Y0081850D02*
X0106750Y0084750D01*
X0106750Y0088850D01*
X0103850Y0091750D01*
X0099750Y0091750D01*
X0096850Y0088850D01*
X0096850Y0084750D01*
X0099750Y0081850D01*
X0103850Y0081850D01*
X0105938Y0083937D02*
X0117890Y0083937D01*
X0117890Y0085536D02*
X0106750Y0085536D01*
X0106750Y0087134D02*
X0117890Y0087134D01*
X0117890Y0088733D02*
X0106750Y0088733D01*
X0105269Y0090332D02*
X0117890Y0090332D01*
X0117890Y0091930D02*
X0085581Y0091930D01*
X0085581Y0092552D02*
X0085005Y0093942D01*
X0083942Y0095005D01*
X0082552Y0095581D01*
X0081048Y0095581D01*
X0079658Y0095005D01*
X0078595Y0093942D01*
X0078019Y0092552D01*
X0078019Y0091048D01*
X0078595Y0089658D01*
X0079658Y0088595D01*
X0081048Y0088019D01*
X0082552Y0088019D01*
X0083942Y0088595D01*
X0085005Y0089658D01*
X0085581Y0091048D01*
X0085581Y0092552D01*
X0085177Y0093529D02*
X0117890Y0093529D01*
X0117890Y0095127D02*
X0083648Y0095127D01*
X0079952Y0095127D02*
X0046750Y0095127D01*
X0046750Y0096726D02*
X0117890Y0096726D01*
X0117890Y0098324D02*
X0046750Y0098324D01*
X0045678Y0099923D02*
X0117890Y0099923D01*
X0117890Y0101521D02*
X0044079Y0101521D01*
X0045529Y0093529D02*
X0078423Y0093529D01*
X0078019Y0091930D02*
X0043930Y0091930D01*
X0039670Y0091930D02*
X0033930Y0091930D01*
X0035529Y0093529D02*
X0038071Y0093529D01*
X0036850Y0095127D02*
X0036750Y0095127D01*
X0038882Y0090332D02*
X0028135Y0090332D01*
X0028135Y0088733D02*
X0035900Y0088733D01*
X0034171Y0087134D02*
X0028135Y0087134D01*
X0028135Y0085536D02*
X0032852Y0085536D01*
X0031929Y0083937D02*
X0028135Y0083937D01*
X0028135Y0082339D02*
X0031305Y0082339D01*
X0030877Y0080740D02*
X0028135Y0080740D01*
X0028135Y0079142D02*
X0028795Y0079142D01*
X0031700Y0098324D02*
X0031900Y0098324D01*
X0031900Y0099923D02*
X0031700Y0099923D01*
X0031700Y0101521D02*
X0031900Y0101521D01*
X0031900Y0103120D02*
X0031700Y0103120D01*
X0031700Y0104718D02*
X0031900Y0104718D01*
X0031900Y0106317D02*
X0031700Y0106317D01*
X0031700Y0107915D02*
X0031900Y0107915D01*
X0031900Y0109514D02*
X0031700Y0109514D01*
X0031700Y0111112D02*
X0031900Y0111112D01*
X0031900Y0112711D02*
X0031700Y0112711D01*
X0031700Y0114309D02*
X0031900Y0114309D01*
X0031900Y0115908D02*
X0031700Y0115908D01*
X0031700Y0117506D02*
X0031900Y0117506D01*
X0031900Y0119105D02*
X0031700Y0119105D01*
X0031700Y0120703D02*
X0031900Y0120703D01*
X0031900Y0122302D02*
X0031700Y0122302D01*
X0031700Y0123900D02*
X0031900Y0123900D01*
X0031900Y0125499D02*
X0031700Y0125499D01*
X0031700Y0127097D02*
X0031900Y0127097D01*
X0031900Y0128696D02*
X0031700Y0128696D01*
X0031700Y0130294D02*
X0031900Y0130294D01*
X0029707Y0131893D02*
X0028135Y0131893D01*
X0028135Y0130294D02*
X0028294Y0130294D01*
X0028135Y0122302D02*
X0029298Y0122302D01*
X0028703Y0120703D02*
X0028135Y0120703D01*
X0028135Y0112711D02*
X0028889Y0112711D01*
X0029112Y0111112D02*
X0028135Y0111112D01*
X0028135Y0103120D02*
X0028480Y0103120D01*
X0028135Y0101521D02*
X0029521Y0101521D01*
X0047867Y0090332D02*
X0078316Y0090332D01*
X0079520Y0088733D02*
X0050850Y0088733D01*
X0052578Y0087134D02*
X0096850Y0087134D01*
X0096850Y0085536D02*
X0053898Y0085536D01*
X0054821Y0083937D02*
X0097662Y0083937D01*
X0099261Y0082339D02*
X0055444Y0082339D01*
X0055406Y0074346D02*
X0247800Y0074346D01*
X0248468Y0072748D02*
X0165312Y0072748D01*
X0165674Y0072386D02*
X0164886Y0073174D01*
X0163857Y0073600D01*
X0104243Y0073600D01*
X0103214Y0073174D01*
X0100136Y0070096D01*
X0093651Y0070096D01*
X0091542Y0069223D01*
X0089929Y0067609D01*
X0089055Y0065500D01*
X0089055Y0063218D01*
X0089929Y0061109D01*
X0091542Y0059495D01*
X0093651Y0058622D01*
X0103807Y0058622D01*
X0105916Y0059495D01*
X0107530Y0061109D01*
X0108403Y0063218D01*
X0108403Y0065500D01*
X0107530Y0067609D01*
X0107139Y0068000D01*
X0162140Y0068000D01*
X0179714Y0050426D01*
X0180743Y0050000D01*
X0188843Y0050000D01*
X0189327Y0048832D01*
X0190761Y0047398D01*
X0192456Y0046696D01*
X0191693Y0046448D01*
X0190977Y0046083D01*
X0190328Y0045611D01*
X0189760Y0045044D01*
X0189288Y0044394D01*
X0188924Y0043679D01*
X0188676Y0042916D01*
X0188550Y0042123D01*
X0188550Y0041906D01*
X0193466Y0041906D01*
X0193466Y0041537D01*
X0188550Y0041537D01*
X0188550Y0041320D01*
X0188676Y0040527D01*
X0188924Y0039764D01*
X0189288Y0039048D01*
X0189760Y0038399D01*
X0190328Y0037831D01*
X0190977Y0037359D01*
X0191693Y0036995D01*
X0192456Y0036747D01*
X0192456Y0036747D01*
X0190761Y0036045D01*
X0189327Y0034610D01*
X0188550Y0032736D01*
X0188550Y0030707D01*
X0189327Y0028832D01*
X0190761Y0027398D01*
X0192636Y0026621D01*
X0194665Y0026621D01*
X0196539Y0027398D01*
X0197974Y0028832D01*
X0198750Y0030707D01*
X0198750Y0032736D01*
X0197974Y0034610D01*
X0196539Y0036045D01*
X0194845Y0036747D01*
X0194845Y0036747D01*
X0195608Y0036995D01*
X0196323Y0037359D01*
X0196973Y0037831D01*
X0197540Y0038399D01*
X0198012Y0039048D01*
X0198377Y0039764D01*
X0198625Y0040527D01*
X0198750Y0041320D01*
X0198750Y0041537D01*
X0193835Y0041537D01*
X0193835Y0041906D01*
X0198750Y0041906D01*
X0198750Y0042123D01*
X0198625Y0042916D01*
X0198377Y0043679D01*
X0198012Y0044394D01*
X0197540Y0045044D01*
X0196973Y0045611D01*
X0196323Y0046083D01*
X0195608Y0046448D01*
X0194845Y0046696D01*
X0194845Y0046696D01*
X0196539Y0047398D01*
X0197974Y0048832D01*
X0198750Y0050707D01*
X0198750Y0052736D01*
X0197974Y0054610D01*
X0196539Y0056045D01*
X0194665Y0056821D01*
X0192636Y0056821D01*
X0190761Y0056045D01*
X0190317Y0055600D01*
X0182460Y0055600D01*
X0165674Y0072386D01*
X0166910Y0071149D02*
X0249391Y0071149D01*
X0250771Y0069551D02*
X0168509Y0069551D01*
X0170107Y0067952D02*
X0248947Y0067952D01*
X0245671Y0066354D02*
X0171706Y0066354D01*
X0173304Y0064755D02*
X0242585Y0064755D01*
X0240680Y0063157D02*
X0174903Y0063157D01*
X0176501Y0061558D02*
X0238785Y0061558D01*
X0237072Y0059960D02*
X0178100Y0059960D01*
X0179698Y0058361D02*
X0235863Y0058361D01*
X0234655Y0056763D02*
X0194806Y0056763D01*
X0192495Y0056763D02*
X0181297Y0056763D01*
X0176574Y0053566D02*
X0150161Y0053566D01*
X0150005Y0053942D02*
X0150581Y0052552D01*
X0150581Y0051048D01*
X0150005Y0049658D01*
X0148942Y0048595D01*
X0147552Y0048019D01*
X0146048Y0048019D01*
X0144658Y0048595D01*
X0143595Y0049658D01*
X0143019Y0051048D01*
X0143019Y0052552D01*
X0143595Y0053942D01*
X0144658Y0055005D01*
X0146048Y0055581D01*
X0147552Y0055581D01*
X0148942Y0055005D01*
X0150005Y0053942D01*
X0148558Y0055164D02*
X0174976Y0055164D01*
X0173377Y0056763D02*
X0123329Y0056763D01*
X0123364Y0056543D02*
X0123223Y0057435D01*
X0122943Y0058294D01*
X0122533Y0059098D01*
X0122003Y0059829D01*
X0121364Y0060467D01*
X0120634Y0060998D01*
X0119829Y0061408D01*
X0118970Y0061687D01*
X0118078Y0061828D01*
X0117811Y0061828D01*
X0117811Y0052339D01*
X0117442Y0052339D01*
X0117442Y0051970D01*
X0111890Y0051970D01*
X0111890Y0047766D01*
X0112031Y0046874D01*
X0112310Y0046015D01*
X0112720Y0045210D01*
X0113251Y0044480D01*
X0113889Y0043841D01*
X0114620Y0043311D01*
X0115425Y0042901D01*
X0116283Y0042622D01*
X0117175Y0042480D01*
X0117442Y0042480D01*
X0117442Y0051970D01*
X0117811Y0051970D01*
X0117811Y0042480D01*
X0118078Y0042480D01*
X0118970Y0042622D01*
X0119829Y0042901D01*
X0120634Y0043311D01*
X0121364Y0043841D01*
X0122003Y0044480D01*
X0122533Y0045210D01*
X0122943Y0046015D01*
X0123223Y0046874D01*
X0123364Y0047766D01*
X0123364Y0051970D01*
X0117811Y0051970D01*
X0117811Y0052339D01*
X0123364Y0052339D01*
X0123364Y0056543D01*
X0123364Y0055164D02*
X0145042Y0055164D01*
X0143439Y0053566D02*
X0123364Y0053566D01*
X0123364Y0051967D02*
X0143019Y0051967D01*
X0143300Y0050369D02*
X0123364Y0050369D01*
X0123364Y0048770D02*
X0144482Y0048770D01*
X0149118Y0048770D02*
X0189389Y0048770D01*
X0191307Y0047172D02*
X0123270Y0047172D01*
X0122718Y0045573D02*
X0190290Y0045573D01*
X0189075Y0043975D02*
X0121497Y0043975D01*
X0117811Y0043975D02*
X0117442Y0043975D01*
X0117442Y0045573D02*
X0117811Y0045573D01*
X0117811Y0047172D02*
X0117442Y0047172D01*
X0117442Y0048770D02*
X0117811Y0048770D01*
X0117811Y0050369D02*
X0117442Y0050369D01*
X0117442Y0051967D02*
X0117811Y0051967D01*
X0117442Y0052339D02*
X0111890Y0052339D01*
X0111890Y0056543D01*
X0112031Y0057435D01*
X0112310Y0058294D01*
X0112720Y0059098D01*
X0113251Y0059829D01*
X0113889Y0060467D01*
X0114620Y0060998D01*
X0115425Y0061408D01*
X0116283Y0061687D01*
X0117175Y0061828D01*
X0117442Y0061828D01*
X0117442Y0052339D01*
X0117442Y0053566D02*
X0117811Y0053566D01*
X0117811Y0055164D02*
X0117442Y0055164D01*
X0117442Y0056763D02*
X0117811Y0056763D01*
X0117811Y0058361D02*
X0117442Y0058361D01*
X0117442Y0059960D02*
X0117811Y0059960D01*
X0117811Y0061558D02*
X0117442Y0061558D01*
X0115887Y0061558D02*
X0107716Y0061558D01*
X0108378Y0063157D02*
X0166983Y0063157D01*
X0165385Y0064755D02*
X0108403Y0064755D01*
X0108050Y0066354D02*
X0163786Y0066354D01*
X0162188Y0067952D02*
X0107186Y0067952D01*
X0102788Y0072748D02*
X0054738Y0072748D01*
X0053815Y0071149D02*
X0101190Y0071149D01*
X0106380Y0059960D02*
X0113382Y0059960D01*
X0112345Y0058361D02*
X0068379Y0058361D01*
X0068559Y0056763D02*
X0111925Y0056763D01*
X0111890Y0055164D02*
X0069587Y0055164D01*
X0070412Y0053566D02*
X0111890Y0053566D01*
X0111890Y0051967D02*
X0071237Y0051967D01*
X0072062Y0050369D02*
X0111890Y0050369D01*
X0111890Y0048770D02*
X0072545Y0048770D01*
X0072966Y0047172D02*
X0111984Y0047172D01*
X0112535Y0045573D02*
X0105039Y0045573D01*
X0104868Y0045660D02*
X0104010Y0045939D01*
X0103118Y0046080D01*
X0098913Y0046080D01*
X0098913Y0040528D01*
X0098545Y0040528D01*
X0098545Y0046080D01*
X0094341Y0046080D01*
X0093449Y0045939D01*
X0092590Y0045660D01*
X0091785Y0045250D01*
X0091055Y0044719D01*
X0090416Y0044081D01*
X0089885Y0043350D01*
X0089475Y0042546D01*
X0089196Y0041687D01*
X0089055Y0040795D01*
X0089055Y0040528D01*
X0098545Y0040528D01*
X0098545Y0040159D01*
X0098913Y0040159D01*
X0098913Y0034606D01*
X0103118Y0034606D01*
X0104010Y0034748D01*
X0104868Y0035027D01*
X0105673Y0035437D01*
X0106404Y0035967D01*
X0107042Y0036606D01*
X0107573Y0037336D01*
X0107983Y0038141D01*
X0108262Y0039000D01*
X0108403Y0039892D01*
X0108403Y0040159D01*
X0098913Y0040159D01*
X0098913Y0040528D01*
X0108403Y0040528D01*
X0108403Y0040795D01*
X0108262Y0041687D01*
X0107983Y0042546D01*
X0107573Y0043350D01*
X0107042Y0044081D01*
X0106404Y0044719D01*
X0105673Y0045250D01*
X0104868Y0045660D01*
X0107119Y0043975D02*
X0113756Y0043975D01*
X0108038Y0042376D02*
X0188591Y0042376D01*
X0188636Y0040778D02*
X0108403Y0040778D01*
X0108290Y0039179D02*
X0132378Y0039179D01*
X0132448Y0039215D02*
X0131862Y0038917D01*
X0131330Y0038530D01*
X0130865Y0038065D01*
X0130479Y0037533D01*
X0130180Y0036947D01*
X0129977Y0036322D01*
X0129874Y0035672D01*
X0129874Y0035343D01*
X0129874Y0035014D01*
X0129977Y0034365D01*
X0130180Y0033740D01*
X0130479Y0033154D01*
X0130865Y0032622D01*
X0131330Y0032157D01*
X0131862Y0031770D01*
X0132448Y0031471D01*
X0133074Y0031268D01*
X0133723Y0031165D01*
X0136216Y0031165D01*
X0136189Y0031151D01*
X0135835Y0031041D01*
X0132469Y0031041D01*
X0132011Y0030918D01*
X0131600Y0030681D01*
X0131265Y0030346D01*
X0131028Y0029936D01*
X0130906Y0029478D01*
X0130906Y0024320D01*
X0131646Y0024320D01*
X0131646Y0024320D01*
X0130906Y0024320D01*
X0130906Y0019161D01*
X0131028Y0018704D01*
X0131265Y0018293D01*
X0131600Y0017958D01*
X0132011Y0017721D01*
X0132469Y0017598D01*
X0135835Y0017598D01*
X0136189Y0017488D01*
X0136241Y0017460D01*
X0136292Y0017456D01*
X0136895Y0017268D01*
X0136895Y0017268D01*
X0137627Y0017335D01*
X0138358Y0017268D01*
X0138358Y0017268D01*
X0138961Y0017456D01*
X0139012Y0017460D01*
X0139065Y0017488D01*
X0139419Y0017598D01*
X0142785Y0017598D01*
X0143243Y0017721D01*
X0143653Y0017958D01*
X0143988Y0018293D01*
X0144225Y0018704D01*
X0144348Y0019161D01*
X0144348Y0024320D01*
X0144348Y0025622D01*
X0145352Y0025622D01*
X0147622Y0026563D01*
X0149360Y0028300D01*
X0150301Y0030571D01*
X0150301Y0033029D01*
X0149360Y0035300D01*
X0147622Y0037037D01*
X0145352Y0037978D01*
X0142894Y0037978D01*
X0142251Y0037712D01*
X0141995Y0038065D01*
X0141530Y0038530D01*
X0140998Y0038917D01*
X0140412Y0039215D01*
X0139786Y0039418D01*
X0139137Y0039521D01*
X0138808Y0039521D01*
X0138808Y0035343D01*
X0129874Y0035343D01*
X0138808Y0035343D01*
X0138808Y0035343D01*
X0138808Y0035343D01*
X0138808Y0039521D01*
X0133723Y0039521D01*
X0133074Y0039418D01*
X0132448Y0039215D01*
X0130513Y0037581D02*
X0107697Y0037581D01*
X0106418Y0035982D02*
X0129923Y0035982D01*
X0129974Y0034384D02*
X0074080Y0034384D01*
X0074080Y0035982D02*
X0091040Y0035982D01*
X0091055Y0035967D02*
X0091785Y0035437D01*
X0092590Y0035027D01*
X0093449Y0034748D01*
X0094341Y0034606D01*
X0098545Y0034606D01*
X0098545Y0040159D01*
X0089055Y0040159D01*
X0089055Y0039892D01*
X0089196Y0039000D01*
X0089475Y0038141D01*
X0089885Y0037336D01*
X0090416Y0036606D01*
X0091055Y0035967D01*
X0089761Y0037581D02*
X0074080Y0037581D01*
X0074080Y0039179D02*
X0089168Y0039179D01*
X0089055Y0040778D02*
X0074016Y0040778D01*
X0073954Y0042376D02*
X0089420Y0042376D01*
X0090339Y0043975D02*
X0073807Y0043975D01*
X0073386Y0045573D02*
X0092420Y0045573D01*
X0098545Y0045573D02*
X0098913Y0045573D01*
X0098913Y0043975D02*
X0098545Y0043975D01*
X0098545Y0042376D02*
X0098913Y0042376D01*
X0098913Y0040778D02*
X0098545Y0040778D01*
X0098545Y0039179D02*
X0098913Y0039179D01*
X0098913Y0037581D02*
X0098545Y0037581D01*
X0098545Y0035982D02*
X0098913Y0035982D01*
X0091078Y0059960D02*
X0070130Y0059960D01*
X0070581Y0061558D02*
X0089743Y0061558D01*
X0089080Y0063157D02*
X0070331Y0063157D01*
X0069192Y0064755D02*
X0089055Y0064755D01*
X0089409Y0066354D02*
X0057438Y0066354D01*
X0060291Y0064755D02*
X0064408Y0064755D01*
X0063269Y0063157D02*
X0062366Y0063157D01*
X0054019Y0067952D02*
X0090272Y0067952D01*
X0092335Y0069551D02*
X0052435Y0069551D01*
X0056600Y0104718D02*
X0057000Y0104718D01*
X0057000Y0106317D02*
X0056600Y0106317D01*
X0056600Y0107915D02*
X0057000Y0107915D01*
X0057000Y0109514D02*
X0056600Y0109514D01*
X0056600Y0111112D02*
X0057000Y0111112D01*
X0057000Y0112711D02*
X0056600Y0112711D01*
X0056600Y0114309D02*
X0057000Y0114309D01*
X0057000Y0115908D02*
X0056600Y0115908D01*
X0056600Y0117506D02*
X0057000Y0117506D01*
X0074302Y0122302D02*
X0079298Y0122302D01*
X0079750Y0121850D02*
X0083850Y0121850D01*
X0086750Y0124750D01*
X0086750Y0128850D01*
X0083850Y0131750D01*
X0079750Y0131750D01*
X0076850Y0128850D01*
X0076850Y0124750D01*
X0079750Y0121850D01*
X0078950Y0119105D02*
X0084650Y0119105D01*
X0084081Y0118869D02*
X0082731Y0117519D01*
X0082000Y0115755D01*
X0082000Y0107845D01*
X0082731Y0106081D01*
X0084081Y0104731D01*
X0085845Y0104000D01*
X0087755Y0104000D01*
X0089519Y0104731D01*
X0090869Y0106081D01*
X0091600Y0107845D01*
X0091600Y0115755D01*
X0090869Y0117519D01*
X0089519Y0118869D01*
X0087755Y0119600D01*
X0085845Y0119600D01*
X0084081Y0118869D01*
X0082725Y0117506D02*
X0080875Y0117506D01*
X0081537Y0115908D02*
X0082063Y0115908D01*
X0082000Y0114309D02*
X0081600Y0114309D01*
X0081600Y0112711D02*
X0082000Y0112711D01*
X0082000Y0111112D02*
X0081600Y0111112D01*
X0081600Y0109514D02*
X0082000Y0109514D01*
X0082000Y0107915D02*
X0081600Y0107915D01*
X0080967Y0106317D02*
X0082633Y0106317D01*
X0084112Y0104718D02*
X0079488Y0104718D01*
X0089488Y0104718D02*
X0094112Y0104718D01*
X0092633Y0106317D02*
X0090967Y0106317D01*
X0091600Y0107915D02*
X0092000Y0107915D01*
X0092000Y0109514D02*
X0091600Y0109514D01*
X0091600Y0111112D02*
X0092000Y0111112D01*
X0092000Y0112711D02*
X0091600Y0112711D01*
X0091600Y0114309D02*
X0092000Y0114309D01*
X0092063Y0115908D02*
X0091537Y0115908D01*
X0090875Y0117506D02*
X0092725Y0117506D01*
X0094650Y0119105D02*
X0088950Y0119105D01*
X0089750Y0121850D02*
X0093850Y0121850D01*
X0096750Y0124750D01*
X0096750Y0128850D01*
X0093850Y0131750D01*
X0089750Y0131750D01*
X0086850Y0128850D01*
X0086850Y0124750D01*
X0089750Y0121850D01*
X0089298Y0122302D02*
X0084302Y0122302D01*
X0085901Y0123900D02*
X0087699Y0123900D01*
X0086850Y0125499D02*
X0086750Y0125499D01*
X0086750Y0127097D02*
X0086850Y0127097D01*
X0086850Y0128696D02*
X0086750Y0128696D01*
X0085306Y0130294D02*
X0088294Y0130294D01*
X0089750Y0131850D02*
X0093850Y0131850D01*
X0096750Y0134750D01*
X0096750Y0138850D01*
X0093850Y0141750D01*
X0089750Y0141750D01*
X0086850Y0138850D01*
X0086850Y0134750D01*
X0089750Y0131850D01*
X0089707Y0131893D02*
X0083893Y0131893D01*
X0083850Y0131850D02*
X0086750Y0134750D01*
X0086750Y0138850D01*
X0083850Y0141750D01*
X0079750Y0141750D01*
X0076850Y0138850D01*
X0076850Y0134750D01*
X0079750Y0131850D01*
X0083850Y0131850D01*
X0085492Y0133491D02*
X0088108Y0133491D01*
X0086850Y0135090D02*
X0086750Y0135090D01*
X0086750Y0136688D02*
X0086850Y0136688D01*
X0086850Y0138287D02*
X0086750Y0138287D01*
X0085715Y0139885D02*
X0087885Y0139885D01*
X0089484Y0141484D02*
X0084116Y0141484D01*
X0083850Y0141850D02*
X0086750Y0144750D01*
X0086750Y0148850D01*
X0083850Y0151750D01*
X0079750Y0151750D01*
X0076850Y0148850D01*
X0076850Y0144750D01*
X0079750Y0141850D01*
X0083850Y0141850D01*
X0085083Y0143082D02*
X0088517Y0143082D01*
X0089750Y0141850D02*
X0093850Y0141850D01*
X0096750Y0144750D01*
X0096750Y0148850D01*
X0093850Y0151750D01*
X0089750Y0151750D01*
X0086850Y0148850D01*
X0086850Y0144750D01*
X0089750Y0141850D01*
X0086919Y0144681D02*
X0086681Y0144681D01*
X0086750Y0146279D02*
X0086850Y0146279D01*
X0086850Y0147878D02*
X0086750Y0147878D01*
X0086124Y0149476D02*
X0087476Y0149476D01*
X0089075Y0151075D02*
X0084525Y0151075D01*
X0083850Y0151850D02*
X0086750Y0154750D01*
X0086750Y0158850D01*
X0083850Y0161750D01*
X0079750Y0161750D01*
X0076850Y0158850D01*
X0076850Y0154750D01*
X0079750Y0151850D01*
X0083850Y0151850D01*
X0084674Y0152673D02*
X0088926Y0152673D01*
X0089750Y0151850D02*
X0093850Y0151850D01*
X0096750Y0154750D01*
X0096750Y0158850D01*
X0093850Y0161750D01*
X0089750Y0161750D01*
X0086850Y0158850D01*
X0086850Y0154750D01*
X0089750Y0151850D01*
X0087328Y0154272D02*
X0086272Y0154272D01*
X0086750Y0155870D02*
X0086850Y0155870D01*
X0086850Y0157469D02*
X0086750Y0157469D01*
X0086533Y0159068D02*
X0087067Y0159068D01*
X0088666Y0160666D02*
X0084934Y0160666D01*
X0083850Y0161850D02*
X0079750Y0161850D01*
X0076850Y0164750D01*
X0076850Y0168850D01*
X0079750Y0171750D01*
X0083850Y0171750D01*
X0086750Y0168850D01*
X0086750Y0164750D01*
X0083850Y0161850D01*
X0084265Y0162265D02*
X0089335Y0162265D01*
X0089750Y0161850D02*
X0093850Y0161850D01*
X0096750Y0164750D01*
X0096750Y0168850D01*
X0093850Y0171750D01*
X0089750Y0171750D01*
X0086850Y0168850D01*
X0086850Y0164750D01*
X0089750Y0161850D01*
X0087737Y0163863D02*
X0085863Y0163863D01*
X0086750Y0165462D02*
X0086850Y0165462D01*
X0086850Y0167060D02*
X0086750Y0167060D01*
X0086750Y0168659D02*
X0086850Y0168659D01*
X0088257Y0170257D02*
X0085343Y0170257D01*
X0083850Y0171850D02*
X0086750Y0174750D01*
X0086750Y0178850D01*
X0083850Y0181750D01*
X0079750Y0181750D01*
X0076850Y0178850D01*
X0076850Y0174750D01*
X0079750Y0171850D01*
X0083850Y0171850D01*
X0083856Y0171856D02*
X0089744Y0171856D01*
X0089750Y0171850D02*
X0093850Y0171850D01*
X0096750Y0174750D01*
X0096750Y0178850D01*
X0093850Y0181750D01*
X0089750Y0181750D01*
X0086850Y0178850D01*
X0086850Y0174750D01*
X0089750Y0171850D01*
X0088146Y0173454D02*
X0085454Y0173454D01*
X0086750Y0175053D02*
X0086850Y0175053D01*
X0086850Y0176651D02*
X0086750Y0176651D01*
X0086750Y0178250D02*
X0086850Y0178250D01*
X0087848Y0179848D02*
X0085752Y0179848D01*
X0084154Y0181447D02*
X0089446Y0181447D01*
X0089750Y0181850D02*
X0093850Y0181850D01*
X0096750Y0184750D01*
X0096750Y0188850D01*
X0093850Y0191750D01*
X0089750Y0191750D01*
X0086850Y0188850D01*
X0086850Y0184750D01*
X0089750Y0181850D01*
X0088554Y0183045D02*
X0085046Y0183045D01*
X0083850Y0181850D02*
X0086750Y0184750D01*
X0086750Y0188850D01*
X0083850Y0191750D01*
X0079750Y0191750D01*
X0076850Y0188850D01*
X0076850Y0184750D01*
X0079750Y0181850D01*
X0083850Y0181850D01*
X0086644Y0184644D02*
X0086956Y0184644D01*
X0086850Y0186242D02*
X0086750Y0186242D01*
X0086750Y0187841D02*
X0086850Y0187841D01*
X0087439Y0189439D02*
X0086161Y0189439D01*
X0084563Y0191038D02*
X0089037Y0191038D01*
X0088963Y0192636D02*
X0084637Y0192636D01*
X0086235Y0194235D02*
X0087365Y0194235D01*
X0086850Y0195833D02*
X0086750Y0195833D01*
X0086750Y0197432D02*
X0086850Y0197432D01*
X0087030Y0199030D02*
X0086570Y0199030D01*
X0077030Y0199030D02*
X0076570Y0199030D01*
X0076750Y0197432D02*
X0076850Y0197432D01*
X0076850Y0195833D02*
X0076750Y0195833D01*
X0076235Y0194235D02*
X0077365Y0194235D01*
X0078963Y0192636D02*
X0074637Y0192636D01*
X0074563Y0191038D02*
X0079037Y0191038D01*
X0077439Y0189439D02*
X0076161Y0189439D01*
X0076750Y0187841D02*
X0076850Y0187841D01*
X0076850Y0186242D02*
X0076750Y0186242D01*
X0076644Y0184644D02*
X0076956Y0184644D01*
X0078554Y0183045D02*
X0075046Y0183045D01*
X0074154Y0181447D02*
X0079446Y0181447D01*
X0077848Y0179848D02*
X0075752Y0179848D01*
X0076750Y0178250D02*
X0076850Y0178250D01*
X0076850Y0176651D02*
X0076750Y0176651D01*
X0076750Y0175053D02*
X0076850Y0175053D01*
X0078146Y0173454D02*
X0075454Y0173454D01*
X0073856Y0171856D02*
X0079744Y0171856D01*
X0078257Y0170257D02*
X0075343Y0170257D01*
X0076750Y0168659D02*
X0076850Y0168659D01*
X0076850Y0167060D02*
X0076750Y0167060D01*
X0076750Y0165462D02*
X0076850Y0165462D01*
X0077737Y0163863D02*
X0075863Y0163863D01*
X0074265Y0162265D02*
X0079335Y0162265D01*
X0078666Y0160666D02*
X0074934Y0160666D01*
X0076533Y0159068D02*
X0077067Y0159068D01*
X0076850Y0157469D02*
X0076750Y0157469D01*
X0076750Y0155870D02*
X0076850Y0155870D01*
X0077328Y0154272D02*
X0076272Y0154272D01*
X0074674Y0152673D02*
X0078926Y0152673D01*
X0079075Y0151075D02*
X0074525Y0151075D01*
X0076124Y0149476D02*
X0077476Y0149476D01*
X0076850Y0147878D02*
X0076750Y0147878D01*
X0076750Y0146279D02*
X0076850Y0146279D01*
X0076919Y0144681D02*
X0076681Y0144681D01*
X0075083Y0143082D02*
X0078517Y0143082D01*
X0079484Y0141484D02*
X0074116Y0141484D01*
X0075715Y0139885D02*
X0077885Y0139885D01*
X0076850Y0138287D02*
X0076750Y0138287D01*
X0076750Y0136688D02*
X0076850Y0136688D01*
X0076850Y0135090D02*
X0076750Y0135090D01*
X0075492Y0133491D02*
X0078108Y0133491D01*
X0079707Y0131893D02*
X0073893Y0131893D01*
X0075306Y0130294D02*
X0078294Y0130294D01*
X0076850Y0128696D02*
X0076750Y0128696D01*
X0076750Y0127097D02*
X0076850Y0127097D01*
X0076850Y0125499D02*
X0076750Y0125499D01*
X0075901Y0123900D02*
X0077699Y0123900D01*
X0093893Y0131893D02*
X0099707Y0131893D01*
X0099750Y0131750D02*
X0096850Y0128850D01*
X0096850Y0124750D01*
X0099750Y0121850D01*
X0103850Y0121850D01*
X0106750Y0124750D01*
X0106750Y0128850D01*
X0103850Y0131750D01*
X0099750Y0131750D01*
X0098294Y0130294D02*
X0095306Y0130294D01*
X0096750Y0128696D02*
X0096850Y0128696D01*
X0096850Y0127097D02*
X0096750Y0127097D01*
X0096750Y0125499D02*
X0096850Y0125499D01*
X0097699Y0123900D02*
X0095901Y0123900D01*
X0094302Y0122302D02*
X0099298Y0122302D01*
X0104302Y0122302D02*
X0199298Y0122302D01*
X0197699Y0123900D02*
X0105901Y0123900D01*
X0106750Y0125499D02*
X0196850Y0125499D01*
X0196850Y0127097D02*
X0106750Y0127097D01*
X0106750Y0128696D02*
X0196850Y0128696D01*
X0198294Y0130294D02*
X0105306Y0130294D01*
X0103893Y0131893D02*
X0199707Y0131893D01*
X0198108Y0133491D02*
X0105492Y0133491D01*
X0106750Y0135090D02*
X0196850Y0135090D01*
X0196850Y0136688D02*
X0106750Y0136688D01*
X0106750Y0138287D02*
X0196850Y0138287D01*
X0197885Y0139885D02*
X0105715Y0139885D01*
X0099484Y0141484D02*
X0094116Y0141484D01*
X0095083Y0143082D02*
X0098517Y0143082D01*
X0096919Y0144681D02*
X0096681Y0144681D01*
X0096750Y0146279D02*
X0096850Y0146279D01*
X0096850Y0147878D02*
X0096750Y0147878D01*
X0096124Y0149476D02*
X0097476Y0149476D01*
X0099075Y0151075D02*
X0094525Y0151075D01*
X0094674Y0152673D02*
X0098926Y0152673D01*
X0097328Y0154272D02*
X0096272Y0154272D01*
X0096750Y0155870D02*
X0096850Y0155870D01*
X0096850Y0157469D02*
X0096750Y0157469D01*
X0096533Y0159068D02*
X0097067Y0159068D01*
X0098666Y0160666D02*
X0094934Y0160666D01*
X0094265Y0162265D02*
X0099335Y0162265D01*
X0097737Y0163863D02*
X0095863Y0163863D01*
X0096750Y0165462D02*
X0096850Y0165462D01*
X0096850Y0167060D02*
X0096750Y0167060D01*
X0096750Y0168659D02*
X0096850Y0168659D01*
X0098257Y0170257D02*
X0095343Y0170257D01*
X0093856Y0171856D02*
X0099744Y0171856D01*
X0099750Y0171850D02*
X0103850Y0171850D01*
X0106750Y0174750D01*
X0106750Y0178850D01*
X0103850Y0181750D01*
X0099750Y0181750D01*
X0096850Y0178850D01*
X0096850Y0174750D01*
X0099750Y0171850D01*
X0098146Y0173454D02*
X0095454Y0173454D01*
X0096750Y0175053D02*
X0096850Y0175053D01*
X0096850Y0176651D02*
X0096750Y0176651D01*
X0096750Y0178250D02*
X0096850Y0178250D01*
X0097848Y0179848D02*
X0095752Y0179848D01*
X0094154Y0181447D02*
X0099446Y0181447D01*
X0098554Y0183045D02*
X0095046Y0183045D01*
X0096644Y0184644D02*
X0096956Y0184644D01*
X0096850Y0186242D02*
X0096750Y0186242D01*
X0096750Y0187841D02*
X0096850Y0187841D01*
X0097439Y0189439D02*
X0096161Y0189439D01*
X0094563Y0191038D02*
X0099037Y0191038D01*
X0098963Y0192636D02*
X0094637Y0192636D01*
X0096235Y0194235D02*
X0097365Y0194235D01*
X0096850Y0195833D02*
X0096750Y0195833D01*
X0096750Y0197432D02*
X0096850Y0197432D01*
X0097030Y0199030D02*
X0096570Y0199030D01*
X0105046Y0183045D02*
X0187500Y0183045D01*
X0187500Y0181447D02*
X0104154Y0181447D01*
X0105752Y0179848D02*
X0187500Y0179848D01*
X0187500Y0178250D02*
X0106750Y0178250D01*
X0106750Y0176651D02*
X0187500Y0176651D01*
X0187500Y0175053D02*
X0106750Y0175053D01*
X0105454Y0173454D02*
X0187500Y0173454D01*
X0187500Y0171856D02*
X0103856Y0171856D01*
X0105343Y0170257D02*
X0187214Y0170257D01*
X0186700Y0168659D02*
X0106750Y0168659D01*
X0106750Y0167060D02*
X0186917Y0167060D01*
X0188047Y0165462D02*
X0106750Y0165462D01*
X0104674Y0152673D02*
X0198926Y0152673D01*
X0199075Y0151075D02*
X0104525Y0151075D01*
X0097885Y0139885D02*
X0095715Y0139885D01*
X0096750Y0138287D02*
X0096850Y0138287D01*
X0096850Y0136688D02*
X0096750Y0136688D01*
X0096750Y0135090D02*
X0096850Y0135090D01*
X0098108Y0133491D02*
X0095492Y0133491D01*
X0098331Y0090332D02*
X0085284Y0090332D01*
X0084080Y0088733D02*
X0096850Y0088733D01*
X0119366Y0061558D02*
X0168582Y0061558D01*
X0170180Y0059960D02*
X0121872Y0059960D01*
X0122909Y0058361D02*
X0171779Y0058361D01*
X0178173Y0051967D02*
X0150581Y0051967D01*
X0150300Y0050369D02*
X0179853Y0050369D01*
X0171738Y0038917D02*
X0171152Y0039215D01*
X0170526Y0039418D01*
X0169877Y0039521D01*
X0164792Y0039521D01*
X0164463Y0039521D01*
X0163814Y0039418D01*
X0163188Y0039215D01*
X0162602Y0038917D01*
X0162070Y0038530D01*
X0161605Y0038065D01*
X0161349Y0037712D01*
X0160706Y0037978D01*
X0158248Y0037978D01*
X0155978Y0037037D01*
X0154240Y0035300D01*
X0153299Y0033029D01*
X0153299Y0030571D01*
X0154240Y0028300D01*
X0155978Y0026563D01*
X0158248Y0025622D01*
X0159252Y0025622D01*
X0159252Y0024320D01*
X0159992Y0024320D01*
X0159992Y0024320D01*
X0159252Y0024320D01*
X0159252Y0019161D01*
X0159375Y0018704D01*
X0159612Y0018293D01*
X0159947Y0017958D01*
X0160357Y0017721D01*
X0160815Y0017598D01*
X0164181Y0017598D01*
X0164535Y0017488D01*
X0164588Y0017460D01*
X0164639Y0017456D01*
X0165242Y0017268D01*
X0165973Y0017335D01*
X0166705Y0017268D01*
X0167308Y0017456D01*
X0167359Y0017460D01*
X0167411Y0017488D01*
X0167765Y0017598D01*
X0171131Y0017598D01*
X0171589Y0017721D01*
X0172000Y0017958D01*
X0172335Y0018293D01*
X0172572Y0018704D01*
X0172694Y0019161D01*
X0172694Y0024320D01*
X0172694Y0029478D01*
X0172572Y0029936D01*
X0172335Y0030346D01*
X0172000Y0030681D01*
X0171589Y0030918D01*
X0171131Y0031041D01*
X0167765Y0031041D01*
X0167411Y0031151D01*
X0167384Y0031165D01*
X0169877Y0031165D01*
X0170526Y0031268D01*
X0171152Y0031471D01*
X0171738Y0031770D01*
X0172270Y0032157D01*
X0172735Y0032622D01*
X0173121Y0033154D01*
X0173420Y0033740D01*
X0173623Y0034365D01*
X0173726Y0035014D01*
X0173726Y0035343D01*
X0164792Y0035343D01*
X0164792Y0035343D01*
X0164792Y0039521D01*
X0164792Y0035343D01*
X0164792Y0035343D01*
X0173726Y0035343D01*
X0173726Y0035672D01*
X0173623Y0036322D01*
X0173420Y0036947D01*
X0173121Y0037533D01*
X0172735Y0038065D01*
X0172270Y0038530D01*
X0171738Y0038917D01*
X0171222Y0039179D02*
X0189222Y0039179D01*
X0190673Y0037581D02*
X0173087Y0037581D01*
X0173677Y0035982D02*
X0190699Y0035982D01*
X0189233Y0034384D02*
X0173626Y0034384D01*
X0172854Y0032785D02*
X0188571Y0032785D01*
X0188550Y0031187D02*
X0170011Y0031187D01*
X0172665Y0029588D02*
X0189014Y0029588D01*
X0190170Y0027990D02*
X0172694Y0027990D01*
X0172694Y0026391D02*
X0229244Y0026391D01*
X0229244Y0024793D02*
X0172694Y0024793D01*
X0172694Y0024320D02*
X0171954Y0024320D01*
X0171954Y0024320D01*
X0172694Y0024320D01*
X0172694Y0023194D02*
X0229244Y0023194D01*
X0227985Y0021596D02*
X0172694Y0021596D01*
X0172694Y0019997D02*
X0225902Y0019997D01*
X0223956Y0018399D02*
X0172396Y0018399D01*
X0165242Y0017268D02*
X0165242Y0017268D01*
X0159551Y0018399D02*
X0144049Y0018399D01*
X0144348Y0019997D02*
X0159252Y0019997D01*
X0159252Y0021596D02*
X0144348Y0021596D01*
X0144348Y0023194D02*
X0159252Y0023194D01*
X0159252Y0024793D02*
X0144348Y0024793D01*
X0144348Y0024320D02*
X0143608Y0024320D01*
X0143608Y0024320D01*
X0144348Y0024320D01*
X0147208Y0026391D02*
X0156392Y0026391D01*
X0154551Y0027990D02*
X0149049Y0027990D01*
X0149894Y0029588D02*
X0153706Y0029588D01*
X0153299Y0031187D02*
X0150301Y0031187D01*
X0150301Y0032785D02*
X0153299Y0032785D01*
X0153860Y0034384D02*
X0149740Y0034384D01*
X0148678Y0035982D02*
X0154922Y0035982D01*
X0157289Y0037581D02*
X0146311Y0037581D01*
X0140482Y0039179D02*
X0163118Y0039179D01*
X0164792Y0039179D02*
X0164792Y0039179D01*
X0164792Y0037581D02*
X0164792Y0037581D01*
X0164792Y0035982D02*
X0164792Y0035982D01*
X0138808Y0035982D02*
X0138808Y0035982D01*
X0138808Y0037581D02*
X0138808Y0037581D01*
X0138808Y0039179D02*
X0138808Y0039179D01*
X0133589Y0031187D02*
X0074080Y0031187D01*
X0074080Y0032785D02*
X0130746Y0032785D01*
X0130935Y0029588D02*
X0074080Y0029588D01*
X0074080Y0027990D02*
X0130906Y0027990D01*
X0130906Y0026391D02*
X0074080Y0026391D01*
X0074080Y0024793D02*
X0130906Y0024793D01*
X0130906Y0023194D02*
X0074080Y0023194D01*
X0075139Y0021596D02*
X0130906Y0021596D01*
X0130906Y0019997D02*
X0077415Y0019997D01*
X0079333Y0018399D02*
X0131204Y0018399D01*
X0080863Y0016800D02*
X0222409Y0016800D01*
X0229244Y0027990D02*
X0197131Y0027990D01*
X0198287Y0029588D02*
X0229244Y0029588D01*
X0229244Y0031187D02*
X0198750Y0031187D01*
X0198730Y0032785D02*
X0229244Y0032785D01*
X0229244Y0034384D02*
X0198068Y0034384D01*
X0196602Y0035982D02*
X0229244Y0035982D01*
X0229244Y0037581D02*
X0196628Y0037581D01*
X0198079Y0039179D02*
X0229238Y0039179D01*
X0229204Y0040778D02*
X0198665Y0040778D01*
X0198710Y0042376D02*
X0229210Y0042376D01*
X0229537Y0043975D02*
X0198226Y0043975D01*
X0197011Y0045573D02*
X0229863Y0045573D01*
X0230190Y0047172D02*
X0195994Y0047172D01*
X0197912Y0048770D02*
X0230517Y0048770D01*
X0231226Y0050369D02*
X0198610Y0050369D01*
X0198750Y0051967D02*
X0231948Y0051967D01*
X0232671Y0053566D02*
X0198407Y0053566D01*
X0197420Y0055164D02*
X0233447Y0055164D01*
X0235120Y0103120D02*
X0238480Y0103120D01*
X0236882Y0104718D02*
X0236718Y0104718D01*
X0236750Y0106317D02*
X0236850Y0106317D01*
X0236850Y0107915D02*
X0236750Y0107915D01*
X0236087Y0109514D02*
X0237513Y0109514D01*
X0254488Y0111112D02*
X0259112Y0111112D01*
X0259750Y0111850D02*
X0263850Y0111850D01*
X0266750Y0114750D01*
X0266750Y0118850D01*
X0263850Y0121750D01*
X0259750Y0121750D01*
X0256850Y0118850D01*
X0256850Y0114750D01*
X0259750Y0111850D01*
X0258889Y0112711D02*
X0254711Y0112711D01*
X0256310Y0114309D02*
X0257290Y0114309D01*
X0256850Y0115908D02*
X0256750Y0115908D01*
X0256750Y0117506D02*
X0256850Y0117506D01*
X0257104Y0119105D02*
X0256496Y0119105D01*
X0254897Y0120703D02*
X0258703Y0120703D01*
X0259750Y0121850D02*
X0263850Y0121850D01*
X0266750Y0124750D01*
X0266750Y0128850D01*
X0263850Y0131750D01*
X0259750Y0131750D01*
X0256850Y0128850D01*
X0256850Y0124750D01*
X0259750Y0121850D01*
X0259298Y0122302D02*
X0254302Y0122302D01*
X0255901Y0123900D02*
X0257699Y0123900D01*
X0256850Y0125499D02*
X0256750Y0125499D01*
X0256750Y0127097D02*
X0256850Y0127097D01*
X0256850Y0128696D02*
X0256750Y0128696D01*
X0255306Y0130294D02*
X0258294Y0130294D01*
X0259750Y0131850D02*
X0256850Y0134750D01*
X0256850Y0138850D01*
X0259750Y0141750D01*
X0263850Y0141750D01*
X0266750Y0138850D01*
X0266750Y0134750D01*
X0263850Y0131850D01*
X0259750Y0131850D01*
X0259707Y0131893D02*
X0253893Y0131893D01*
X0255492Y0133491D02*
X0258108Y0133491D01*
X0256850Y0135090D02*
X0256750Y0135090D01*
X0256750Y0136688D02*
X0256850Y0136688D01*
X0256850Y0138287D02*
X0256750Y0138287D01*
X0255715Y0139885D02*
X0257885Y0139885D01*
X0259484Y0141484D02*
X0254116Y0141484D01*
X0255083Y0143082D02*
X0258517Y0143082D01*
X0259750Y0141850D02*
X0263850Y0141850D01*
X0266750Y0144750D01*
X0266750Y0148850D01*
X0263850Y0151750D01*
X0259750Y0151750D01*
X0256850Y0148850D01*
X0256850Y0144750D01*
X0259750Y0141850D01*
X0256919Y0144681D02*
X0256681Y0144681D01*
X0256750Y0146279D02*
X0256850Y0146279D01*
X0256850Y0147878D02*
X0256750Y0147878D01*
X0256124Y0149476D02*
X0257476Y0149476D01*
X0259075Y0151075D02*
X0254525Y0151075D01*
X0254674Y0152673D02*
X0258926Y0152673D01*
X0259750Y0151850D02*
X0263850Y0151850D01*
X0266750Y0154750D01*
X0266750Y0158850D01*
X0263850Y0161750D01*
X0259750Y0161750D01*
X0256850Y0158850D01*
X0256850Y0154750D01*
X0259750Y0151850D01*
X0257328Y0154272D02*
X0256272Y0154272D01*
X0256750Y0155870D02*
X0256850Y0155870D01*
X0256850Y0157469D02*
X0256750Y0157469D01*
X0256533Y0159068D02*
X0257067Y0159068D01*
X0258666Y0160666D02*
X0254934Y0160666D01*
X0254265Y0162265D02*
X0259335Y0162265D01*
X0259750Y0161850D02*
X0263850Y0161850D01*
X0266750Y0164750D01*
X0266750Y0168850D01*
X0263850Y0171750D01*
X0259750Y0171750D01*
X0256850Y0168850D01*
X0256850Y0164750D01*
X0259750Y0161850D01*
X0257737Y0163863D02*
X0255863Y0163863D01*
X0256750Y0165462D02*
X0256850Y0165462D01*
X0256850Y0167060D02*
X0256750Y0167060D01*
X0256750Y0168659D02*
X0256850Y0168659D01*
X0258257Y0170257D02*
X0255343Y0170257D01*
X0253856Y0171856D02*
X0259744Y0171856D01*
X0259750Y0171850D02*
X0263850Y0171850D01*
X0266750Y0174750D01*
X0266750Y0178850D01*
X0263850Y0181750D01*
X0259750Y0181750D01*
X0256850Y0178850D01*
X0256850Y0174750D01*
X0259750Y0171850D01*
X0258146Y0173454D02*
X0255454Y0173454D01*
X0256750Y0175053D02*
X0256850Y0175053D01*
X0256850Y0176651D02*
X0256750Y0176651D01*
X0256750Y0178250D02*
X0256850Y0178250D01*
X0257848Y0179848D02*
X0255752Y0179848D01*
X0254154Y0181447D02*
X0259446Y0181447D01*
X0259750Y0181850D02*
X0263850Y0181850D01*
X0266750Y0184750D01*
X0266750Y0188850D01*
X0263850Y0191750D01*
X0259750Y0191750D01*
X0256850Y0188850D01*
X0256850Y0184750D01*
X0259750Y0181850D01*
X0258554Y0183045D02*
X0255046Y0183045D01*
X0256644Y0184644D02*
X0256956Y0184644D01*
X0256850Y0186242D02*
X0256750Y0186242D01*
X0256750Y0187841D02*
X0256850Y0187841D01*
X0257439Y0189439D02*
X0256161Y0189439D01*
X0254563Y0191038D02*
X0259037Y0191038D01*
X0258963Y0192636D02*
X0254637Y0192636D01*
X0256235Y0194235D02*
X0257365Y0194235D01*
X0256850Y0195833D02*
X0256750Y0195833D01*
X0259332Y0202227D02*
X0275071Y0202227D01*
X0275071Y0200629D02*
X0274972Y0200629D01*
X0271900Y0200629D02*
X0271700Y0200629D01*
X0271700Y0199030D02*
X0271900Y0199030D01*
X0271900Y0197432D02*
X0271700Y0197432D01*
X0271700Y0195833D02*
X0271900Y0195833D01*
X0271900Y0194235D02*
X0271700Y0194235D01*
X0271700Y0192636D02*
X0271900Y0192636D01*
X0271900Y0191038D02*
X0271700Y0191038D01*
X0271700Y0189439D02*
X0271900Y0189439D01*
X0271900Y0187841D02*
X0271700Y0187841D01*
X0271700Y0186242D02*
X0271900Y0186242D01*
X0271900Y0184644D02*
X0271700Y0184644D01*
X0271700Y0183045D02*
X0271900Y0183045D01*
X0271900Y0181447D02*
X0271700Y0181447D01*
X0271700Y0179848D02*
X0271900Y0179848D01*
X0271900Y0178250D02*
X0271700Y0178250D01*
X0271700Y0176651D02*
X0271900Y0176651D01*
X0271900Y0175053D02*
X0271700Y0175053D01*
X0271700Y0173454D02*
X0271900Y0173454D01*
X0271900Y0171856D02*
X0271700Y0171856D01*
X0271700Y0170257D02*
X0271900Y0170257D01*
X0271900Y0168659D02*
X0271700Y0168659D01*
X0271700Y0167060D02*
X0271900Y0167060D01*
X0271900Y0165462D02*
X0271700Y0165462D01*
X0271700Y0163863D02*
X0271900Y0163863D01*
X0271900Y0162265D02*
X0271700Y0162265D01*
X0271700Y0160666D02*
X0271900Y0160666D01*
X0271900Y0159068D02*
X0271700Y0159068D01*
X0271700Y0157469D02*
X0271900Y0157469D01*
X0271900Y0155870D02*
X0271700Y0155870D01*
X0271700Y0154272D02*
X0271900Y0154272D01*
X0271900Y0152673D02*
X0271700Y0152673D01*
X0271700Y0151075D02*
X0271900Y0151075D01*
X0271900Y0149476D02*
X0271700Y0149476D01*
X0271700Y0147878D02*
X0271900Y0147878D01*
X0271900Y0146279D02*
X0271700Y0146279D01*
X0271700Y0144681D02*
X0271900Y0144681D01*
X0271900Y0143082D02*
X0271700Y0143082D01*
X0271700Y0141484D02*
X0271900Y0141484D01*
X0271900Y0139885D02*
X0271700Y0139885D01*
X0271700Y0138287D02*
X0271900Y0138287D01*
X0271900Y0136688D02*
X0271700Y0136688D01*
X0271700Y0135090D02*
X0271900Y0135090D01*
X0271900Y0133491D02*
X0271700Y0133491D01*
X0271700Y0131893D02*
X0271900Y0131893D01*
X0271900Y0130294D02*
X0271700Y0130294D01*
X0271700Y0128696D02*
X0271900Y0128696D01*
X0271900Y0127097D02*
X0271700Y0127097D01*
X0271700Y0125499D02*
X0271900Y0125499D01*
X0271900Y0123900D02*
X0271700Y0123900D01*
X0271700Y0122302D02*
X0271900Y0122302D01*
X0271900Y0120703D02*
X0271700Y0120703D01*
X0271700Y0119105D02*
X0271900Y0119105D01*
X0271900Y0117506D02*
X0271700Y0117506D01*
X0271700Y0115908D02*
X0271900Y0115908D01*
X0271900Y0114309D02*
X0271700Y0114309D01*
X0271700Y0112711D02*
X0271900Y0112711D01*
X0271900Y0111112D02*
X0271700Y0111112D01*
X0271700Y0109514D02*
X0271900Y0109514D01*
X0271900Y0107915D02*
X0271700Y0107915D01*
X0271700Y0106317D02*
X0271900Y0106317D01*
X0271900Y0104718D02*
X0271700Y0104718D01*
X0271700Y0103120D02*
X0271900Y0103120D01*
X0271900Y0101521D02*
X0271700Y0101521D01*
X0271700Y0099923D02*
X0271900Y0099923D01*
X0271900Y0098324D02*
X0271700Y0098324D01*
X0271700Y0096726D02*
X0266750Y0096726D01*
X0266750Y0098324D02*
X0266850Y0098324D01*
X0267922Y0099923D02*
X0265678Y0099923D01*
X0264079Y0101521D02*
X0269521Y0101521D01*
X0268480Y0103120D02*
X0265120Y0103120D01*
X0266718Y0104718D02*
X0266882Y0104718D01*
X0266850Y0106317D02*
X0266750Y0106317D01*
X0266750Y0107915D02*
X0266850Y0107915D01*
X0267513Y0109514D02*
X0266087Y0109514D01*
X0264488Y0111112D02*
X0269112Y0111112D01*
X0268889Y0112711D02*
X0264711Y0112711D01*
X0266310Y0114309D02*
X0267290Y0114309D01*
X0266850Y0115908D02*
X0266750Y0115908D01*
X0266750Y0117506D02*
X0266850Y0117506D01*
X0267104Y0119105D02*
X0266496Y0119105D01*
X0264897Y0120703D02*
X0268703Y0120703D01*
X0269298Y0122302D02*
X0264302Y0122302D01*
X0265901Y0123900D02*
X0267699Y0123900D01*
X0266850Y0125499D02*
X0266750Y0125499D01*
X0266750Y0127097D02*
X0266850Y0127097D01*
X0266850Y0128696D02*
X0266750Y0128696D01*
X0265306Y0130294D02*
X0268294Y0130294D01*
X0269707Y0131893D02*
X0263893Y0131893D01*
X0265492Y0133491D02*
X0268108Y0133491D01*
X0266850Y0135090D02*
X0266750Y0135090D01*
X0266750Y0136688D02*
X0266850Y0136688D01*
X0266850Y0138287D02*
X0266750Y0138287D01*
X0265715Y0139885D02*
X0267885Y0139885D01*
X0269484Y0141484D02*
X0264116Y0141484D01*
X0265083Y0143082D02*
X0268517Y0143082D01*
X0266919Y0144681D02*
X0266681Y0144681D01*
X0266750Y0146279D02*
X0266850Y0146279D01*
X0266850Y0147878D02*
X0266750Y0147878D01*
X0266124Y0149476D02*
X0267476Y0149476D01*
X0269075Y0151075D02*
X0264525Y0151075D01*
X0264674Y0152673D02*
X0268926Y0152673D01*
X0267328Y0154272D02*
X0266272Y0154272D01*
X0266750Y0155870D02*
X0266850Y0155870D01*
X0266850Y0157469D02*
X0266750Y0157469D01*
X0266533Y0159068D02*
X0267067Y0159068D01*
X0268666Y0160666D02*
X0264934Y0160666D01*
X0264265Y0162265D02*
X0269335Y0162265D01*
X0267737Y0163863D02*
X0265863Y0163863D01*
X0266750Y0165462D02*
X0266850Y0165462D01*
X0266850Y0167060D02*
X0266750Y0167060D01*
X0266750Y0168659D02*
X0266850Y0168659D01*
X0268257Y0170257D02*
X0265343Y0170257D01*
X0263856Y0171856D02*
X0269744Y0171856D01*
X0268146Y0173454D02*
X0265454Y0173454D01*
X0266750Y0175053D02*
X0266850Y0175053D01*
X0266850Y0176651D02*
X0266750Y0176651D01*
X0266750Y0178250D02*
X0266850Y0178250D01*
X0267848Y0179848D02*
X0265752Y0179848D01*
X0264154Y0181447D02*
X0269446Y0181447D01*
X0268554Y0183045D02*
X0265046Y0183045D01*
X0266644Y0184644D02*
X0266956Y0184644D01*
X0266850Y0186242D02*
X0266750Y0186242D01*
X0266750Y0187841D02*
X0266850Y0187841D01*
X0267439Y0189439D02*
X0266161Y0189439D01*
X0264563Y0191038D02*
X0269037Y0191038D01*
X0268963Y0192636D02*
X0264637Y0192636D01*
X0266235Y0194235D02*
X0267365Y0194235D01*
X0266850Y0195833D02*
X0266750Y0195833D01*
X0266750Y0197432D02*
X0266850Y0197432D01*
X0267030Y0199030D02*
X0266570Y0199030D01*
X0264972Y0200629D02*
X0268628Y0200629D01*
X0275071Y0203826D02*
X0257734Y0203826D01*
X0255973Y0205424D02*
X0255781Y0205424D01*
X0247030Y0199030D02*
X0246570Y0199030D01*
X0246750Y0197432D02*
X0246850Y0197432D01*
X0246850Y0195833D02*
X0246750Y0195833D01*
X0246235Y0194235D02*
X0247365Y0194235D01*
X0274637Y0192636D02*
X0275071Y0192636D01*
X0275071Y0191038D02*
X0274563Y0191038D01*
X0275046Y0183045D02*
X0275071Y0183045D01*
X0275071Y0181447D02*
X0274154Y0181447D01*
X0273856Y0171856D02*
X0275071Y0171856D01*
X0275071Y0162265D02*
X0274265Y0162265D01*
X0274934Y0160666D02*
X0275071Y0160666D01*
X0275071Y0152673D02*
X0274674Y0152673D01*
X0274525Y0151075D02*
X0275071Y0151075D01*
X0275071Y0141484D02*
X0274116Y0141484D01*
X0273893Y0131893D02*
X0275071Y0131893D01*
X0275071Y0122302D02*
X0274302Y0122302D01*
X0274897Y0120703D02*
X0275071Y0120703D01*
X0275071Y0112711D02*
X0274711Y0112711D01*
X0274488Y0111112D02*
X0275071Y0111112D01*
X0275071Y0101521D02*
X0274079Y0101521D01*
X0271900Y0095127D02*
X0271700Y0095127D01*
X0271700Y0093529D02*
X0271900Y0093529D01*
X0271900Y0091930D02*
X0271700Y0091930D01*
X0269670Y0091930D02*
X0263930Y0091930D01*
X0264324Y0090332D02*
X0275071Y0090332D01*
X0275071Y0091930D02*
X0273930Y0091930D01*
X0275071Y0088733D02*
X0267307Y0088733D01*
X0269035Y0087134D02*
X0275071Y0087134D01*
X0275071Y0085536D02*
X0270354Y0085536D01*
X0271277Y0083937D02*
X0275071Y0083937D01*
X0275071Y0082339D02*
X0271901Y0082339D01*
X0272329Y0080740D02*
X0275071Y0080740D01*
X0275071Y0079142D02*
X0272505Y0079142D01*
X0272505Y0077543D02*
X0275071Y0077543D01*
X0275071Y0075945D02*
X0272291Y0075945D01*
X0271863Y0074346D02*
X0275071Y0074346D01*
X0275071Y0072748D02*
X0271195Y0072748D01*
X0270272Y0071149D02*
X0275071Y0071149D01*
X0268071Y0093529D02*
X0265529Y0093529D01*
X0266750Y0095127D02*
X0266850Y0095127D01*
X0256882Y0104718D02*
X0256718Y0104718D01*
X0256750Y0106317D02*
X0256850Y0106317D01*
X0256850Y0107915D02*
X0256750Y0107915D01*
X0256087Y0109514D02*
X0257513Y0109514D01*
X0207365Y0194235D02*
X0206235Y0194235D01*
X0206750Y0195833D02*
X0206850Y0195833D01*
X0206850Y0197432D02*
X0206750Y0197432D01*
X0206570Y0199030D02*
X0207030Y0199030D01*
X0198646Y0224606D02*
X0164954Y0224606D01*
X0165581Y0226205D02*
X0198019Y0226205D01*
X0198123Y0227803D02*
X0165477Y0227803D01*
X0164545Y0229402D02*
X0199055Y0229402D01*
X0187500Y0189439D02*
X0106161Y0189439D01*
X0106750Y0187841D02*
X0187500Y0187841D01*
X0187500Y0186242D02*
X0106750Y0186242D01*
X0106644Y0184644D02*
X0187500Y0184644D01*
X0197476Y0149476D02*
X0159471Y0149476D01*
X0160446Y0147878D02*
X0196850Y0147878D01*
X0196850Y0146279D02*
X0160581Y0146279D01*
X0160015Y0144681D02*
X0196919Y0144681D01*
X0192456Y0046696D02*
X0192456Y0046696D01*
X0083646Y0224606D02*
X0072168Y0224606D01*
X0072778Y0226205D02*
X0083019Y0226205D01*
X0083123Y0227803D02*
X0073270Y0227803D01*
X0073541Y0229402D02*
X0084055Y0229402D01*
X0057030Y0199030D02*
X0056570Y0199030D01*
X0056750Y0197432D02*
X0056850Y0197432D01*
X0056850Y0195833D02*
X0056750Y0195833D01*
X0056235Y0194235D02*
X0057365Y0194235D01*
X0029446Y0181447D02*
X0028135Y0181447D01*
X0028135Y0183045D02*
X0028554Y0183045D01*
X0028146Y0173454D02*
X0028135Y0173454D01*
X0028135Y0171856D02*
X0029744Y0171856D01*
X0028257Y0170257D02*
X0028135Y0170257D01*
X0028135Y0162265D02*
X0029335Y0162265D01*
X0028666Y0160666D02*
X0028135Y0160666D01*
X0028135Y0152673D02*
X0028926Y0152673D01*
X0029075Y0151075D02*
X0028135Y0151075D01*
X0028135Y0143082D02*
X0028517Y0143082D01*
X0028135Y0141484D02*
X0029484Y0141484D01*
X0029037Y0191038D02*
X0028135Y0191038D01*
X0028135Y0192636D02*
X0028963Y0192636D01*
X0028175Y0328510D02*
X0040387Y0328510D01*
X0039487Y0330108D02*
X0028175Y0330108D01*
X0028175Y0331707D02*
X0044116Y0331707D01*
X0044116Y0331984D02*
X0044116Y0341616D01*
X0044484Y0341616D01*
X0044484Y0336700D01*
X0044484Y0331984D01*
X0044116Y0331984D01*
X0044116Y0333305D02*
X0044484Y0333305D01*
X0044484Y0334904D02*
X0044116Y0334904D01*
X0044116Y0336502D02*
X0044484Y0336502D01*
X0044484Y0338101D02*
X0044116Y0338101D01*
X0044116Y0339699D02*
X0044484Y0339699D01*
X0044484Y0341298D02*
X0044116Y0341298D01*
X0044116Y0341984D02*
X0044116Y0351616D01*
X0044484Y0351616D01*
X0044484Y0346700D01*
X0044484Y0341984D01*
X0044116Y0341984D01*
X0044116Y0342896D02*
X0044484Y0342896D01*
X0044484Y0344495D02*
X0044116Y0344495D01*
X0044116Y0346093D02*
X0044484Y0346093D01*
X0044484Y0347692D02*
X0044116Y0347692D01*
X0044116Y0349290D02*
X0044484Y0349290D01*
X0044484Y0350889D02*
X0044116Y0350889D01*
X0044116Y0351984D02*
X0044116Y0361616D01*
X0044484Y0361616D01*
X0044484Y0356700D01*
X0044484Y0351984D01*
X0044116Y0351984D01*
X0044116Y0352487D02*
X0044484Y0352487D01*
X0044484Y0354086D02*
X0044116Y0354086D01*
X0044116Y0355684D02*
X0044484Y0355684D01*
X0044484Y0357283D02*
X0044116Y0357283D01*
X0044116Y0358881D02*
X0044484Y0358881D01*
X0044484Y0360480D02*
X0044116Y0360480D01*
X0044116Y0361984D02*
X0044116Y0371616D01*
X0044484Y0371616D01*
X0044484Y0366700D01*
X0044484Y0361984D01*
X0044116Y0361984D01*
X0044116Y0362078D02*
X0044484Y0362078D01*
X0044484Y0363677D02*
X0044116Y0363677D01*
X0044116Y0365275D02*
X0044484Y0365275D01*
X0044484Y0366874D02*
X0044116Y0366874D01*
X0042957Y0366874D02*
X0028175Y0366874D01*
X0028175Y0368472D02*
X0040415Y0368472D01*
X0039499Y0370071D02*
X0028175Y0370071D01*
X0028175Y0371670D02*
X0044116Y0371670D01*
X0044116Y0371984D02*
X0044116Y0381616D01*
X0044484Y0381616D01*
X0044484Y0376700D01*
X0044484Y0371984D01*
X0044116Y0371984D01*
X0044116Y0373268D02*
X0044484Y0373268D01*
X0044484Y0374867D02*
X0044116Y0374867D01*
X0044116Y0376465D02*
X0044484Y0376465D01*
X0044484Y0378064D02*
X0044116Y0378064D01*
X0044116Y0379662D02*
X0044484Y0379662D01*
X0044484Y0381261D02*
X0044116Y0381261D01*
X0044116Y0381984D02*
X0044116Y0391616D01*
X0044484Y0391616D01*
X0044484Y0386700D01*
X0044484Y0381984D01*
X0044116Y0381984D01*
X0044116Y0382859D02*
X0044484Y0382859D01*
X0044484Y0384458D02*
X0044116Y0384458D01*
X0044116Y0386056D02*
X0044484Y0386056D01*
X0044484Y0387655D02*
X0044116Y0387655D01*
X0044116Y0389253D02*
X0044484Y0389253D01*
X0044484Y0390852D02*
X0044116Y0390852D01*
X0044116Y0391984D02*
X0044116Y0401616D01*
X0044484Y0401616D01*
X0044484Y0396700D01*
X0044484Y0391984D01*
X0044116Y0391984D01*
X0044116Y0392450D02*
X0044484Y0392450D01*
X0044484Y0394049D02*
X0044116Y0394049D01*
X0044116Y0395647D02*
X0044484Y0395647D01*
X0044484Y0397246D02*
X0044116Y0397246D01*
X0044116Y0398844D02*
X0044484Y0398844D01*
X0044484Y0400443D02*
X0044116Y0400443D01*
X0044116Y0401984D02*
X0044116Y0411616D01*
X0044484Y0411616D01*
X0044484Y0406700D01*
X0044484Y0401984D01*
X0044116Y0401984D01*
X0044116Y0402041D02*
X0044484Y0402041D01*
X0044484Y0403640D02*
X0044116Y0403640D01*
X0044116Y0405238D02*
X0044484Y0405238D01*
X0044484Y0406837D02*
X0044116Y0406837D01*
X0043071Y0406837D02*
X0028175Y0406837D01*
X0028175Y0408435D02*
X0040452Y0408435D01*
X0039511Y0410034D02*
X0028175Y0410034D01*
X0028175Y0411632D02*
X0044116Y0411632D01*
X0044116Y0411984D02*
X0039200Y0411984D01*
X0039200Y0412201D01*
X0039326Y0412994D01*
X0039574Y0413758D01*
X0039938Y0414473D01*
X0040410Y0415122D01*
X0040978Y0415690D01*
X0041627Y0416162D01*
X0042342Y0416526D01*
X0043106Y0416774D01*
X0043899Y0416900D01*
X0044116Y0416900D01*
X0044116Y0411984D01*
X0044116Y0413231D02*
X0044484Y0413231D01*
X0044484Y0414829D02*
X0044116Y0414829D01*
X0044116Y0416428D02*
X0044484Y0416428D01*
X0046451Y0416428D02*
X0052146Y0416428D01*
X0050117Y0414829D02*
X0048403Y0414829D01*
X0049198Y0413231D02*
X0049372Y0413231D01*
X0044484Y0410034D02*
X0044116Y0410034D01*
X0044116Y0408435D02*
X0044484Y0408435D01*
X0040526Y0405238D02*
X0028175Y0405238D01*
X0028175Y0403640D02*
X0039535Y0403640D01*
X0039200Y0402041D02*
X0028175Y0402041D01*
X0028175Y0400443D02*
X0039379Y0400443D01*
X0040144Y0398844D02*
X0028175Y0398844D01*
X0028175Y0397246D02*
X0042005Y0397246D01*
X0040935Y0395647D02*
X0028175Y0395647D01*
X0028175Y0394049D02*
X0039722Y0394049D01*
X0039239Y0392450D02*
X0028175Y0392450D01*
X0028175Y0390852D02*
X0039287Y0390852D01*
X0039874Y0389253D02*
X0028175Y0389253D01*
X0028175Y0387655D02*
X0041329Y0387655D01*
X0041481Y0386056D02*
X0028175Y0386056D01*
X0028175Y0384458D02*
X0039930Y0384458D01*
X0039304Y0382859D02*
X0028175Y0382859D01*
X0028175Y0381261D02*
X0039222Y0381261D01*
X0039665Y0379662D02*
X0028175Y0379662D01*
X0028175Y0378064D02*
X0040824Y0378064D01*
X0042222Y0376465D02*
X0028175Y0376465D01*
X0028175Y0374867D02*
X0040224Y0374867D01*
X0039415Y0373268D02*
X0028175Y0373268D01*
X0028175Y0365275D02*
X0040563Y0365275D01*
X0039547Y0363677D02*
X0028175Y0363677D01*
X0028175Y0362078D02*
X0039200Y0362078D01*
X0039366Y0360480D02*
X0028175Y0360480D01*
X0028175Y0358881D02*
X0040117Y0358881D01*
X0041932Y0357283D02*
X0028175Y0357283D01*
X0028175Y0355684D02*
X0040972Y0355684D01*
X0039741Y0354086D02*
X0028175Y0354086D01*
X0028175Y0352487D02*
X0039245Y0352487D01*
X0039281Y0350889D02*
X0028175Y0350889D01*
X0028175Y0349290D02*
X0039855Y0349290D01*
X0041278Y0347692D02*
X0028175Y0347692D01*
X0028175Y0346093D02*
X0041533Y0346093D01*
X0039954Y0344495D02*
X0028175Y0344495D01*
X0028175Y0342896D02*
X0039310Y0342896D01*
X0039216Y0341298D02*
X0028175Y0341298D01*
X0028175Y0339699D02*
X0039646Y0339699D01*
X0040787Y0338101D02*
X0028175Y0338101D01*
X0028175Y0336502D02*
X0042295Y0336502D01*
X0040251Y0334904D02*
X0028175Y0334904D01*
X0028175Y0333305D02*
X0039427Y0333305D01*
X0044116Y0330108D02*
X0044484Y0330108D01*
X0044484Y0328510D02*
X0044116Y0328510D01*
X0044116Y0368472D02*
X0044484Y0368472D01*
X0044484Y0370071D02*
X0044116Y0370071D01*
X0039402Y0413231D02*
X0028175Y0413231D01*
X0028175Y0414829D02*
X0040197Y0414829D01*
X0042149Y0416428D02*
X0028175Y0416428D01*
X0028175Y0418026D02*
X0275071Y0418026D01*
X0275071Y0416428D02*
X0261451Y0416428D01*
X0261258Y0416526D02*
X0261973Y0416162D01*
X0262622Y0415690D01*
X0263190Y0415122D01*
X0263662Y0414473D01*
X0264026Y0413758D01*
X0264274Y0412994D01*
X0264400Y0412201D01*
X0264400Y0411984D01*
X0259484Y0411984D01*
X0259484Y0416900D01*
X0259701Y0416900D01*
X0260494Y0416774D01*
X0261258Y0416526D01*
X0259484Y0416428D02*
X0259116Y0416428D01*
X0259116Y0414829D02*
X0259484Y0414829D01*
X0259484Y0413231D02*
X0259116Y0413231D01*
X0259484Y0411632D02*
X0275071Y0411632D01*
X0275071Y0410034D02*
X0264089Y0410034D01*
X0263148Y0408435D02*
X0275071Y0408435D01*
X0275071Y0406837D02*
X0260529Y0406837D01*
X0259484Y0406837D02*
X0259116Y0406837D01*
X0259116Y0408435D02*
X0259484Y0408435D01*
X0259484Y0410034D02*
X0259116Y0410034D01*
X0259116Y0405238D02*
X0259484Y0405238D01*
X0259484Y0403640D02*
X0259116Y0403640D01*
X0259116Y0402041D02*
X0259484Y0402041D01*
X0259484Y0400443D02*
X0259116Y0400443D01*
X0259116Y0398844D02*
X0259484Y0398844D01*
X0259484Y0397246D02*
X0259116Y0397246D01*
X0259116Y0395647D02*
X0259484Y0395647D01*
X0259484Y0394049D02*
X0259116Y0394049D01*
X0259116Y0392450D02*
X0259484Y0392450D01*
X0259484Y0390852D02*
X0259116Y0390852D01*
X0259116Y0389253D02*
X0259484Y0389253D01*
X0259484Y0387655D02*
X0259116Y0387655D01*
X0259116Y0386056D02*
X0259484Y0386056D01*
X0259484Y0384458D02*
X0259116Y0384458D01*
X0259116Y0382859D02*
X0259484Y0382859D01*
X0259484Y0381261D02*
X0259116Y0381261D01*
X0259116Y0379662D02*
X0259484Y0379662D01*
X0259484Y0378064D02*
X0259116Y0378064D01*
X0259116Y0376465D02*
X0259484Y0376465D01*
X0259484Y0374867D02*
X0259116Y0374867D01*
X0259116Y0373268D02*
X0259484Y0373268D01*
X0259484Y0371670D02*
X0275071Y0371670D01*
X0275071Y0373268D02*
X0264185Y0373268D01*
X0263376Y0374867D02*
X0275071Y0374867D01*
X0275071Y0376465D02*
X0261378Y0376465D01*
X0262776Y0378064D02*
X0275071Y0378064D01*
X0275071Y0379662D02*
X0263935Y0379662D01*
X0264378Y0381261D02*
X0275071Y0381261D01*
X0275071Y0382859D02*
X0264296Y0382859D01*
X0263670Y0384458D02*
X0275071Y0384458D01*
X0275071Y0386056D02*
X0262119Y0386056D01*
X0262271Y0387655D02*
X0275071Y0387655D01*
X0275071Y0389253D02*
X0263726Y0389253D01*
X0264313Y0390852D02*
X0275071Y0390852D01*
X0275071Y0392450D02*
X0264361Y0392450D01*
X0263878Y0394049D02*
X0275071Y0394049D01*
X0275071Y0395647D02*
X0262665Y0395647D01*
X0261595Y0397246D02*
X0275071Y0397246D01*
X0275071Y0398844D02*
X0263456Y0398844D01*
X0264221Y0400443D02*
X0275071Y0400443D01*
X0275071Y0402041D02*
X0264400Y0402041D01*
X0264065Y0403640D02*
X0275071Y0403640D01*
X0275071Y0405238D02*
X0263074Y0405238D01*
X0264198Y0413231D02*
X0275071Y0413231D01*
X0275071Y0414829D02*
X0263403Y0414829D01*
X0257149Y0416428D02*
X0251454Y0416428D01*
X0253483Y0414829D02*
X0255197Y0414829D01*
X0254402Y0413231D02*
X0254228Y0413231D01*
X0254326Y0412994D02*
X0254326Y0412994D01*
X0247146Y0416428D02*
X0234667Y0416428D01*
X0236266Y0414829D02*
X0245117Y0414829D01*
X0244372Y0413231D02*
X0237100Y0413231D01*
X0237100Y0411632D02*
X0244200Y0411632D01*
X0244511Y0410034D02*
X0237100Y0410034D01*
X0235931Y0408435D02*
X0245452Y0408435D01*
X0247955Y0406837D02*
X0234332Y0406837D01*
X0235857Y0405238D02*
X0245526Y0405238D01*
X0244542Y0403640D02*
X0237100Y0403640D01*
X0237100Y0402041D02*
X0244200Y0402041D01*
X0244342Y0400443D02*
X0237100Y0400443D01*
X0236340Y0398844D02*
X0245043Y0398844D01*
X0246968Y0397246D02*
X0234741Y0397246D01*
X0235448Y0395647D02*
X0245935Y0395647D01*
X0244711Y0394049D02*
X0237047Y0394049D01*
X0237100Y0392450D02*
X0244200Y0392450D01*
X0244200Y0390852D02*
X0237100Y0390852D01*
X0236748Y0389253D02*
X0244835Y0389253D01*
X0246233Y0387655D02*
X0235150Y0387655D01*
X0235039Y0386056D02*
X0246344Y0386056D01*
X0244881Y0384458D02*
X0236638Y0384458D01*
X0237100Y0382859D02*
X0244218Y0382859D01*
X0244200Y0381261D02*
X0237100Y0381261D01*
X0237100Y0379662D02*
X0244665Y0379662D01*
X0245824Y0378064D02*
X0235559Y0378064D01*
X0234630Y0376465D02*
X0247236Y0376465D01*
X0245154Y0374867D02*
X0236229Y0374867D01*
X0237100Y0373268D02*
X0244388Y0373268D01*
X0244200Y0371670D02*
X0237100Y0371670D01*
X0237100Y0370071D02*
X0244496Y0370071D01*
X0245415Y0368472D02*
X0235968Y0368472D01*
X0234369Y0366874D02*
X0247866Y0366874D01*
X0245563Y0365275D02*
X0235820Y0365275D01*
X0237100Y0363677D02*
X0244557Y0363677D01*
X0244200Y0362078D02*
X0237100Y0362078D01*
X0237100Y0360480D02*
X0244327Y0360480D01*
X0245006Y0358881D02*
X0236377Y0358881D01*
X0234778Y0357283D02*
X0246878Y0357283D01*
X0245972Y0355684D02*
X0235411Y0355684D01*
X0237009Y0354086D02*
X0244727Y0354086D01*
X0244200Y0352487D02*
X0237100Y0352487D01*
X0237100Y0350889D02*
X0244200Y0350889D01*
X0244819Y0349290D02*
X0236786Y0349290D01*
X0235187Y0347692D02*
X0246196Y0347692D01*
X0246381Y0346093D02*
X0235002Y0346093D01*
X0236600Y0344495D02*
X0244896Y0344495D01*
X0244234Y0342896D02*
X0237100Y0342896D01*
X0237100Y0341298D02*
X0244200Y0341298D01*
X0244650Y0339699D02*
X0237100Y0339699D01*
X0235596Y0338101D02*
X0245787Y0338101D01*
X0247325Y0336502D02*
X0234593Y0336502D01*
X0236192Y0334904D02*
X0245191Y0334904D01*
X0244403Y0333305D02*
X0237100Y0333305D01*
X0237100Y0331707D02*
X0244200Y0331707D01*
X0244481Y0330108D02*
X0237100Y0330108D01*
X0236005Y0328510D02*
X0245378Y0328510D01*
X0247776Y0326911D02*
X0234407Y0326911D01*
X0235783Y0325313D02*
X0245600Y0325313D01*
X0244573Y0323714D02*
X0237100Y0323714D01*
X0237100Y0322116D02*
X0244200Y0322116D01*
X0244311Y0320517D02*
X0237100Y0320517D01*
X0236414Y0318919D02*
X0244973Y0318919D01*
X0246788Y0317320D02*
X0234815Y0317320D01*
X0235374Y0315722D02*
X0246009Y0315722D01*
X0244742Y0314123D02*
X0236972Y0314123D01*
X0237100Y0312525D02*
X0244200Y0312525D01*
X0244200Y0310926D02*
X0237100Y0310926D01*
X0236823Y0309328D02*
X0244804Y0309328D01*
X0246158Y0307729D02*
X0235224Y0307729D01*
X0234965Y0306131D02*
X0246428Y0306131D01*
X0244911Y0304532D02*
X0236563Y0304532D01*
X0237100Y0302934D02*
X0244249Y0302934D01*
X0244200Y0301335D02*
X0237100Y0301335D01*
X0237100Y0299737D02*
X0244635Y0299737D01*
X0245750Y0298138D02*
X0235633Y0298138D01*
X0234556Y0296539D02*
X0246000Y0296539D01*
X0246000Y0294941D02*
X0236154Y0294941D01*
X0237100Y0293342D02*
X0246000Y0293342D01*
X0246000Y0291744D02*
X0237100Y0291744D01*
X0237100Y0290145D02*
X0246000Y0290145D01*
X0246000Y0288547D02*
X0236042Y0288547D01*
X0234444Y0286948D02*
X0246000Y0286948D01*
X0246000Y0285350D02*
X0235745Y0285350D01*
X0237100Y0283751D02*
X0246000Y0283751D01*
X0244693Y0282153D02*
X0237100Y0282153D01*
X0237100Y0280554D02*
X0243095Y0280554D01*
X0241496Y0278956D02*
X0236451Y0278956D01*
X0234853Y0277357D02*
X0239898Y0277357D01*
X0238299Y0275759D02*
X0235336Y0275759D01*
X0251600Y0285350D02*
X0252072Y0285350D01*
X0251600Y0286948D02*
X0254828Y0286948D01*
X0251600Y0288547D02*
X0269773Y0288547D01*
X0268393Y0290145D02*
X0251600Y0290145D01*
X0251600Y0291744D02*
X0268019Y0291744D01*
X0268346Y0293342D02*
X0251600Y0293342D01*
X0251600Y0294941D02*
X0269594Y0294941D01*
X0264390Y0301335D02*
X0275071Y0301335D01*
X0275071Y0299737D02*
X0263972Y0299737D01*
X0262850Y0298138D02*
X0275071Y0298138D01*
X0275071Y0296539D02*
X0251600Y0296539D01*
X0252850Y0298138D02*
X0255750Y0298138D01*
X0254628Y0299737D02*
X0253965Y0299737D01*
X0259116Y0299737D02*
X0259484Y0299737D01*
X0259484Y0301335D02*
X0259116Y0301335D01*
X0259116Y0302934D02*
X0259484Y0302934D01*
X0259484Y0304532D02*
X0259116Y0304532D01*
X0259116Y0306131D02*
X0259484Y0306131D01*
X0259484Y0307729D02*
X0259116Y0307729D01*
X0259116Y0309328D02*
X0259484Y0309328D01*
X0259484Y0310926D02*
X0259116Y0310926D01*
X0259116Y0312525D02*
X0259484Y0312525D01*
X0259484Y0314123D02*
X0259116Y0314123D01*
X0259116Y0315722D02*
X0259484Y0315722D01*
X0259484Y0317320D02*
X0259116Y0317320D01*
X0259116Y0318919D02*
X0259484Y0318919D01*
X0259484Y0320517D02*
X0259116Y0320517D01*
X0259116Y0322116D02*
X0259484Y0322116D01*
X0259484Y0323714D02*
X0259116Y0323714D01*
X0259116Y0325313D02*
X0259484Y0325313D01*
X0259484Y0326911D02*
X0259116Y0326911D01*
X0259116Y0328510D02*
X0259484Y0328510D01*
X0259484Y0330108D02*
X0259116Y0330108D01*
X0259484Y0331707D02*
X0275071Y0331707D01*
X0275071Y0333305D02*
X0264173Y0333305D01*
X0263349Y0334904D02*
X0275071Y0334904D01*
X0275071Y0336502D02*
X0261305Y0336502D01*
X0259484Y0336502D02*
X0259116Y0336502D01*
X0259116Y0334904D02*
X0259484Y0334904D01*
X0259484Y0333305D02*
X0259116Y0333305D01*
X0259116Y0338101D02*
X0259484Y0338101D01*
X0259484Y0339699D02*
X0259116Y0339699D01*
X0259116Y0341298D02*
X0259484Y0341298D01*
X0259484Y0342896D02*
X0259116Y0342896D01*
X0259116Y0344495D02*
X0259484Y0344495D01*
X0259484Y0346093D02*
X0259116Y0346093D01*
X0259116Y0347692D02*
X0259484Y0347692D01*
X0259484Y0349290D02*
X0259116Y0349290D01*
X0259116Y0350889D02*
X0259484Y0350889D01*
X0259484Y0352487D02*
X0259116Y0352487D01*
X0259116Y0354086D02*
X0259484Y0354086D01*
X0259484Y0355684D02*
X0259116Y0355684D01*
X0259116Y0357283D02*
X0259484Y0357283D01*
X0259484Y0358881D02*
X0259116Y0358881D01*
X0259116Y0360480D02*
X0259484Y0360480D01*
X0259484Y0362078D02*
X0259116Y0362078D01*
X0259116Y0363677D02*
X0259484Y0363677D01*
X0259484Y0365275D02*
X0259116Y0365275D01*
X0259116Y0366874D02*
X0259484Y0366874D01*
X0260643Y0366874D02*
X0275071Y0366874D01*
X0275071Y0368472D02*
X0263185Y0368472D01*
X0264101Y0370071D02*
X0275071Y0370071D01*
X0275071Y0365275D02*
X0263037Y0365275D01*
X0264053Y0363677D02*
X0275071Y0363677D01*
X0275071Y0362078D02*
X0264400Y0362078D01*
X0264234Y0360480D02*
X0275071Y0360480D01*
X0275071Y0358881D02*
X0263483Y0358881D01*
X0261668Y0357283D02*
X0275071Y0357283D01*
X0275071Y0355684D02*
X0262628Y0355684D01*
X0263859Y0354086D02*
X0275071Y0354086D01*
X0275071Y0352487D02*
X0264355Y0352487D01*
X0264319Y0350889D02*
X0275071Y0350889D01*
X0275071Y0349290D02*
X0263745Y0349290D01*
X0262322Y0347692D02*
X0275071Y0347692D01*
X0275071Y0346093D02*
X0262067Y0346093D01*
X0263646Y0344495D02*
X0275071Y0344495D01*
X0275071Y0342896D02*
X0264290Y0342896D01*
X0264384Y0341298D02*
X0275071Y0341298D01*
X0275071Y0339699D02*
X0263953Y0339699D01*
X0262813Y0338101D02*
X0275071Y0338101D01*
X0275071Y0330108D02*
X0264113Y0330108D01*
X0263213Y0328510D02*
X0275071Y0328510D01*
X0275071Y0326911D02*
X0260758Y0326911D01*
X0263000Y0325313D02*
X0275071Y0325313D01*
X0275071Y0323714D02*
X0264040Y0323714D01*
X0264400Y0322116D02*
X0275071Y0322116D01*
X0275071Y0320517D02*
X0264246Y0320517D01*
X0263511Y0318919D02*
X0275071Y0318919D01*
X0275071Y0317320D02*
X0261741Y0317320D01*
X0262579Y0315722D02*
X0275071Y0315722D01*
X0275071Y0314123D02*
X0263840Y0314123D01*
X0264349Y0312525D02*
X0275071Y0312525D01*
X0275071Y0310926D02*
X0264325Y0310926D01*
X0263764Y0309328D02*
X0275071Y0309328D01*
X0275071Y0307729D02*
X0262373Y0307729D01*
X0262016Y0306131D02*
X0275071Y0306131D01*
X0275071Y0304532D02*
X0263619Y0304532D01*
X0264284Y0302934D02*
X0275071Y0302934D01*
X0275071Y0294941D02*
X0274006Y0294941D01*
X0273827Y0288547D02*
X0275071Y0288547D01*
X0275071Y0286948D02*
X0264914Y0286948D01*
X0267670Y0285350D02*
X0275071Y0285350D01*
X0275071Y0283751D02*
X0269268Y0283751D01*
X0270506Y0282153D02*
X0275071Y0282153D01*
X0275071Y0280554D02*
X0271429Y0280554D01*
X0271992Y0278956D02*
X0275071Y0278956D01*
X0275071Y0277357D02*
X0272421Y0277357D01*
X0272545Y0275759D02*
X0275071Y0275759D01*
X0275071Y0274160D02*
X0272545Y0274160D01*
X0272278Y0272562D02*
X0275071Y0272562D01*
X0275071Y0270963D02*
X0271850Y0270963D01*
X0271122Y0269365D02*
X0275071Y0269365D01*
X0275071Y0267766D02*
X0270199Y0267766D01*
X0259484Y0298138D02*
X0259116Y0298138D01*
X0259116Y0368472D02*
X0259484Y0368472D01*
X0259484Y0370071D02*
X0259116Y0370071D01*
X0275071Y0419625D02*
X0028175Y0419625D01*
X0028175Y0421223D02*
X0275071Y0421223D01*
X0275071Y0422822D02*
X0028175Y0422822D01*
X0028175Y0424420D02*
X0028832Y0424420D01*
X0028869Y0429216D02*
X0028175Y0429216D01*
X0028175Y0430814D02*
X0275071Y0430814D01*
X0275071Y0429216D02*
X0274731Y0429216D01*
X0275071Y0432413D02*
X0028175Y0432413D01*
X0028175Y0434011D02*
X0275071Y0434011D01*
X0275071Y0435610D02*
X0028175Y0435610D01*
X0028175Y0437208D02*
X0275071Y0437208D01*
X0275071Y0438807D02*
X0028175Y0438807D01*
X0028175Y0440405D02*
X0039135Y0440405D01*
X0036017Y0442004D02*
X0028175Y0442004D01*
X0028175Y0443603D02*
X0034239Y0443603D01*
X0032891Y0445201D02*
X0028175Y0445201D01*
X0028175Y0446800D02*
X0031968Y0446800D01*
X0031323Y0448398D02*
X0028175Y0448398D01*
X0028175Y0449997D02*
X0030895Y0449997D01*
X0030701Y0451595D02*
X0028175Y0451595D01*
X0028175Y0453194D02*
X0030701Y0453194D01*
X0030897Y0454792D02*
X0028175Y0454792D01*
X0028175Y0456391D02*
X0031326Y0456391D01*
X0031972Y0457989D02*
X0028175Y0457989D01*
X0028175Y0459588D02*
X0032895Y0459588D01*
X0047615Y0440405D02*
X0255778Y0440405D01*
X0252581Y0442004D02*
X0050733Y0442004D01*
X0052511Y0443603D02*
X0250774Y0443603D01*
X0249410Y0445201D02*
X0053859Y0445201D01*
X0054782Y0446800D02*
X0248487Y0446800D01*
X0247830Y0448398D02*
X0055426Y0448398D01*
X0055854Y0449997D02*
X0247402Y0449997D01*
X0247197Y0451595D02*
X0056049Y0451595D01*
X0056049Y0453194D02*
X0247197Y0453194D01*
X0247383Y0454792D02*
X0055852Y0454792D01*
X0055424Y0456391D02*
X0247811Y0456391D01*
X0248446Y0457989D02*
X0054777Y0457989D01*
X0053854Y0459588D02*
X0249369Y0459588D01*
X0250703Y0461186D02*
X0052503Y0461186D01*
X0053297Y0462785D02*
X0250833Y0462785D01*
X0250163Y0462926D02*
X0250163Y0462926D01*
X0246969Y0464383D02*
X0057247Y0464383D01*
X0059832Y0465982D02*
X0243737Y0465982D01*
X0244149Y0465670D02*
X0244149Y0465670D01*
X0241629Y0467580D02*
X0062278Y0467580D01*
X0063980Y0469179D02*
X0239520Y0469179D01*
X0238881Y0469663D02*
X0238881Y0469663D01*
X0238881Y0469663D01*
X0237939Y0470777D02*
X0065683Y0470777D01*
X0066570Y0471610D02*
X0066570Y0471610D01*
X0067113Y0472376D02*
X0236589Y0472376D01*
X0235238Y0473974D02*
X0068246Y0473974D01*
X0069380Y0475573D02*
X0234165Y0475573D01*
X0234614Y0474712D02*
X0234614Y0474712D01*
X0233331Y0477171D02*
X0070392Y0477171D01*
X0071099Y0478770D02*
X0232496Y0478770D01*
X0231662Y0480368D02*
X0071807Y0480368D01*
X0072514Y0481967D02*
X0231184Y0481967D01*
X0231555Y0480572D02*
X0231555Y0480572D01*
X0230757Y0483565D02*
X0072971Y0483565D01*
X0072723Y0482438D02*
X0072723Y0482438D01*
X0073323Y0485164D02*
X0230331Y0485164D01*
X0229905Y0486762D02*
X0073674Y0486762D01*
X0074026Y0488361D02*
X0229797Y0488361D01*
X0229853Y0486959D02*
X0229853Y0486959D01*
X0229733Y0489959D02*
X0074091Y0489959D01*
X0074067Y0488550D02*
X0074067Y0488550D01*
X0074120Y0491558D02*
X0229638Y0491558D01*
X0229638Y0493156D02*
X0074120Y0493156D01*
X0074120Y0494755D02*
X0229638Y0494755D01*
X0229638Y0496353D02*
X0074120Y0496353D01*
X0074120Y0497952D02*
X0229638Y0497952D01*
X0229638Y0499550D02*
X0074120Y0499550D01*
X0074120Y0501149D02*
X0229638Y0501149D01*
X0229638Y0502747D02*
X0074120Y0502747D01*
X0074120Y0504346D02*
X0229638Y0504346D01*
X0229638Y0505944D02*
X0074120Y0505944D01*
X0074120Y0507543D02*
X0229638Y0507543D01*
X0228307Y0509141D02*
X0075390Y0509141D01*
X0077373Y0510740D02*
X0226032Y0510740D01*
X0224144Y0512339D02*
X0079356Y0512339D01*
X0080834Y0513937D02*
X0222490Y0513937D01*
X0222947Y0513394D02*
X0222947Y0513394D01*
X0263964Y0440405D02*
X0275071Y0440405D01*
X0275071Y0442004D02*
X0267161Y0442004D01*
X0268967Y0443603D02*
X0275071Y0443603D01*
X0275071Y0445201D02*
X0270332Y0445201D01*
X0271255Y0446800D02*
X0275071Y0446800D01*
X0275071Y0448398D02*
X0271912Y0448398D01*
X0272340Y0449997D02*
X0275071Y0449997D01*
X0275071Y0451595D02*
X0272545Y0451595D01*
X0272545Y0453194D02*
X0275071Y0453194D01*
X0275071Y0454792D02*
X0272359Y0454792D01*
X0271931Y0456391D02*
X0275071Y0456391D01*
X0275071Y0457989D02*
X0271296Y0457989D01*
X0270373Y0459588D02*
X0275071Y0459588D01*
X0275071Y0461186D02*
X0269038Y0461186D01*
X0268869Y0429216D02*
X0034731Y0429216D01*
X0035554Y0427617D02*
X0268046Y0427617D01*
X0268031Y0426019D02*
X0035569Y0426019D01*
X0034768Y0424420D02*
X0268832Y0424420D01*
X0274768Y0424420D02*
X0275071Y0424420D01*
X0228933Y0416428D02*
X0224667Y0416428D01*
X0226266Y0414829D02*
X0227334Y0414829D01*
X0218933Y0416428D02*
X0214667Y0416428D01*
X0216266Y0414829D02*
X0217334Y0414829D01*
X0208933Y0416428D02*
X0204667Y0416428D01*
X0206266Y0414829D02*
X0207334Y0414829D01*
X0198933Y0416428D02*
X0194667Y0416428D01*
X0196266Y0414829D02*
X0197334Y0414829D01*
X0188933Y0416428D02*
X0184667Y0416428D01*
X0186266Y0414829D02*
X0187334Y0414829D01*
X0178933Y0416428D02*
X0174667Y0416428D01*
X0176266Y0414829D02*
X0177334Y0414829D01*
X0168933Y0416428D02*
X0164667Y0416428D01*
X0166266Y0414829D02*
X0167334Y0414829D01*
D18*
X0248800Y0282300D02*
X0238300Y0271800D01*
X0238300Y0259800D01*
X0227800Y0249300D01*
X0227800Y0202800D01*
X0199300Y0202800D01*
X0190300Y0193800D01*
X0133300Y0193800D01*
X0124300Y0202800D01*
X0047800Y0202800D01*
X0041800Y0196800D01*
X0031800Y0206800D02*
X0066800Y0206800D01*
X0046800Y0161800D02*
X0036800Y0161800D01*
X0031800Y0166800D01*
X0104800Y0070800D02*
X0098800Y0064800D01*
X0098729Y0064359D01*
X0104800Y0070800D02*
X0163300Y0070800D01*
X0181300Y0052800D01*
X0193300Y0052800D01*
X0193650Y0051721D01*
X0190300Y0168300D02*
X0190300Y0193800D01*
X0227800Y0202800D02*
X0254800Y0202800D01*
X0260800Y0196800D01*
X0261800Y0196800D01*
X0248800Y0282300D02*
X0248800Y0301800D01*
X0249300Y0301800D01*
X0116800Y0199300D02*
X0111800Y0194300D01*
X0111800Y0166800D01*
D19*
X0111800Y0166800D03*
X0116800Y0199300D03*
X0066800Y0206800D03*
X0031800Y0206800D03*
D20*
X0190300Y0168300D03*
D21*
X0166800Y0201800D03*
X0161800Y0226800D03*
X0131800Y0201800D03*
X0121800Y0226800D03*
X0086800Y0226800D03*
X0131800Y0146800D03*
X0146800Y0111800D03*
X0156800Y0146800D03*
X0201800Y0226800D03*
X0271800Y0291800D03*
X0271800Y0426800D03*
X0221800Y0086800D03*
X0146800Y0051800D03*
X0081800Y0091800D03*
X0066800Y0061800D03*
X0031800Y0076800D03*
X0031800Y0286800D03*
X0031800Y0426800D03*
M02*
